<svg xmlns="http://www.w3.org/2000/svg" xml:space="preserve" width="703.07458" height="200" viewBox="0 0 703.07458 200.00001"><path d="M127.01 509.015s-5.686-.36-3.784 5.6c0 0 5.802 20.14 11.121 33.19 0 0 1.685 4.523 4.259 5.196 0 0 2.956 1.504 7.539-2.599 21.056-18.882 32.93-41.387 32.93-41.387H127.01z" style="fill:#99b5c2;fill-opacity:1;fill-rule:nonzero;stroke:none" transform="matrix(2.09823 0 0 -2.09823 -232.856 1264.89)"/><path d="M176.327 571.3c-.699-4.22-2.718-3.922-2.718-3.922-1.02-.37-3.404 1.507-3.404 1.507-10.496 8.799-26.58 24.234-32.067 29.79-1.036 1.049-.913 1.969-.674 2.612.518 1.383 2.439 1.395 2.439 1.395h43.194c-1.97-6.76-3.763-15.717-6.77-31.382z" style="fill:#5fa1c6;fill-opacity:1;fill-rule:nonzero;stroke:none" transform="matrix(2.09823 0 0 -2.09823 -232.856 1264.89)"/><path d="M315.67 546.76c.457 1.282 1.103 4.272 1.273 10.55v8.666H283.576v-6.723h23.695v-2.464c-.002-.044-.12-6.517-1.953-10.03-.55-.004-2.65-.028-3.494-.036l-.02 8.392h-9.337s-.016-7.38-.022-8.396h-10.373v-6.5h43.29v6.497s-8.208.034-9.692.044zM240.038 517.528l.023 10.173h21.975V515.88c-1.13.005-20.705.037-20.705.037-.715 0-1.293.722-1.293 1.611zm31.675 49.032h-9.677v-32.136l-31.712.01.024-17.003c0-4.58 3.228-8.323 7.197-8.323h34.168v41.83h7.016v6.671h-7.016v8.95z" style="fill:#1b677e;fill-opacity:1;fill-rule:nonzero;stroke:none" transform="matrix(2.09823 0 0 -2.09823 -232.856 1264.89)"/><path d="m257.767 540.667.013 6.771-23.448.014c-.715 0-1.296.724-1.296 1.612v16.826h-9.734l.01-16.928c0-4.58 3.23-8.305 7.201-8.305l27.254.01zM429.34 565.456l.049.633h-32.35v-6.76h20.438c-1.004-2.913-5.737-13.766-21.18-16.102l-.502-.075v-6.586l.644.057c.309.026 31.01 2.992 32.9 28.833z" style="fill:#1b677e;fill-opacity:1;fill-rule:nonzero;stroke:none" transform="matrix(2.09823 0 0 -2.09823 -232.856 1264.89)"/><path d="M445.469 566.59h-9.08v-12.028h-8.8v-6.676h8.8v-31.937l-20.672.007c-.713 0-1.293.725-1.293 1.614l-.014 14.884h-9.736l.021-15.03c0-4.578 3.229-8.306 7.196-8.306h34.166v57.472h-.588zM371.664 529.356h-9.68s-.017-9.815-.02-10.877h-21.358v-6.694h52.384v6.694h-21.326c-.002 1.062 0 10.877 0 10.877zM344.074 540.586c0-4.576 3.23-8.305 7.201-8.305l37.946-.006v6.823l-34.127-.018c-.713 0-1.295.723-1.295 1.611l-.01 4.62h35.234v6.724H353.79v6.025l35.394.006.004 6.716-45.136.013.002-.593.021-23.616zM312 530.89c4.672 0 8.473-3.736 8.473-8.328 0-4.592-3.801-8.327-8.473-8.327-4.672 0-8.469 3.735-8.469 8.328 0 4.591 3.797 8.327 8.469 8.327zm9.2 5.086a21.17 21.17 0 0 1-9.2 2.105c-10.146 0-18.404-6.855-18.404-15.282s8.258-15.281 18.404-15.281c10.072 0 18.273 6.753 18.396 15.091 0 0 .696 7.88-9.197 13.367z" style="fill:#1b677e;fill-opacity:1;fill-rule:nonzero;stroke:none" transform="matrix(2.09823 0 0 -2.09823 -232.856 1264.89)"/><path d="M330.406 522.795v28.61h6.446v6.53h-6.446v8.682h-9.656V532.23l9.656-9.435z" style="fill:#1b677e;fill-opacity:1;fill-rule:nonzero;stroke:none" transform="matrix(2.09823 0 0 -2.09823 -232.856 1264.89)"/><path d="M198.37 602.427c-7.07-28.597-3.95-64.208.622-92.83 2.79 1.351 3.53 3.925 3.53 5.777v76.98l-.024-.007s.01.042.024.12v3.818c-.012 3.598-2.28 5.447-4.151 6.142z" style="fill:#f6b117;fill-opacity:1;fill-rule:nonzero;stroke:none" transform="matrix(2.09823 0 0 -2.09823 -232.856 1264.89)"/><path d="M198.323 602.427c-.668.271-1.663.39-2.287.408-.639-.01-8.914 0-8.914 0-4.77-12.984-7.025-41.606-5.3-57.076 0 0-26.004 38.44-57.153 52.169-11.231 3.84-13.667-2.484-13.667-9.204l-.025-74.106c0-1.303.662-3.014 2.071-3.595 1.59-.654 3.54.22 4.332 1.876 2.808 5.872 5.335 17.783 7.992 31.475 1.025 5.278 2.64 13.602 3.354 17.358.51 2.684 1.443 4.806 3.44 5.433 2.64.83 6.4-.877 9.375-3.128 18.468-13.973 32.317-33.603 41.903-55.116h12.366c.97.014 2.465.351 3.126.677-4.512 28.62-7.59 64.232-.613 92.829z" style="fill:#1b677e;fill-opacity:1;fill-rule:nonzero;stroke:none" transform="matrix(2.09823 0 0 -2.09823 -232.856 1264.89)"/></svg>