<svg xmlns="http://www.w3.org/2000/svg" xmlns:xlink="http://www.w3.org/1999/xlink" width="1024" zoomAndPan="magnify" viewBox="0 0 768 767.999994" height="1024" preserveAspectRatio="xMidYMid meet" version="1.0"><defs><clipPath id="d9cefdccc5"><path d="M 0 58.433594 L 674.25 58.433594 L 674.25 709.433594 L 0 709.433594 Z M 0 58.433594 " clip-rule="nonzero"/></clipPath><clipPath id="dbdd561e31"><path d="M 80.339844 108.214844 L 303.089844 108.214844 L 303.089844 669.214844 L 80.339844 669.214844 Z M 80.339844 108.214844 " clip-rule="nonzero"/></clipPath><clipPath id="2eeaeeef41"><path d="M 362.664062 300.972656 L 593.664062 300.972656 L 593.664062 657.222656 L 362.664062 657.222656 Z M 362.664062 300.972656 " clip-rule="nonzero"/></clipPath><clipPath id="498344e34e"><path d="M 418.722656 58.433594 L 768 58.433594 L 768 410.933594 L 418.722656 410.933594 Z M 418.722656 58.433594 " clip-rule="nonzero"/></clipPath><clipPath id="417e80cd18"><path d="M 427.796875 65.570312 L 758.546875 65.570312 L 758.546875 400 L 427.796875 400 Z M 427.796875 65.570312 " clip-rule="nonzero"/></clipPath><clipPath id="566e818c59"><path d="M 433.238281 71.058594 L 753.488281 71.058594 L 753.488281 394 L 433.238281 394 Z M 433.238281 71.058594 " clip-rule="nonzero"/></clipPath><clipPath id="9d7b1d6db1"><path d="M 441.558594 77.601562 L 745.308594 77.601562 L 745.308594 384 L 441.558594 384 Z M 441.558594 77.601562 " clip-rule="nonzero"/></clipPath><clipPath id="28eacf5051"><path d="M 511.972656 143.097656 L 674.722656 143.097656 L 674.722656 275.097656 L 511.972656 275.097656 Z M 511.972656 143.097656 " clip-rule="nonzero"/></clipPath></defs><g clip-path="url(#d9cefdccc5)"><path fill="#e0f4ff" d="M 663.484375 687.855469 L 633.261719 687.855469 L 633.261719 262.066406 C 633.261719 256.082031 628.410156 251.230469 622.425781 251.230469 L 348.050781 251.230469 L 348.050781 69.273438 C 348.050781 63.289062 343.195312 58.433594 337.214844 58.433594 L 51.984375 58.433594 C 46 58.433594 41.144531 63.289062 41.144531 69.273438 L 41.144531 687.855469 L 10.941406 687.855469 C 4.957031 687.855469 0.101562 692.707031 0.101562 698.691406 C 0.101562 704.675781 4.957031 709.53125 10.941406 709.53125 L 663.503906 709.53125 C 669.484375 709.53125 674.339844 704.675781 674.339844 698.691406 C 674.324219 692.707031 669.46875 687.855469 663.484375 687.855469 Z M 62.820312 80.109375 L 326.375 80.109375 L 326.375 687.871094 L 62.820312 687.871094 Z M 348.050781 687.855469 L 348.050781 272.90625 L 611.605469 272.90625 L 611.605469 687.855469 Z M 168.066406 568.332031 L 116.289062 568.332031 C 110.304688 568.332031 105.449219 573.1875 105.449219 579.167969 L 105.449219 634.945312 C 105.449219 640.929688 110.304688 645.78125 116.289062 645.78125 L 168.066406 645.78125 C 174.050781 645.78125 178.90625 640.929688 178.90625 634.945312 L 178.90625 579.167969 C 178.90625 573.1875 174.050781 568.332031 168.066406 568.332031 Z M 157.230469 624.105469 L 127.125 624.105469 L 127.125 590.007812 L 157.230469 590.007812 Z M 168.066406 122.183594 L 116.289062 122.183594 C 110.304688 122.183594 105.449219 127.035156 105.449219 133.019531 L 105.449219 188.796875 C 105.449219 194.78125 110.304688 199.632812 116.289062 199.632812 L 168.066406 199.632812 C 174.050781 199.632812 178.90625 194.78125 178.90625 188.796875 L 178.90625 133.019531 C 178.90625 127.035156 174.050781 122.183594 168.066406 122.183594 Z M 157.230469 177.957031 L 127.125 177.957031 L 127.125 143.859375 L 157.230469 143.859375 Z M 272.925781 345.265625 L 221.144531 345.265625 C 215.160156 345.265625 210.308594 350.121094 210.308594 356.105469 L 210.308594 411.878906 C 210.308594 417.863281 215.160156 422.714844 221.144531 422.714844 L 272.925781 422.714844 C 278.910156 422.714844 283.765625 417.863281 283.765625 411.878906 L 283.765625 356.105469 C 283.765625 350.121094 278.910156 345.265625 272.925781 345.265625 Z M 262.085938 401.023438 L 231.984375 401.023438 L 231.984375 366.925781 L 262.085938 366.925781 Z M 168.066406 233.714844 L 116.289062 233.714844 C 110.304688 233.714844 105.449219 238.570312 105.449219 244.554688 L 105.449219 300.328125 C 105.449219 306.3125 110.304688 311.167969 116.289062 311.167969 L 168.066406 311.167969 C 174.050781 311.167969 178.90625 306.3125 178.90625 300.328125 L 178.90625 244.554688 C 178.90625 238.570312 174.050781 233.714844 168.066406 233.714844 Z M 157.230469 289.492188 L 127.125 289.492188 L 127.125 255.390625 L 157.230469 255.390625 Z M 168.066406 456.796875 L 116.289062 456.796875 C 110.304688 456.796875 105.449219 461.652344 105.449219 467.636719 L 105.449219 523.410156 C 105.449219 529.394531 110.304688 534.25 116.289062 534.25 L 168.066406 534.25 C 174.050781 534.25 178.90625 529.394531 178.90625 523.410156 L 178.90625 467.636719 C 178.90625 461.652344 174.050781 456.796875 168.066406 456.796875 Z M 157.230469 512.574219 L 127.125 512.574219 L 127.125 478.476562 L 157.230469 478.476562 Z M 168.066406 345.265625 L 116.289062 345.265625 C 110.304688 345.265625 105.449219 350.121094 105.449219 356.105469 L 105.449219 411.878906 C 105.449219 417.863281 110.304688 422.714844 116.289062 422.714844 L 168.066406 422.714844 C 174.050781 422.714844 178.90625 417.863281 178.90625 411.878906 L 178.90625 356.105469 C 178.90625 350.121094 174.050781 345.265625 168.066406 345.265625 Z M 157.230469 401.023438 L 127.125 401.023438 L 127.125 366.925781 L 157.230469 366.925781 Z M 272.925781 456.796875 L 221.144531 456.796875 C 215.160156 456.796875 210.308594 461.652344 210.308594 467.636719 L 210.308594 523.410156 C 210.308594 529.394531 215.160156 534.25 221.144531 534.25 L 272.925781 534.25 C 278.910156 534.25 283.765625 529.394531 283.765625 523.410156 L 283.765625 467.636719 C 283.765625 461.652344 278.910156 456.796875 272.925781 456.796875 Z M 262.085938 512.574219 L 231.984375 512.574219 L 231.984375 478.476562 L 262.085938 478.476562 Z M 272.925781 233.714844 L 221.144531 233.714844 C 215.160156 233.714844 210.308594 238.570312 210.308594 244.554688 L 210.308594 300.328125 C 210.308594 306.3125 215.160156 311.167969 221.144531 311.167969 L 272.925781 311.167969 C 278.910156 311.167969 283.765625 306.3125 283.765625 300.328125 L 283.765625 244.554688 C 283.765625 238.570312 278.910156 233.714844 272.925781 233.714844 Z M 262.085938 289.492188 L 231.984375 289.492188 L 231.984375 255.390625 L 262.085938 255.390625 Z M 272.925781 122.183594 L 221.144531 122.183594 C 215.160156 122.183594 210.308594 127.035156 210.308594 133.019531 L 210.308594 188.796875 C 210.308594 194.78125 215.160156 199.632812 221.144531 199.632812 L 272.925781 199.632812 C 278.910156 199.632812 283.765625 194.78125 283.765625 188.796875 L 283.765625 133.019531 C 283.765625 127.035156 278.910156 122.183594 272.925781 122.183594 Z M 262.085938 177.957031 L 231.984375 177.957031 L 231.984375 143.859375 L 262.085938 143.859375 Z M 272.925781 568.332031 L 221.144531 568.332031 C 215.160156 568.332031 210.308594 573.1875 210.308594 579.167969 L 210.308594 634.945312 C 210.308594 640.929688 215.160156 645.78125 221.144531 645.78125 L 272.925781 645.78125 C 278.910156 645.78125 283.765625 640.929688 283.765625 634.945312 L 283.765625 579.167969 C 283.765625 573.1875 278.910156 568.332031 272.925781 568.332031 Z M 262.085938 624.105469 L 231.984375 624.105469 L 231.984375 590.007812 L 262.085938 590.007812 Z M 558.136719 441.664062 L 506.359375 441.664062 C 500.375 441.664062 495.519531 446.515625 495.519531 452.5 L 495.519531 508.273438 C 495.519531 514.257812 500.375 519.113281 506.359375 519.113281 L 558.136719 519.113281 C 564.121094 519.113281 568.976562 514.257812 568.976562 508.273438 L 568.976562 452.5 C 568.976562 446.515625 564.121094 441.664062 558.136719 441.664062 Z M 547.300781 497.4375 L 517.195312 497.4375 L 517.195312 463.339844 L 547.300781 463.339844 Z M 558.136719 330.128906 L 506.359375 330.128906 C 500.375 330.128906 495.519531 334.984375 495.519531 340.96875 L 495.519531 396.742188 C 495.519531 402.726562 500.375 407.582031 506.359375 407.582031 L 558.136719 407.582031 C 564.121094 407.582031 568.976562 402.726562 568.976562 396.742188 L 568.976562 340.96875 C 568.976562 334.984375 564.121094 330.128906 558.136719 330.128906 Z M 547.300781 385.886719 L 517.195312 385.886719 L 517.195312 351.789062 L 547.300781 351.789062 Z M 558.136719 553.195312 L 506.359375 553.195312 C 500.375 553.195312 495.519531 558.050781 495.519531 564.035156 L 495.519531 619.808594 C 495.519531 625.792969 500.375 630.644531 506.359375 630.644531 L 558.136719 630.644531 C 564.121094 630.644531 568.976562 625.792969 568.976562 619.808594 L 568.976562 564.035156 C 568.976562 558.050781 564.121094 553.195312 558.136719 553.195312 Z M 547.300781 608.96875 L 517.195312 608.96875 L 517.195312 574.871094 L 547.300781 574.871094 Z M 453.296875 553.195312 L 401.515625 553.195312 C 395.53125 553.195312 390.679688 558.050781 390.679688 564.035156 L 390.679688 619.808594 C 390.679688 625.792969 395.53125 630.644531 401.515625 630.644531 L 453.296875 630.644531 C 459.28125 630.644531 464.136719 625.792969 464.136719 619.808594 L 464.136719 564.035156 C 464.136719 558.050781 459.28125 553.195312 453.296875 553.195312 Z M 442.457031 608.96875 L 412.355469 608.96875 L 412.355469 574.871094 L 442.457031 574.871094 Z M 453.296875 441.664062 L 401.515625 441.664062 C 395.53125 441.664062 390.679688 446.515625 390.679688 452.5 L 390.679688 508.273438 C 390.679688 514.257812 395.53125 519.113281 401.515625 519.113281 L 453.296875 519.113281 C 459.28125 519.113281 464.136719 514.257812 464.136719 508.273438 L 464.136719 452.5 C 464.136719 446.515625 459.28125 441.664062 453.296875 441.664062 Z M 442.457031 497.4375 L 412.355469 497.4375 L 412.355469 463.339844 L 442.457031 463.339844 Z M 453.296875 330.128906 L 401.515625 330.128906 C 395.53125 330.128906 390.679688 334.984375 390.679688 340.96875 L 390.679688 396.742188 C 390.679688 402.726562 395.53125 407.582031 401.515625 407.582031 L 453.296875 407.582031 C 459.28125 407.582031 464.136719 402.726562 464.136719 396.742188 L 464.136719 340.96875 C 464.136719 334.984375 459.28125 330.128906 453.296875 330.128906 Z M 442.457031 385.886719 L 412.355469 385.886719 L 412.355469 351.789062 L 442.457031 351.789062 Z M 442.457031 385.886719 " fill-opacity="1" fill-rule="nonzero"/></g><g clip-path="url(#dbdd561e31)"><path fill="#39a7ff" d="M 662.902344 687.746094 L 632.679688 687.746094 L 632.679688 261.960938 C 632.679688 255.976562 627.828125 251.121094 621.84375 251.121094 L 347.46875 251.121094 L 347.46875 69.167969 C 347.46875 63.183594 342.613281 58.328125 336.632812 58.328125 L 51.402344 58.328125 C 45.417969 58.328125 40.5625 63.183594 40.5625 69.167969 L 40.5625 687.746094 L 10.359375 687.746094 C 4.375 687.746094 -0.480469 692.601562 -0.480469 698.585938 C -0.480469 704.570312 4.375 709.425781 10.359375 709.425781 L 662.921875 709.425781 C 668.902344 709.425781 673.757812 704.570312 673.757812 698.585938 C 673.742188 692.601562 668.886719 687.746094 662.902344 687.746094 Z M 62.238281 80.003906 L 325.792969 80.003906 L 325.792969 687.765625 L 62.238281 687.765625 Z M 347.46875 687.746094 L 347.46875 272.796875 L 611.023438 272.796875 L 611.023438 687.746094 Z M 167.484375 568.226562 L 115.707031 568.226562 C 109.722656 568.226562 104.867188 573.078125 104.867188 579.0625 L 104.867188 634.839844 C 104.867188 640.820312 109.722656 645.675781 115.707031 645.675781 L 167.484375 645.675781 C 173.46875 645.675781 178.324219 640.820312 178.324219 634.839844 L 178.324219 579.0625 C 178.324219 573.078125 173.46875 568.226562 167.484375 568.226562 Z M 156.648438 624 L 126.542969 624 L 126.542969 589.902344 L 156.648438 589.902344 Z M 167.484375 122.078125 L 115.707031 122.078125 C 109.722656 122.078125 104.867188 126.929688 104.867188 132.914062 L 104.867188 188.691406 C 104.867188 194.671875 109.722656 199.527344 115.707031 199.527344 L 167.484375 199.527344 C 173.46875 199.527344 178.324219 194.671875 178.324219 188.691406 L 178.324219 132.914062 C 178.324219 126.929688 173.46875 122.078125 167.484375 122.078125 Z M 156.648438 177.851562 L 126.542969 177.851562 L 126.542969 143.753906 L 156.648438 143.753906 Z M 272.34375 345.160156 L 220.5625 345.160156 C 214.582031 345.160156 209.726562 350.015625 209.726562 355.996094 L 209.726562 411.773438 C 209.726562 417.757812 214.582031 422.609375 220.5625 422.609375 L 272.34375 422.609375 C 278.328125 422.609375 283.183594 417.757812 283.183594 411.773438 L 283.183594 355.996094 C 283.183594 350.015625 278.328125 345.160156 272.34375 345.160156 Z M 261.507812 400.917969 L 231.402344 400.917969 L 231.402344 366.820312 L 261.507812 366.820312 Z M 167.484375 233.609375 L 115.707031 233.609375 C 109.722656 233.609375 104.867188 238.464844 104.867188 244.449219 L 104.867188 300.222656 C 104.867188 306.207031 109.722656 311.0625 115.707031 311.0625 L 167.484375 311.0625 C 173.46875 311.0625 178.324219 306.207031 178.324219 300.222656 L 178.324219 244.449219 C 178.324219 238.464844 173.46875 233.609375 167.484375 233.609375 Z M 156.648438 289.382812 L 126.542969 289.382812 L 126.542969 255.285156 L 156.648438 255.285156 Z M 167.484375 456.691406 L 115.707031 456.691406 C 109.722656 456.691406 104.867188 461.546875 104.867188 467.53125 L 104.867188 523.304688 C 104.867188 529.289062 109.722656 534.144531 115.707031 534.144531 L 167.484375 534.144531 C 173.46875 534.144531 178.324219 529.289062 178.324219 523.304688 L 178.324219 467.53125 C 178.324219 461.546875 173.46875 456.691406 167.484375 456.691406 Z M 156.648438 512.46875 L 126.542969 512.46875 L 126.542969 478.367188 L 156.648438 478.367188 Z M 167.484375 345.160156 L 115.707031 345.160156 C 109.722656 345.160156 104.867188 350.015625 104.867188 355.996094 L 104.867188 411.773438 C 104.867188 417.757812 109.722656 422.609375 115.707031 422.609375 L 167.484375 422.609375 C 173.46875 422.609375 178.324219 417.757812 178.324219 411.773438 L 178.324219 355.996094 C 178.324219 350.015625 173.46875 345.160156 167.484375 345.160156 Z M 156.648438 400.917969 L 126.542969 400.917969 L 126.542969 366.820312 L 156.648438 366.820312 Z M 272.34375 456.691406 L 220.5625 456.691406 C 214.582031 456.691406 209.726562 461.546875 209.726562 467.53125 L 209.726562 523.304688 C 209.726562 529.289062 214.582031 534.144531 220.5625 534.144531 L 272.34375 534.144531 C 278.328125 534.144531 283.183594 529.289062 283.183594 523.304688 L 283.183594 467.53125 C 283.183594 461.546875 278.328125 456.691406 272.34375 456.691406 Z M 261.507812 512.46875 L 231.402344 512.46875 L 231.402344 478.367188 L 261.507812 478.367188 Z M 272.34375 233.609375 L 220.5625 233.609375 C 214.582031 233.609375 209.726562 238.464844 209.726562 244.449219 L 209.726562 300.222656 C 209.726562 306.207031 214.582031 311.0625 220.5625 311.0625 L 272.34375 311.0625 C 278.328125 311.0625 283.183594 306.207031 283.183594 300.222656 L 283.183594 244.449219 C 283.183594 238.464844 278.328125 233.609375 272.34375 233.609375 Z M 261.507812 289.382812 L 231.402344 289.382812 L 231.402344 255.285156 L 261.507812 255.285156 Z M 272.34375 122.078125 L 220.5625 122.078125 C 214.582031 122.078125 209.726562 126.929688 209.726562 132.914062 L 209.726562 188.691406 C 209.726562 194.671875 214.582031 199.527344 220.5625 199.527344 L 272.34375 199.527344 C 278.328125 199.527344 283.183594 194.671875 283.183594 188.691406 L 283.183594 132.914062 C 283.183594 126.929688 278.328125 122.078125 272.34375 122.078125 Z M 261.507812 177.851562 L 231.402344 177.851562 L 231.402344 143.753906 L 261.507812 143.753906 Z M 272.34375 568.226562 L 220.5625 568.226562 C 214.582031 568.226562 209.726562 573.078125 209.726562 579.0625 L 209.726562 634.839844 C 209.726562 640.820312 214.582031 645.675781 220.5625 645.675781 L 272.34375 645.675781 C 278.328125 645.675781 283.183594 640.820312 283.183594 634.839844 L 283.183594 579.0625 C 283.183594 573.078125 278.328125 568.226562 272.34375 568.226562 Z M 261.507812 624 L 231.402344 624 L 231.402344 589.902344 L 261.507812 589.902344 Z M 557.554688 441.554688 L 505.777344 441.554688 C 499.792969 441.554688 494.9375 446.410156 494.9375 452.394531 L 494.9375 508.167969 C 494.9375 514.152344 499.792969 519.007812 505.777344 519.007812 L 557.554688 519.007812 C 563.539062 519.007812 568.394531 514.152344 568.394531 508.167969 L 568.394531 452.394531 C 568.394531 446.410156 563.539062 441.554688 557.554688 441.554688 Z M 546.71875 497.332031 L 516.613281 497.332031 L 516.613281 463.230469 L 546.71875 463.230469 Z M 557.554688 330.023438 L 505.777344 330.023438 C 499.792969 330.023438 494.9375 334.878906 494.9375 340.859375 L 494.9375 396.636719 C 494.9375 402.621094 499.792969 407.472656 505.777344 407.472656 L 557.554688 407.472656 C 563.539062 407.472656 568.394531 402.621094 568.394531 396.636719 L 568.394531 340.859375 C 568.394531 334.878906 563.539062 330.023438 557.554688 330.023438 Z M 546.71875 385.78125 L 516.613281 385.78125 L 516.613281 351.683594 L 546.71875 351.683594 Z M 557.554688 553.089844 L 505.777344 553.089844 C 499.792969 553.089844 494.9375 557.945312 494.9375 563.925781 L 494.9375 619.703125 C 494.9375 625.6875 499.792969 630.539062 505.777344 630.539062 L 557.554688 630.539062 C 563.539062 630.539062 568.394531 625.6875 568.394531 619.703125 L 568.394531 563.925781 C 568.394531 557.945312 563.539062 553.089844 557.554688 553.089844 Z M 546.71875 608.863281 L 516.613281 608.863281 L 516.613281 574.765625 L 546.71875 574.765625 Z M 452.714844 553.089844 L 400.933594 553.089844 C 394.953125 553.089844 390.097656 557.945312 390.097656 563.925781 L 390.097656 619.703125 C 390.097656 625.6875 394.953125 630.539062 400.933594 630.539062 L 452.714844 630.539062 C 458.699219 630.539062 463.554688 625.6875 463.554688 619.703125 L 463.554688 563.925781 C 463.554688 557.945312 458.699219 553.089844 452.714844 553.089844 Z M 441.878906 608.863281 L 411.773438 608.863281 L 411.773438 574.765625 L 441.878906 574.765625 Z M 452.714844 441.554688 L 400.933594 441.554688 C 394.953125 441.554688 390.097656 446.410156 390.097656 452.394531 L 390.097656 508.167969 C 390.097656 514.152344 394.953125 519.007812 400.933594 519.007812 L 452.714844 519.007812 C 458.699219 519.007812 463.554688 514.152344 463.554688 508.167969 L 463.554688 452.394531 C 463.554688 446.410156 458.699219 441.554688 452.714844 441.554688 Z M 441.878906 497.332031 L 411.773438 497.332031 L 411.773438 463.230469 L 441.878906 463.230469 Z M 452.714844 330.023438 L 400.933594 330.023438 C 394.953125 330.023438 390.097656 334.878906 390.097656 340.859375 L 390.097656 396.636719 C 390.097656 402.621094 394.953125 407.472656 400.933594 407.472656 L 452.714844 407.472656 C 458.699219 407.472656 463.554688 402.621094 463.554688 396.636719 L 463.554688 340.859375 C 463.554688 334.878906 458.699219 330.023438 452.714844 330.023438 Z M 441.878906 385.78125 L 411.773438 385.78125 L 411.773438 351.683594 L 441.878906 351.683594 Z M 441.878906 385.78125 " fill-opacity="1" fill-rule="nonzero"/></g><g clip-path="url(#2eeaeeef41)"><path fill="#39a7ff" d="M 663.21875 687.847656 L 632.996094 687.847656 L 632.996094 262.058594 C 632.996094 256.078125 628.144531 251.222656 622.160156 251.222656 L 347.785156 251.222656 L 347.785156 69.265625 C 347.785156 63.28125 342.929688 58.429688 336.945312 58.429688 L 51.71875 58.429688 C 45.734375 58.429688 40.878906 63.28125 40.878906 69.265625 L 40.878906 687.847656 L 10.675781 687.847656 C 4.691406 687.847656 -0.164062 692.703125 -0.164062 698.6875 C -0.164062 704.667969 4.691406 709.523438 10.675781 709.523438 L 663.238281 709.523438 C 669.21875 709.523438 674.074219 704.667969 674.074219 698.6875 C 674.058594 692.703125 669.203125 687.847656 663.21875 687.847656 Z M 62.554688 80.105469 L 326.109375 80.105469 L 326.109375 687.863281 L 62.554688 687.863281 Z M 347.785156 687.847656 L 347.785156 272.898438 L 611.339844 272.898438 L 611.339844 687.847656 Z M 167.800781 568.324219 L 116.023438 568.324219 C 110.039062 568.324219 105.183594 573.179688 105.183594 579.164062 L 105.183594 634.9375 C 105.183594 640.921875 110.039062 645.777344 116.023438 645.777344 L 167.800781 645.777344 C 173.785156 645.777344 178.640625 640.921875 178.640625 634.9375 L 178.640625 579.164062 C 178.640625 573.179688 173.785156 568.324219 167.800781 568.324219 Z M 156.964844 624.101562 L 126.859375 624.101562 L 126.859375 590 L 156.964844 590 Z M 167.800781 122.175781 L 116.023438 122.175781 C 110.039062 122.175781 105.183594 127.03125 105.183594 133.015625 L 105.183594 188.789062 C 105.183594 194.773438 110.039062 199.628906 116.023438 199.628906 L 167.800781 199.628906 C 173.785156 199.628906 178.640625 194.773438 178.640625 188.789062 L 178.640625 133.015625 C 178.640625 127.03125 173.785156 122.175781 167.800781 122.175781 Z M 156.964844 177.949219 L 126.859375 177.949219 L 126.859375 143.851562 L 156.964844 143.851562 Z M 272.660156 345.257812 L 220.878906 345.257812 C 214.894531 345.257812 210.042969 350.113281 210.042969 356.097656 L 210.042969 411.871094 C 210.042969 417.855469 214.894531 422.710938 220.878906 422.710938 L 272.660156 422.710938 C 278.644531 422.710938 283.5 417.855469 283.5 411.871094 L 283.5 356.097656 C 283.5 350.113281 278.644531 345.257812 272.660156 345.257812 Z M 261.820312 401.015625 L 231.71875 401.015625 L 231.71875 366.917969 L 261.820312 366.917969 Z M 167.800781 233.710938 L 116.023438 233.710938 C 110.039062 233.710938 105.183594 238.5625 105.183594 244.546875 L 105.183594 300.320312 C 105.183594 306.304688 110.039062 311.160156 116.023438 311.160156 L 167.800781 311.160156 C 173.785156 311.160156 178.640625 306.304688 178.640625 300.320312 L 178.640625 244.546875 C 178.640625 238.5625 173.785156 233.710938 167.800781 233.710938 Z M 156.964844 289.484375 L 126.859375 289.484375 L 126.859375 255.386719 L 156.964844 255.386719 Z M 167.800781 456.792969 L 116.023438 456.792969 C 110.039062 456.792969 105.183594 461.644531 105.183594 467.628906 L 105.183594 523.40625 C 105.183594 529.390625 110.039062 534.242188 116.023438 534.242188 L 167.800781 534.242188 C 173.785156 534.242188 178.640625 529.390625 178.640625 523.40625 L 178.640625 467.628906 C 178.640625 461.644531 173.785156 456.792969 167.800781 456.792969 Z M 156.964844 512.566406 L 126.859375 512.566406 L 126.859375 478.46875 L 156.964844 478.46875 Z M 167.800781 345.257812 L 116.023438 345.257812 C 110.039062 345.257812 105.183594 350.113281 105.183594 356.097656 L 105.183594 411.871094 C 105.183594 417.855469 110.039062 422.710938 116.023438 422.710938 L 167.800781 422.710938 C 173.785156 422.710938 178.640625 417.855469 178.640625 411.871094 L 178.640625 356.097656 C 178.640625 350.113281 173.785156 345.257812 167.800781 345.257812 Z M 156.964844 401.015625 L 126.859375 401.015625 L 126.859375 366.917969 L 156.964844 366.917969 Z M 272.660156 456.792969 L 220.878906 456.792969 C 214.894531 456.792969 210.042969 461.644531 210.042969 467.628906 L 210.042969 523.40625 C 210.042969 529.390625 214.894531 534.242188 220.878906 534.242188 L 272.660156 534.242188 C 278.644531 534.242188 283.5 529.390625 283.5 523.40625 L 283.5 467.628906 C 283.5 461.644531 278.644531 456.792969 272.660156 456.792969 Z M 261.820312 512.566406 L 231.71875 512.566406 L 231.71875 478.46875 L 261.820312 478.46875 Z M 272.660156 233.710938 L 220.878906 233.710938 C 214.894531 233.710938 210.042969 238.5625 210.042969 244.546875 L 210.042969 300.320312 C 210.042969 306.304688 214.894531 311.160156 220.878906 311.160156 L 272.660156 311.160156 C 278.644531 311.160156 283.5 306.304688 283.5 300.320312 L 283.5 244.546875 C 283.5 238.5625 278.644531 233.710938 272.660156 233.710938 Z M 261.820312 289.484375 L 231.71875 289.484375 L 231.71875 255.386719 L 261.820312 255.386719 Z M 272.660156 122.175781 L 220.878906 122.175781 C 214.894531 122.175781 210.042969 127.03125 210.042969 133.015625 L 210.042969 188.789062 C 210.042969 194.773438 214.894531 199.628906 220.878906 199.628906 L 272.660156 199.628906 C 278.644531 199.628906 283.5 194.773438 283.5 188.789062 L 283.5 133.015625 C 283.5 127.03125 278.644531 122.175781 272.660156 122.175781 Z M 261.820312 177.949219 L 231.71875 177.949219 L 231.71875 143.851562 L 261.820312 143.851562 Z M 272.660156 568.324219 L 220.878906 568.324219 C 214.894531 568.324219 210.042969 573.179688 210.042969 579.164062 L 210.042969 634.9375 C 210.042969 640.921875 214.894531 645.777344 220.878906 645.777344 L 272.660156 645.777344 C 278.644531 645.777344 283.5 640.921875 283.5 634.9375 L 283.5 579.164062 C 283.5 573.179688 278.644531 568.324219 272.660156 568.324219 Z M 261.820312 624.101562 L 231.71875 624.101562 L 231.71875 590 L 261.820312 590 Z M 557.871094 441.65625 L 506.09375 441.65625 C 500.109375 441.65625 495.253906 446.511719 495.253906 452.492188 L 495.253906 508.269531 C 495.253906 514.253906 500.109375 519.105469 506.09375 519.105469 L 557.871094 519.105469 C 563.855469 519.105469 568.710938 514.253906 568.710938 508.269531 L 568.710938 452.492188 C 568.710938 446.511719 563.855469 441.65625 557.871094 441.65625 Z M 547.035156 497.429688 L 516.929688 497.429688 L 516.929688 463.332031 L 547.035156 463.332031 Z M 557.871094 330.121094 L 506.09375 330.121094 C 500.109375 330.121094 495.253906 334.976562 495.253906 340.960938 L 495.253906 396.734375 C 495.253906 402.71875 500.109375 407.574219 506.09375 407.574219 L 557.871094 407.574219 C 563.855469 407.574219 568.710938 402.71875 568.710938 396.734375 L 568.710938 340.960938 C 568.710938 334.976562 563.855469 330.121094 557.871094 330.121094 Z M 547.035156 385.878906 L 516.929688 385.878906 L 516.929688 351.78125 L 547.035156 351.78125 Z M 557.871094 553.1875 L 506.09375 553.1875 C 500.109375 553.1875 495.253906 558.042969 495.253906 564.027344 L 495.253906 619.800781 C 495.253906 625.785156 500.109375 630.640625 506.09375 630.640625 L 557.871094 630.640625 C 563.855469 630.640625 568.710938 625.785156 568.710938 619.800781 L 568.710938 564.027344 C 568.710938 558.042969 563.855469 553.1875 557.871094 553.1875 Z M 547.035156 608.964844 L 516.929688 608.964844 L 516.929688 574.863281 L 547.035156 574.863281 Z M 453.03125 553.1875 L 401.25 553.1875 C 395.265625 553.1875 390.414062 558.042969 390.414062 564.027344 L 390.414062 619.800781 C 390.414062 625.785156 395.265625 630.640625 401.25 630.640625 L 453.03125 630.640625 C 459.015625 630.640625 463.871094 625.785156 463.871094 619.800781 L 463.871094 564.027344 C 463.871094 558.042969 459.015625 553.1875 453.03125 553.1875 Z M 442.191406 608.964844 L 412.089844 608.964844 L 412.089844 574.863281 L 442.191406 574.863281 Z M 453.03125 441.65625 L 401.25 441.65625 C 395.265625 441.65625 390.414062 446.511719 390.414062 452.492188 L 390.414062 508.269531 C 390.414062 514.253906 395.265625 519.105469 401.25 519.105469 L 453.03125 519.105469 C 459.015625 519.105469 463.871094 514.253906 463.871094 508.269531 L 463.871094 452.492188 C 463.871094 446.511719 459.015625 441.65625 453.03125 441.65625 Z M 442.191406 497.429688 L 412.089844 497.429688 L 412.089844 463.332031 L 442.191406 463.332031 Z M 453.03125 330.121094 L 401.25 330.121094 C 395.265625 330.121094 390.414062 334.976562 390.414062 340.960938 L 390.414062 396.734375 C 390.414062 402.71875 395.265625 407.574219 401.25 407.574219 L 453.03125 407.574219 C 459.015625 407.574219 463.871094 402.71875 463.871094 396.734375 L 463.871094 340.960938 C 463.871094 334.976562 459.015625 330.121094 453.03125 330.121094 Z M 442.191406 385.878906 L 412.089844 385.878906 L 412.089844 351.78125 L 442.191406 351.78125 Z M 442.191406 385.878906 " fill-opacity="1" fill-rule="nonzero"/></g><g clip-path="url(#498344e34e)"><path fill="#39a7ff" d="M 767.953125 130.535156 C 767.953125 130.535156 764.339844 315.316406 593.328125 410.632812 C 422.253906 315.316406 418.722656 130.535156 418.722656 130.535156 L 489.171875 58.777344 L 697.515625 58.777344 Z M 767.953125 130.535156 " fill-opacity="1" fill-rule="nonzero"/></g><g clip-path="url(#417e80cd18)"><path fill="#e0f4ff" d="M 758.867188 133.929688 C 758.867188 133.929688 755.441406 309.101562 593.324219 399.460938 C 431.148438 309.101562 427.796875 133.929688 427.796875 133.929688 L 494.585938 65.902344 L 692.09375 65.902344 Z M 758.867188 133.929688 " fill-opacity="1" fill-rule="nonzero"/></g><g clip-path="url(#566e818c59)"><path fill="#39a7ff" d="M 753.429688 137.167969 C 753.429688 137.167969 750.121094 306.589844 593.328125 393.976562 C 436.476562 306.589844 433.238281 137.167969 433.238281 137.167969 L 497.832031 71.378906 L 688.851562 71.378906 Z M 753.429688 137.167969 " fill-opacity="1" fill-rule="nonzero"/></g><g clip-path="url(#9d7b1d6db1)"><path fill="#e0f4ff" d="M 745.117188 140.277344 C 745.117188 140.277344 741.976562 300.894531 593.332031 383.742188 C 444.632812 300.894531 441.558594 140.277344 441.558594 140.277344 L 502.796875 77.90625 L 683.890625 77.90625 Z M 745.117188 140.277344 " fill-opacity="1" fill-rule="nonzero"/></g><g clip-path="url(#28eacf5051)"><path fill="#39a7ff" d="M 571.417969 240.410156 L 646.976562 164.785156 C 647.367188 164.410156 647.789062 164.074219 648.246094 163.777344 C 648.703125 163.484375 649.183594 163.234375 649.683594 163.03125 C 650.1875 162.828125 650.707031 162.675781 651.238281 162.570312 C 651.769531 162.464844 652.308594 162.414062 652.851562 162.410156 C 653.394531 162.410156 653.933594 162.460938 654.464844 162.5625 C 655 162.660156 655.515625 162.8125 656.023438 163.011719 C 656.527344 163.214844 657.007812 163.460938 657.464844 163.75 C 657.921875 164.042969 658.347656 164.375 658.742188 164.75 C 659.128906 165.136719 659.472656 165.554688 659.777344 166.007812 C 660.082031 166.460938 660.339844 166.941406 660.546875 167.445312 C 660.757812 167.949219 660.917969 168.46875 661.027344 169.003906 C 661.132812 169.539062 661.1875 170.082031 661.191406 170.628906 C 661.191406 171.171875 661.140625 171.714844 661.035156 172.25 C 660.929688 172.785156 660.773438 173.308594 660.566406 173.8125 C 660.359375 174.316406 660.105469 174.796875 659.804688 175.253906 C 659.503906 175.710938 659.160156 176.132812 658.777344 176.519531 L 576.351562 259.023438 C 575.574219 259.808594 574.675781 260.414062 573.65625 260.839844 C 572.636719 261.261719 571.574219 261.476562 570.472656 261.476562 L 570.445312 261.476562 C 569.347656 261.476562 568.289062 261.269531 567.273438 260.851562 C 566.257812 260.433594 565.363281 259.835938 564.585938 259.058594 C 564.25 258.722656 563.941406 258.359375 563.667969 257.96875 L 529.722656 217.628906 C 529.398438 217.183594 529.121094 216.714844 528.890625 216.214844 C 528.65625 215.71875 528.476562 215.203125 528.347656 214.667969 C 528.21875 214.132812 528.140625 213.59375 528.121094 213.042969 C 528.097656 212.496094 528.128906 211.949219 528.214844 211.40625 C 528.300781 210.863281 528.4375 210.335938 528.628906 209.820312 C 528.820312 209.304688 529.058594 208.8125 529.347656 208.34375 C 529.632812 207.878906 529.964844 207.441406 530.339844 207.039062 C 530.714844 206.636719 531.125 206.277344 531.570312 205.953125 C 532.015625 205.632812 532.488281 205.359375 532.988281 205.132812 C 533.488281 204.902344 534.003906 204.726562 534.539062 204.601562 C 535.074219 204.476562 535.617188 204.40625 536.164062 204.386719 C 536.714844 204.371094 537.261719 204.40625 537.800781 204.496094 C 538.34375 204.585938 538.871094 204.726562 539.386719 204.921875 C 539.898438 205.117188 540.390625 205.359375 540.855469 205.652344 C 541.320312 205.945312 541.753906 206.277344 542.152344 206.65625 C 542.550781 207.035156 542.910156 207.445312 543.226562 207.894531 Z M 730.648438 234.175781 C 730.851562 258.960938 716.449219 288.203125 690.089844 316.507812 C 678.734375 328.679688 666.292969 339.613281 652.773438 349.320312 L 652.191406 349.699219 C 651.953125 349.832031 651.726562 349.988281 651.519531 350.167969 L 650.96875 350.609375 C 634.859375 362.234375 617.4375 371.34375 598.699219 377.941406 L 596.328125 378.726562 L 593.941406 377.976562 C 588.238281 376.160156 582.644531 374.042969 577.164062 371.632812 C 576.824219 371.457031 576.476562 371.304688 576.117188 371.171875 L 575.652344 370.976562 C 561.773438 364.519531 548.605469 356.847656 536.152344 347.953125 C 523.695312 339.0625 512.160156 329.101562 501.546875 318.074219 C 490.320312 306.640625 480.722656 293.972656 472.753906 280.070312 L 472.464844 279.488281 C 472.339844 279.226562 472.191406 278.980469 472.023438 278.746094 L 471.699219 278.210938 C 468.027344 271.835938 465.167969 265.117188 463.125 258.054688 C 461.082031 250.988281 459.914062 243.78125 459.621094 236.429688 L 458.648438 117.207031 L 459.230469 116.890625 L 593.546875 44.46875 L 594.0625 44.738281 L 729.65625 115.003906 Z M 714.335938 124.40625 L 593.703125 61.921875 L 474.152344 126.378906 L 475.058594 236.308594 C 475.34375 242.351562 476.339844 248.277344 478.046875 254.082031 C 479.753906 259.886719 482.125 265.40625 485.160156 270.644531 C 485.617188 271.351562 486.027344 272.085938 486.386719 272.847656 C 493.679688 285.472656 502.4375 296.984375 512.65625 307.382812 C 522.550781 317.671875 533.304688 326.964844 544.914062 335.269531 C 556.523438 343.574219 568.792969 350.75 581.726562 356.792969 C 582.417969 357.050781 583.09375 357.34375 583.75 357.675781 C 587.867188 359.4375 592.183594 361.117188 596.1875 362.46875 C 612.472656 356.414062 627.671875 348.320312 641.78125 338.183594 C 642.5 337.585938 643.257812 337.050781 644.058594 336.566406 C 656.632812 327.507812 668.210938 317.316406 678.785156 305.988281 C 702.445312 280.578125 715.378906 255.113281 715.210938 234.289062 Z M 714.335938 124.40625 " fill-opacity="1" fill-rule="nonzero"/></g></svg>