<svg xmlns="http://www.w3.org/2000/svg" xmlns:xlink="http://www.w3.org/1999/xlink" width="1024" zoomAndPan="magnify" viewBox="0 0 768 767.999994" height="1024" preserveAspectRatio="xMidYMid meet" version="1.0"><defs><clipPath id="51d7893977"><path d="M 0 12.160156 L 768 12.160156 L 768 756 L 0 756 Z M 0 12.160156 " clip-rule="nonzero"/></clipPath><clipPath id="fa9f63f808"><path d="M 482.546875 223 L 757.796875 223 L 757.796875 270.429688 L 482.546875 270.429688 Z M 482.546875 223 " clip-rule="nonzero"/></clipPath><clipPath id="a2c0ab7491"><path d="M 537.875 280.410156 L 732 280.410156 L 732 607.410156 L 537.875 607.410156 Z M 537.875 280.410156 " clip-rule="nonzero"/></clipPath><clipPath id="bc079a038d"><path d="M 537.875 280.410156 L 732.125 280.410156 L 732.125 607.410156 L 537.875 607.410156 Z M 537.875 280.410156 " clip-rule="nonzero"/></clipPath><clipPath id="4c8cbbc569"><path d="M 482.546875 253.195312 L 533.546875 253.195312 L 533.546875 613.945312 L 482.546875 613.945312 Z M 482.546875 253.195312 " clip-rule="nonzero"/></clipPath><clipPath id="91f69f966d"><path d="M 48 612.222656 L 453.363281 612.222656 L 453.363281 671 L 48 671 Z M 48 612.222656 " clip-rule="nonzero"/></clipPath><clipPath id="8f4af30ea1"><path d="M 444.742188 608 L 488 608 L 488 626 L 444.742188 626 Z M 444.742188 608 " clip-rule="nonzero"/></clipPath><clipPath id="906fc19351"><path d="M 488 610.214844 C 454.820312 623.746094 447.589844 626.527344 445.550781 625.601562 C 444.996094 625.230469 444.808594 623.933594 444.808594 623.933594 C 444.808594 623.933594 445.738281 625.601562 445.738281 625.601562 C 445.738281 625.601562 444.808594 624.304688 445.179688 623.5625 C 446.476562 621.335938 461.679688 619.484375 468.90625 616.890625 C 475.582031 614.480469 485.21875 607.804688 487.257812 608.546875 C 487.8125 608.734375 488 610.214844 488 610.214844 " clip-rule="nonzero"/></clipPath><clipPath id="cb4135a97f"><path d="M 445.640625 621 L 468.375 621 L 468.375 637.558594 L 445.640625 637.558594 Z M 445.640625 621 " clip-rule="nonzero"/></clipPath><clipPath id="29afcec7d2"><path d="M 448.515625 628.753906 C 464.644531 620.96875 465.570312 621.335938 466.3125 622.078125 C 467.238281 622.820312 468.351562 624.675781 468.351562 625.972656 C 468.164062 627.453125 466.125 630.050781 464.644531 630.421875 C 463.347656 630.789062 461.308594 630.421875 460.378906 629.308594 C 459.453125 628.195312 458.710938 625.042969 459.269531 623.746094 C 460.011719 622.449219 462.976562 621.152344 464.457031 621.152344 C 465.757812 621.335938 467.425781 622.820312 467.796875 623.933594 C 468.351562 625.414062 467.796875 627.824219 466.496094 629.492188 C 464.273438 632.460938 456.488281 636.722656 452.78125 637.09375 C 450.371094 637.464844 447.777344 636.722656 446.664062 635.609375 C 445.921875 634.867188 445.738281 633.386719 445.921875 632.460938 C 446.109375 631.160156 448.515625 628.753906 448.515625 628.753906 " clip-rule="nonzero"/></clipPath><clipPath id="3e3e3f0cbd"><path d="M 449 619.644531 L 465.425781 619.644531 L 465.425781 628 L 449 628 Z M 449 619.644531 " clip-rule="nonzero"/></clipPath><clipPath id="ec7da5537e"><path d="M 452.410156 620.410156 C 464.644531 620.96875 465.199219 622.449219 465.199219 623.375 C 465.015625 624.675781 463.53125 626.714844 462.417969 627.082031 C 461.492188 627.453125 459.824219 626.898438 459.082031 626.34375 C 458.339844 625.601562 457.601562 624.117188 457.785156 623.191406 C 457.785156 622.078125 458.710938 620.597656 459.640625 620.226562 C 460.75 619.667969 463.160156 620.039062 464.089844 620.96875 C 464.828125 621.523438 465.386719 623.191406 465.015625 624.304688 C 464.644531 625.414062 463.347656 626.527344 461.679688 627.269531 C 459.082031 628.011719 452.410156 628.382812 450.554688 626.898438 C 449.257812 626.15625 448.886719 624.117188 449.257812 623.007812 C 449.445312 621.894531 452.410156 620.410156 452.410156 620.410156 " clip-rule="nonzero"/></clipPath><clipPath id="a5b81954be"><path d="M 449.234375 617.566406 L 463.414062 617.566406 L 463.414062 646.921875 L 449.234375 646.921875 Z M 449.234375 617.566406 " clip-rule="nonzero"/></clipPath><clipPath id="e9207712a0"><path d="M 463.347656 622.078125 C 460.011719 639.6875 458.339844 643.953125 456.300781 645.433594 C 455.003906 646.363281 452.964844 646.734375 451.855469 646.363281 C 450.925781 645.804688 449.816406 643.394531 450 642.285156 C 450.1875 641.171875 451.296875 639.875 452.226562 639.503906 C 453.152344 639.132812 454.820312 639.132812 455.5625 639.875 C 456.488281 640.800781 457.230469 644.136719 456.671875 645.25 C 455.933594 646.175781 453.335938 646.917969 452.226562 646.363281 C 451.113281 645.992188 450.1875 644.507812 450 642.65625 C 449.257812 638.207031 453.894531 622.636719 456.671875 619.484375 C 457.972656 618.1875 459.640625 617.628906 460.75 618 C 461.863281 618.371094 463.347656 622.078125 463.347656 622.078125 " clip-rule="nonzero"/></clipPath><clipPath id="cc779b2914"><path d="M 454 617.613281 L 479 617.613281 L 479 644 L 454 644 Z M 454 617.613281 " clip-rule="nonzero"/></clipPath><clipPath id="be571094a4"><path d="M 469.277344 628.382812 C 459.082031 643.953125 456.300781 643.953125 455.375 642.839844 C 454.078125 641.171875 455.191406 635.609375 456.488281 632.832031 C 457.601562 630.050781 459.640625 628.011719 461.863281 625.972656 C 464.457031 623.5625 469.09375 618.929688 471.316406 619.296875 C 472.613281 619.667969 474.46875 623.191406 473.914062 624.488281 C 473.726562 625.601562 470.574219 627.085938 469.648438 626.527344 C 468.722656 626.15625 468.90625 622.265625 468.351562 622.265625 C 467.796875 622.078125 467.238281 624.675781 466.3125 625.046875 C 465.386719 625.601562 463.71875 625.785156 462.976562 625.046875 C 461.863281 624.304688 460.9375 620.96875 461.492188 619.855469 C 462.050781 618.929688 464.457031 618 465.570312 618.1875 C 466.683594 618.371094 467.796875 619.667969 468.164062 620.597656 C 468.535156 621.707031 468.164062 623.191406 467.609375 624.117188 C 467.054688 624.859375 465.386719 625.785156 464.457031 625.601562 C 463.160156 625.230469 460.566406 622.449219 460.9375 621.335938 C 461.492188 619.667969 470.019531 618.1875 472.984375 618 C 474.652344 617.816406 475.949219 617.628906 477.0625 618.371094 C 477.988281 619.296875 479.289062 621.335938 478.917969 622.820312 C 478.175781 625.785156 469.277344 628.9375 466.125 632.644531 C 463.53125 635.796875 463.160156 641.726562 460.75 643.023438 C 459.269531 643.953125 456.300781 643.582031 455.375 642.839844 C 454.449219 642.097656 454.449219 640.800781 454.632812 639.316406 C 455.191406 635.980469 460.566406 625.230469 463.71875 623.375 C 465.386719 622.449219 467.796875 622.636719 468.722656 623.375 C 469.648438 624.304688 469.277344 628.382812 469.277344 628.382812 " clip-rule="nonzero"/></clipPath><clipPath id="5b7852f496"><path d="M 468 611.140625 L 484.5625 611.140625 L 484.5625 624 L 468 624 Z M 468 611.140625 " clip-rule="nonzero"/></clipPath><clipPath id="549e9112cd"><path d="M 482.808594 617.816406 C 469.835938 623.746094 468.722656 622.820312 468.351562 621.894531 C 467.980469 620.78125 468.351562 618.1875 469.277344 617.445312 C 470.390625 616.703125 473.914062 617.074219 474.652344 618 C 475.394531 618.929688 474.839844 622.449219 473.726562 623.375 C 472.800781 624.117188 470.203125 623.933594 469.277344 623.007812 C 468.351562 622.265625 467.609375 620.039062 468.351562 618.742188 C 469.464844 616.148438 477.988281 611.144531 480.769531 611.328125 C 482.253906 611.328125 483.738281 612.8125 484.105469 613.921875 C 484.476562 615.035156 482.808594 617.816406 482.808594 617.816406 " clip-rule="nonzero"/></clipPath><clipPath id="7d94b480a7"><path d="M 468 609 L 490.804688 609 L 490.804688 624.867188 L 468 624.867188 Z M 468 609 " clip-rule="nonzero"/></clipPath><clipPath id="85e7561bb6"><path d="M 488.925781 615.960938 C 470.019531 624.675781 469.09375 623.746094 468.535156 622.820312 C 468.164062 621.894531 467.980469 620.226562 468.535156 619.296875 C 469.277344 618.371094 471.503906 617.257812 472.613281 617.445312 C 473.726562 617.628906 474.839844 618.742188 475.394531 619.667969 C 475.765625 620.597656 475.582031 622.265625 475.023438 623.191406 C 474.46875 623.933594 472.984375 624.859375 471.875 624.859375 C 470.945312 624.859375 469.464844 624.117188 468.90625 623.191406 C 468.164062 622.265625 467.980469 620.96875 468.351562 619.667969 C 469.277344 617.816406 472.984375 615.589844 475.949219 613.921875 C 479.289062 612.070312 485.035156 608.546875 487.628906 609.105469 C 489.113281 609.289062 490.410156 610.957031 490.59375 612.070312 C 490.78125 613.183594 488.925781 615.960938 488.925781 615.960938 " clip-rule="nonzero"/></clipPath><clipPath id="780d6cfc3f"><path d="M 446 641 L 460.566406 641 L 460.566406 658.816406 L 446 658.816406 Z M 446 641 " clip-rule="nonzero"/></clipPath><clipPath id="b2e036e094"><path d="M 458.710938 647.472656 C 450.371094 658.78125 448.332031 658.410156 447.40625 657.667969 C 446.476562 656.742188 446.109375 654.148438 446.847656 653.21875 C 447.40625 652.109375 450.742188 651.367188 452.039062 651.921875 C 452.964844 652.292969 453.707031 653.777344 453.707031 654.886719 C 453.707031 655.816406 453.152344 657.484375 452.226562 658.039062 C 451.113281 658.59375 447.777344 658.226562 446.847656 656.925781 C 445.738281 655.074219 447.777344 648.214844 449.445312 645.621094 C 450.742188 643.582031 452.78125 641.726562 454.632812 641.355469 C 456.300781 640.984375 459.453125 641.726562 460.011719 642.652344 C 460.566406 643.765625 458.710938 647.472656 458.710938 647.472656 " clip-rule="nonzero"/></clipPath><clipPath id="e625d9e690"><path d="M 445.054688 630.523438 L 467.503906 630.523438 L 467.503906 668 L 445.054688 668 Z M 445.054688 630.523438 " clip-rule="nonzero"/></clipPath><clipPath id="48734b25dd"><path d="M 466.125 637.277344 C 456.117188 650.253906 455.191406 664.339844 452.039062 666.9375 C 450.554688 668.050781 448.148438 668.050781 447.035156 667.308594 C 446.109375 666.566406 445.367188 663.601562 445.921875 662.671875 C 446.664062 661.5625 450 660.632812 451.113281 661.191406 C 452.039062 661.5625 452.964844 663.042969 452.964844 664.15625 C 452.964844 665.082031 452.410156 666.75 451.484375 667.308594 C 450.554688 667.863281 447.960938 667.863281 447.035156 667.308594 C 446.109375 666.75 445.550781 665.269531 445.550781 664.15625 C 445.550781 663.042969 446.476562 661.746094 447.40625 661.191406 C 448.148438 660.632812 449.816406 660.632812 450.742188 661.003906 C 451.667969 661.375 452.78125 662.671875 452.964844 663.785156 C 453.152344 664.898438 452.226562 666.75 451.296875 667.492188 C 450.371094 668.050781 448.148438 668.050781 447.035156 667.308594 C 446.292969 666.75 445.738281 665.824219 445.550781 664.339844 C 445.179688 660.265625 448.886719 648.214844 452.039062 642.285156 C 454.632812 637.648438 459.082031 632.089844 462.050781 631.160156 C 463.71875 630.605469 466.125 631.347656 466.867188 632.460938 C 467.425781 633.386719 466.125 637.277344 466.125 637.277344 " clip-rule="nonzero"/></clipPath><clipPath id="d607b0dc54"><path d="M 460.132812 626.089844 L 472 626.089844 L 472 636.414062 L 460.132812 636.414062 Z M 460.132812 626.089844 " clip-rule="nonzero"/></clipPath><clipPath id="8c03267c0b"><path d="M 470.203125 632.832031 C 461.121094 635.238281 460.195312 633.015625 460.378906 631.71875 C 460.75 630.605469 462.605469 628.9375 463.902344 628.753906 C 464.828125 628.753906 466.3125 629.492188 467.054688 630.234375 C 467.609375 630.976562 467.980469 632.644531 467.609375 633.757812 C 467.238281 634.683594 466.125 635.796875 465.199219 636.167969 C 463.902344 636.351562 461.492188 635.425781 460.9375 634.5 C 460.378906 633.386719 460.566406 631.347656 461.308594 630.050781 C 462.234375 628.566406 464.828125 626.898438 466.496094 626.527344 C 468.164062 626.15625 470.761719 626.527344 471.316406 627.453125 C 472.058594 628.566406 470.203125 632.832031 470.203125 632.832031 " clip-rule="nonzero"/></clipPath><clipPath id="45479033bb"><path d="M 450.523438 618 L 459 618 L 459 625.832031 L 450.523438 625.832031 Z M 450.523438 618 " clip-rule="nonzero"/></clipPath><clipPath id="2e659f34bd"><path d="M 453.707031 618.1875 C 459.082031 621.523438 458.527344 623.191406 457.972656 624.117188 C 457.230469 624.859375 455.746094 625.414062 454.632812 625.414062 C 453.707031 625.414062 452.226562 624.488281 451.855469 623.5625 C 451.296875 622.636719 451.296875 620.96875 451.667969 620.039062 C 452.226562 619.113281 453.523438 618.1875 454.449219 618 C 455.5625 618 457.042969 618.558594 457.785156 619.296875 C 458.527344 620.039062 458.898438 621.523438 458.527344 622.636719 C 458.339844 623.746094 456.671875 625.414062 455.375 625.601562 C 454.078125 625.785156 451.484375 624.488281 450.925781 623.375 C 450.554688 622.265625 452.59375 618.742188 452.59375 618.742188 " clip-rule="nonzero"/></clipPath><clipPath id="82aef121a2"><path d="M 448.472656 615 L 457 615 L 457 622.875 L 448.472656 622.875 Z M 448.472656 615 " clip-rule="nonzero"/></clipPath><clipPath id="d4f2305727"><path d="M 452.964844 615.21875 C 457.042969 620.039062 455.933594 621.523438 455.191406 621.894531 C 454.265625 622.449219 452.59375 622.636719 451.667969 622.265625 C 450.742188 621.894531 449.628906 620.597656 449.445312 619.484375 C 449.257812 618.558594 449.816406 616.890625 450.554688 616.148438 C 451.296875 615.589844 452.78125 615.035156 453.894531 615.21875 C 454.820312 615.40625 456.117188 616.519531 456.488281 617.445312 C 456.859375 618.371094 456.859375 620.039062 456.300781 620.78125 C 455.5625 621.894531 453.523438 622.820312 452.410156 622.636719 C 450.925781 622.449219 448.703125 620.410156 448.703125 619.296875 C 448.515625 618 451.667969 615.21875 451.667969 615.21875 " clip-rule="nonzero"/></clipPath><clipPath id="cabce48c10"><path d="M 450.300781 613.132812 L 457.8125 613.132812 L 457.8125 620 L 450.300781 620 Z M 450.300781 613.132812 " clip-rule="nonzero"/></clipPath><clipPath id="f834573a3b"><path d="M 457.785156 615.777344 C 454.632812 620.78125 451.667969 619.855469 451.113281 618.929688 C 450.371094 617.816406 450.925781 614.851562 452.039062 614.109375 C 452.964844 613.183594 456.859375 614.292969 456.859375 614.292969 " clip-rule="nonzero"/></clipPath><clipPath id="002be95bda"><path d="M 454.050781 614 L 461.695312 614 L 461.695312 621.550781 L 454.050781 621.550781 Z M 454.050781 614 " clip-rule="nonzero"/></clipPath><clipPath id="e748862f86"><path d="M 461.492188 617.816406 C 459.082031 621.335938 457.414062 621.523438 456.488281 621.152344 C 455.5625 620.78125 454.449219 619.484375 454.265625 618.558594 C 454.078125 617.628906 454.449219 615.960938 455.191406 615.21875 C 455.933594 614.480469 457.414062 613.921875 458.527344 614.109375 C 459.453125 614.292969 460.75 615.21875 461.308594 616.148438 C 461.679688 617.074219 461.492188 618.742188 461.121094 619.667969 C 460.566406 620.597656 459.082031 621.523438 458.15625 621.523438 C 456.859375 621.335938 454.078125 618.929688 454.078125 617.816406 C 454.265625 616.519531 457.042969 613.921875 458.339844 614.109375 C 459.453125 614.109375 461.492188 617.816406 461.492188 617.816406 " clip-rule="nonzero"/></clipPath><clipPath id="e1c111fc2d"><path d="M 458.324219 615.007812 L 466 615.007812 L 466 622.652344 L 458.324219 622.652344 Z M 458.324219 615.007812 " clip-rule="nonzero"/></clipPath><clipPath id="954405fe02"><path d="M 462.050781 615.035156 C 465.941406 617.261719 466.125 618.929688 465.941406 619.855469 C 465.570312 620.78125 464.457031 622.078125 463.53125 622.265625 C 462.417969 622.636719 460.75 622.265625 460.011719 621.707031 C 459.269531 620.96875 458.527344 619.484375 458.710938 618.371094 C 458.710938 617.445312 459.640625 615.960938 460.566406 615.589844 C 461.492188 615.035156 463.160156 615.035156 464.089844 615.40625 C 465.015625 615.960938 466.125 617.261719 465.941406 618.1875 C 465.941406 619.484375 463.902344 622.265625 462.605469 622.449219 C 461.492188 622.636719 458.710938 620.96875 458.527344 619.667969 C 458.339844 618.558594 461.492188 615.035156 461.492188 615.035156 " clip-rule="nonzero"/></clipPath><clipPath id="f801505ee3"><path d="M 459.382812 614 L 466.894531 614 L 466.894531 620 L 459.382812 620 Z M 459.382812 614 " clip-rule="nonzero"/></clipPath><clipPath id="b9ee954ddf"><path d="M 466.867188 616.148438 C 463.71875 621.152344 460.75 620.226562 460.195312 619.113281 C 459.453125 618 460.011719 615.035156 460.9375 614.292969 C 462.050781 613.550781 465.941406 614.664062 465.941406 614.664062 " clip-rule="nonzero"/></clipPath><clipPath id="ada097ff66"><path d="M 462.375 614.238281 L 471 614.238281 L 471 622 L 462.375 622 Z M 462.375 614.238281 " clip-rule="nonzero"/></clipPath><clipPath id="1728c6be21"><path d="M 467.425781 614.292969 C 470.945312 619.484375 469.835938 620.96875 468.90625 621.335938 C 467.980469 621.894531 466.3125 621.894531 465.386719 621.335938 C 464.644531 620.78125 463.71875 619.484375 463.53125 618.371094 C 463.53125 617.445312 464.089844 615.960938 464.828125 615.222656 C 465.570312 614.480469 467.238281 614.292969 468.351562 614.480469 C 469.277344 614.851562 470.390625 615.960938 470.761719 616.890625 C 471.132812 617.816406 470.761719 619.484375 470.203125 620.410156 C 469.464844 621.335938 467.238281 622.078125 466.125 621.894531 C 464.828125 621.523438 462.605469 619.484375 462.605469 618.1875 C 462.417969 616.890625 465.757812 614.292969 465.757812 614.292969 " clip-rule="nonzero"/></clipPath><clipPath id="14f21ffb88"><path d="M 473.644531 617.734375 L 481.59375 617.734375 L 481.59375 626 L 473.644531 626 Z M 473.644531 617.734375 " clip-rule="nonzero"/></clipPath><clipPath id="0dba178dd0"><path d="M 474.46875 619.855469 C 480.585938 618.742188 481.328125 620.410156 481.328125 621.335938 C 481.328125 622.449219 480.769531 623.933594 479.84375 624.488281 C 479.101562 625.042969 477.433594 625.414062 476.507812 625.042969 C 475.394531 624.675781 474.28125 623.5625 474.097656 622.449219 C 473.726562 621.523438 474.097656 619.855469 474.839844 619.113281 C 475.582031 618.371094 477.0625 617.816406 477.988281 617.816406 C 479.101562 618 480.585938 618.929688 480.957031 619.855469 C 481.511719 620.964844 481.328125 623.191406 480.585938 624.117188 C 479.660156 625.230469 476.878906 626.15625 475.765625 625.601562 C 474.652344 625.042969 473.726562 620.964844 473.726562 620.964844 " clip-rule="nonzero"/></clipPath><clipPath id="c061c181a6"><path d="M 457.320312 613.089844 L 476.773438 613.089844 L 476.773438 623.9375 L 457.320312 623.9375 Z M 457.320312 613.089844 " clip-rule="nonzero"/></clipPath><clipPath id="d917ab9c7a"><path d="M 460.378906 616.148438 C 475.394531 613.921875 476.691406 615.777344 476.691406 616.890625 C 476.691406 618.1875 474.097656 620.597656 472.800781 620.597656 C 471.6875 620.78125 469.835938 618.929688 469.464844 617.816406 C 469.09375 616.890625 469.464844 615.222656 470.203125 614.480469 C 471.132812 613.550781 473.542969 613.183594 474.652344 613.550781 C 475.582031 613.921875 476.691406 615.40625 476.691406 616.519531 C 476.691406 617.628906 475.765625 619.296875 474.46875 620.410156 C 472.058594 622.078125 465.199219 623.933594 462.050781 623.375 C 460.195312 623.007812 457.785156 621.523438 457.601562 620.226562 C 457.414062 618.929688 460.378906 616.148438 460.378906 616.148438 " clip-rule="nonzero"/></clipPath><clipPath id="f15cfa6802"><path d="M 466 613 L 484 613 L 484 631 L 466 631 Z M 466 613 " clip-rule="nonzero"/></clipPath><clipPath id="ad8f37c0db"><path d="M 466.363281 623.542969 L 477.886719 613.9375 L 483.648438 620.851562 L 472.125 630.457031 Z M 466.363281 623.542969 " clip-rule="nonzero"/></clipPath><clipPath id="18af484270"><path d="M 144.429688 530.496094 L 408.867188 310.089844 L 622.074219 565.886719 L 357.632812 786.296875 Z M 144.429688 530.496094 " clip-rule="nonzero"/></clipPath><clipPath id="43ecab278f"><path d="M 475 607 L 494 607 L 494 624 L 475 624 Z M 475 607 " clip-rule="nonzero"/></clipPath><clipPath id="6196d0cbec"><path d="M 475.769531 615.441406 L 488.511719 607.527344 L 493.257812 615.175781 L 480.515625 623.085938 Z M 475.769531 615.441406 " clip-rule="nonzero"/></clipPath><clipPath id="6ed053e85d"><path d="M 169.859375 478.621094 L 462.324219 297.042969 L 637.96875 579.953125 L 345.503906 761.53125 Z M 169.859375 478.621094 " clip-rule="nonzero"/></clipPath><clipPath id="2198767876"><path d="M 459 620 L 477 620 L 477 638 L 459 638 Z M 459 620 " clip-rule="nonzero"/></clipPath><clipPath id="a9805a92e2"><path d="M 459.539062 631.757812 L 469.519531 620.558594 L 476.238281 626.542969 L 466.261719 637.746094 Z M 459.539062 631.757812 " clip-rule="nonzero"/></clipPath><clipPath id="3440bb6e87"><path d="M 127.394531 587.28125 L 356.378906 330.234375 L 605.027344 551.742188 L 376.039062 808.785156 Z M 127.394531 587.28125 " clip-rule="nonzero"/></clipPath><clipPath id="bafea156fa"><path d="M 453 629 L 469 629 L 469 648 L 453 648 Z M 453 629 " clip-rule="nonzero"/></clipPath><clipPath id="3a7b93f12b"><path d="M 453.039062 642.222656 L 461.128906 629.589844 L 468.707031 634.445312 L 460.617188 647.078125 Z M 453.039062 642.222656 " clip-rule="nonzero"/></clipPath><clipPath id="92f10f0802"><path d="M 118.03125 650.550781 L 303.726562 360.683594 L 584.125 540.3125 L 398.425781 830.183594 Z M 118.03125 650.550781 " clip-rule="nonzero"/></clipPath><clipPath id="0a45efd0db"><path d="M 447 640 L 463 640 L 463 658 L 447 658 Z M 447 640 " clip-rule="nonzero"/></clipPath><clipPath id="5b28f568ec"><path d="M 447.921875 654.269531 L 454.085938 640.59375 L 462.289062 644.292969 L 456.128906 657.96875 Z M 447.921875 654.269531 " clip-rule="nonzero"/></clipPath><clipPath id="60913b95d1"><path d="M 117.707031 711.351562 L 259.160156 397.507812 L 562.75 534.339844 L 421.296875 848.183594 Z M 117.707031 711.351562 " clip-rule="nonzero"/></clipPath><clipPath id="829adbbae8"><path d="M 444 652 L 458 652 L 458 670 L 444 670 Z M 444 652 " clip-rule="nonzero"/></clipPath><clipPath id="236803447b"><path d="M 444.800781 666.847656 L 448.488281 652.304688 L 457.210938 654.519531 L 453.527344 669.058594 Z M 444.800781 666.847656 " clip-rule="nonzero"/></clipPath><clipPath id="d25770cd10"><path d="M 129.589844 780.605469 L 214.179688 446.910156 L 536.96875 528.738281 L 452.378906 862.433594 Z M 129.589844 780.605469 " clip-rule="nonzero"/></clipPath><clipPath id="19f1286316"><path d="M 453 613 L 469 613 L 469 623 L 453 623 Z M 453 613 " clip-rule="nonzero"/></clipPath><clipPath id="584825b305"><path d="M 453.863281 613.683594 L 468.859375 613.980469 L 468.683594 622.980469 L 453.683594 622.683594 Z M 453.863281 613.683594 " clip-rule="nonzero"/></clipPath><clipPath id="e2817982be"><path d="M 271.679688 332.421875 L 615.863281 339.25 L 609.257812 672.183594 L 265.074219 665.355469 Z M 271.679688 332.421875 " clip-rule="nonzero"/></clipPath><clipPath id="d5b6c03ccb"><path d="M 463 613 L 479 613 L 479 623 L 463 623 Z M 463 613 " clip-rule="nonzero"/></clipPath><clipPath id="4f581e26e2"><path d="M 463.90625 613.683594 L 478.902344 613.980469 L 478.722656 622.980469 L 463.726562 622.683594 Z M 463.90625 613.683594 " clip-rule="nonzero"/></clipPath><clipPath id="7c5d81d7bf"><path d="M 281.722656 332.421875 L 625.902344 339.25 L 619.296875 672.183594 L 275.117188 665.355469 Z M 281.722656 332.421875 " clip-rule="nonzero"/></clipPath><clipPath id="f63c091afa"><path d="M 470 606 L 488 606 L 488 624 L 470 624 Z M 470 606 " clip-rule="nonzero"/></clipPath><clipPath id="48c6ba4f7f"><path d="M 470.355469 617.621094 L 480.269531 606.359375 L 487.023438 612.308594 L 477.113281 623.566406 Z M 470.355469 617.621094 " clip-rule="nonzero"/></clipPath><clipPath id="46a7da0ebf"><path d="M 137.949219 575.132812 L 365.394531 316.722656 L 615.359375 536.730469 L 387.917969 795.144531 Z M 137.949219 575.132812 " clip-rule="nonzero"/></clipPath></defs><g clip-path="url(#51d7893977)"><path fill="#39a7ff" d="M 532.683594 712.042969 C 549.710938 712.042969 563.558594 698.09375 563.558594 680.945312 C 563.558594 663.796875 549.710938 649.84375 532.683594 649.84375 C 515.660156 649.84375 501.808594 663.796875 501.808594 680.945312 C 501.808594 698.09375 515.660156 712.042969 532.683594 712.042969 Z M 532.683594 662.035156 C 542.988281 662.035156 551.371094 670.515625 551.371094 680.945312 C 551.371094 691.371094 542.988281 699.855469 532.683594 699.855469 C 522.382812 699.855469 514 691.371094 514 680.945312 C 514 670.515625 522.382812 662.035156 532.683594 662.035156 Z M 43.265625 730.800781 C 53.460938 730.800781 61.753906 722.457031 61.753906 712.203125 C 61.753906 701.949219 53.460938 693.605469 43.265625 693.605469 C 33.074219 693.605469 24.78125 701.949219 24.78125 712.203125 C 24.78125 722.457031 33.074219 730.800781 43.265625 730.800781 Z M 43.265625 705.792969 C 46.738281 705.792969 49.5625 708.667969 49.5625 712.203125 C 49.5625 715.734375 46.738281 718.609375 43.265625 718.609375 C 39.796875 718.609375 36.972656 715.734375 36.972656 712.203125 C 36.972656 708.667969 39.796875 705.792969 43.265625 705.792969 Z M 761.90625 212.234375 L 563.558594 212.234375 L 563.558594 147.695312 L 585.410156 140.34375 C 605.882812 133.457031 620.929688 115.867188 624.675781 94.441406 L 637.8125 19.332031 C 638.121094 17.558594 637.632812 15.738281 636.472656 14.359375 C 635.3125 12.980469 633.605469 12.1875 631.804688 12.1875 L 433.558594 12.1875 C 431.761719 12.1875 430.050781 12.980469 428.894531 14.359375 C 427.734375 15.738281 427.246094 17.558594 427.554688 19.332031 L 440.691406 94.4375 C 444.4375 115.867188 459.484375 133.457031 479.957031 140.34375 L 501.808594 147.695312 L 501.808594 212.234375 L 476.929688 212.234375 C 473.5625 212.234375 470.832031 214.964844 470.832031 218.332031 L 470.832031 599.828125 L 458.242188 599.828125 L 458.242188 330.644531 C 458.242188 313.609375 444.488281 299.753906 427.582031 299.753906 C 413.761719 299.753906 401.585938 309.140625 397.980469 322.582031 L 323.570312 599.828125 L 305.28125 599.828125 C 308.074219 593.976562 309.558594 587.527344 309.558594 580.917969 C 309.558594 569.4375 305.128906 558.984375 297.90625 551.191406 L 303.023438 473.761719 C 313.863281 471.125 321.949219 461.363281 321.949219 449.71875 L 321.949219 449.550781 C 321.949219 435.894531 310.839844 424.785156 297.183594 424.785156 L 86.71875 424.785156 C 73.0625 424.785156 61.953125 435.894531 61.953125 449.550781 L 61.953125 449.71875 C 61.953125 461.402344 70.09375 471.199219 81 473.792969 L 92.355469 599.828125 L 43.265625 599.828125 C 39.902344 599.828125 37.171875 602.554688 37.171875 605.921875 L 37.171875 669.035156 C 16.191406 672.035156 0 690.242188 0 712.203125 C 0 736.246094 19.410156 755.804688 43.265625 755.804688 C 67.125 755.804688 86.535156 736.246094 86.535156 712.203125 C 86.535156 699.871094 81.421875 688.726562 73.226562 680.789062 L 458.449219 680.789062 C 458.449219 680.839844 458.441406 680.890625 458.441406 680.945312 C 458.441406 722.222656 491.746094 755.808594 532.683594 755.808594 C 573.621094 755.808594 606.925781 722.222656 606.925781 680.945312 C 606.925781 654.742188 593.492188 631.652344 573.21875 618.273438 L 662.769531 618.273438 C 687.082031 618.273438 707.4375 599.90625 710.117188 575.550781 L 742.585938 280.691406 L 761.90625 280.691406 C 765.269531 280.691406 768 277.960938 768 274.59375 L 768 218.332031 C 768 214.964844 765.269531 212.234375 761.90625 212.234375 Z M 616.847656 68.449219 L 596.023438 68.449219 L 605.730469 24.378906 L 624.554688 24.378906 Z M 481.824219 68.449219 L 472.121094 24.378906 L 496.246094 24.378906 L 501.101562 68.449219 Z M 513.363281 68.449219 L 508.511719 24.378906 L 526.589844 24.378906 L 526.589844 68.449219 Z M 538.78125 24.378906 L 556.855469 24.378906 L 552.003906 68.449219 L 538.78125 68.449219 Z M 569.121094 24.378906 L 593.246094 24.378906 L 583.542969 68.449219 L 564.269531 68.449219 Z M 459.640625 24.378906 L 469.34375 68.449219 L 448.523438 68.449219 L 440.816406 24.378906 Z M 483.84375 128.789062 C 467.609375 123.328125 455.675781 109.363281 452.699219 92.339844 L 450.65625 80.640625 L 614.710938 80.640625 L 612.664062 92.339844 C 609.6875 109.363281 597.753906 123.328125 581.519531 128.789062 L 555.519531 137.535156 C 553.039062 138.371094 551.367188 140.695312 551.367188 143.3125 L 551.367188 162.222656 L 513.996094 162.222656 L 513.996094 143.3125 C 513.996094 140.695312 512.328125 138.371094 509.84375 137.535156 Z M 514 174.414062 L 551.371094 174.414062 L 551.371094 212.234375 L 514 212.234375 Z M 409.753906 325.742188 C 411.933594 317.617188 419.261719 311.945312 427.578125 311.945312 C 437.765625 311.945312 446.050781 320.332031 446.050781 330.644531 L 446.050781 599.828125 L 433.460938 599.828125 L 433.460938 337.109375 C 433.460938 334.058594 431.207031 331.480469 428.1875 331.066406 C 425.164062 330.652344 422.304688 332.542969 421.492188 335.484375 L 348.386719 599.828125 L 336.191406 599.828125 Z M 421.269531 599.828125 L 361.035156 599.828125 L 421.269531 382.019531 Z M 241.488281 599.828125 C 237.433594 594.402344 235.214844 587.785156 235.214844 580.917969 C 235.214844 563.597656 249.15625 549.507812 266.292969 549.507812 C 283.425781 549.507812 297.367188 563.597656 297.367188 580.917969 C 297.367188 587.785156 295.152344 594.402344 291.097656 599.828125 Z M 74.140625 449.722656 L 74.140625 449.554688 C 74.140625 442.621094 79.785156 436.980469 86.71875 436.980469 L 297.183594 436.980469 C 304.117188 436.980469 309.757812 442.621094 309.757812 449.554688 L 309.757812 449.722656 C 309.757812 456.65625 304.117188 462.296875 297.183594 462.296875 L 86.71875 462.296875 C 79.78125 462.296875 74.140625 456.65625 74.140625 449.722656 Z M 93.300781 474.488281 L 290.757812 474.488281 L 286.277344 542.265625 C 280.296875 539.109375 273.5 537.3125 266.292969 537.3125 C 242.433594 537.3125 223.027344 556.875 223.027344 580.917969 C 223.027344 587.53125 224.511719 593.980469 227.308594 599.828125 L 104.59375 599.828125 Z M 74.34375 712.203125 C 74.34375 729.523438 60.402344 743.613281 43.265625 743.613281 C 26.128906 743.613281 12.191406 729.523438 12.191406 712.203125 C 12.191406 694.878906 26.128906 680.789062 43.265625 680.789062 C 60.402344 680.789062 74.34375 694.878906 74.34375 712.203125 Z M 594.734375 680.945312 C 594.734375 715.5 566.898438 743.613281 532.683594 743.613281 C 498.46875 743.613281 470.632812 715.5 470.632812 680.945312 C 470.632812 646.386719 498.46875 618.269531 532.683594 618.269531 C 566.898438 618.269531 594.734375 646.386719 594.734375 680.945312 Z M 698 574.21875 C 696 592.382812 680.855469 606.082031 662.769531 606.082031 L 538.78125 606.082031 L 538.78125 280.6875 L 730.324219 280.6875 Z M 755.808594 268.5 L 532.683594 268.5 C 529.316406 268.5 526.589844 271.226562 526.589844 274.59375 L 526.589844 606.351562 C 492.582031 609.15625 465 635.152344 459.46875 668.597656 L 49.363281 668.597656 L 49.363281 612.019531 L 476.929688 612.019531 C 480.292969 612.019531 483.023438 609.289062 483.023438 605.921875 L 483.023438 224.425781 L 755.808594 224.425781 Z M 755.808594 268.5 " fill-opacity="1" fill-rule="nonzero"/></g><g clip-path="url(#fa9f63f808)"><path fill="#e0f4ff" d="M 482.578125 223.273438 L 482.578125 615.296875 C 482.578125 618.753906 479.773438 621.558594 476.316406 621.558594 L 36.957031 621.558594 L 36.957031 679.695312 L 458.378906 679.695312 C 464.058594 645.328125 492.402344 618.617188 527.347656 615.738281 L 527.347656 274.824219 C 527.347656 271.367188 530.152344 268.5625 533.613281 268.5625 L 762.890625 268.5625 L 762.890625 223.273438 Z M 482.578125 223.273438 " fill-opacity="1" fill-rule="nonzero"/></g><g clip-path="url(#a2c0ab7491)"><path fill="#e0f4ff" d="M 533.65625 607.554688 L 661.695312 607.554688 C 680.367188 607.554688 696.007812 593.410156 698.074219 574.652344 L 731.449219 271.546875 L 533.65625 271.546875 Z M 533.65625 607.554688 " fill-opacity="1" fill-rule="nonzero"/></g><g clip-path="url(#bc079a038d)"><path fill="#e0f4ff" d="M 476.078125 213.445312 L 476.078125 607.394531 C 476.078125 610.871094 473.261719 613.6875 469.785156 613.6875 L 28.265625 613.6875 L 28.265625 672.113281 L 451.757812 672.113281 C 457.46875 637.574219 485.953125 610.730469 521.066406 607.835938 L 521.066406 265.25 C 521.066406 261.773438 523.886719 258.957031 527.363281 258.957031 L 757.769531 258.957031 L 757.769531 213.445312 Z M 476.078125 213.445312 " fill-opacity="1" fill-rule="nonzero"/></g><g clip-path="url(#4c8cbbc569)"><path fill="#e0f4ff" d="M 481.871094 211.460938 L 481.871094 605.265625 C 481.871094 608.742188 479.050781 611.558594 475.578125 611.558594 L 34.21875 611.558594 L 34.21875 669.960938 L 457.558594 669.960938 C 463.265625 635.4375 491.738281 608.601562 526.84375 605.710938 L 526.84375 263.246094 C 526.84375 259.773438 529.660156 256.957031 533.132812 256.957031 L 763.457031 256.957031 L 763.457031 211.460938 Z M 481.871094 211.460938 " fill-opacity="1" fill-rule="nonzero"/><path fill="#e0f4ff" d="M 481.871094 211.460938 L 481.871094 605.265625 C 481.871094 608.742188 479.050781 611.558594 475.578125 611.558594 L 34.21875 611.558594 L 34.21875 669.960938 L 457.558594 669.960938 C 463.265625 635.4375 491.738281 608.601562 526.84375 605.710938 L 526.84375 263.246094 C 526.84375 259.773438 529.660156 256.957031 533.132812 256.957031 L 763.457031 256.957031 L 763.457031 211.460938 Z M 481.871094 211.460938 " fill-opacity="1" fill-rule="nonzero"/></g><g clip-path="url(#91f69f966d)"><path fill="#e0f4ff" d="M 485.492188 222.871094 L 485.492188 607.46875 C 485.492188 610.863281 482.738281 613.613281 479.347656 613.613281 L 48.304688 613.613281 L 48.304688 670.652344 L 461.746094 670.652344 C 467.324219 636.9375 495.128906 610.730469 529.414062 607.902344 L 529.414062 273.445312 C 529.414062 270.054688 532.164062 267.300781 535.558594 267.300781 L 760.496094 267.300781 L 760.496094 222.871094 Z M 485.492188 222.871094 " fill-opacity="1" fill-rule="nonzero"/></g><g clip-path="url(#8f4af30ea1)"><g clip-path="url(#906fc19351)"><path fill="#e0f4ff" d="M 437.394531 601.132812 L 495.554688 601.132812 L 495.554688 633.015625 L 437.394531 633.015625 Z M 437.394531 601.132812 " fill-opacity="1" fill-rule="nonzero"/></g></g><g clip-path="url(#cb4135a97f)"><g clip-path="url(#29afcec7d2)"><path fill="#e0f4ff" d="M 438.507812 613.738281 L 475.75 613.738281 L 475.75 644.691406 L 438.507812 644.691406 Z M 438.507812 613.738281 " fill-opacity="1" fill-rule="nonzero"/></g></g><g clip-path="url(#3e3e3f0cbd)"><g clip-path="url(#ec7da5537e)"><path fill="#e0f4ff" d="M 441.84375 612.8125 L 472.773438 612.8125 L 472.773438 634.683594 L 441.84375 634.683594 Z M 441.84375 612.8125 " fill-opacity="1" fill-rule="nonzero"/></g></g><g clip-path="url(#a5b81954be)"><g clip-path="url(#e9207712a0)"><path fill="#e0f4ff" d="M 442.585938 610.585938 L 470.945312 610.585938 L 470.945312 654.015625 L 442.585938 654.015625 Z M 442.585938 610.585938 " fill-opacity="1" fill-rule="nonzero"/></g></g><g clip-path="url(#cc779b2914)"><g clip-path="url(#be571094a4)"><path fill="#e0f4ff" d="M 447.21875 610.585938 L 486.332031 610.585938 L 486.332031 650.613281 L 447.21875 650.613281 Z M 447.21875 610.585938 " fill-opacity="1" fill-rule="nonzero"/></g></g><g clip-path="url(#5b7852f496)"><g clip-path="url(#549e9112cd)"><path fill="#e0f4ff" d="M 460.9375 603.914062 L 491.683594 603.914062 L 491.683594 631.53125 L 460.9375 631.53125 Z M 460.9375 603.914062 " fill-opacity="1" fill-rule="nonzero"/></g></g><g clip-path="url(#7d94b480a7)"><g clip-path="url(#85e7561bb6)"><path fill="#e0f4ff" d="M 460.9375 601.6875 L 497.972656 601.6875 L 497.972656 632.273438 L 460.9375 632.273438 Z M 460.9375 601.6875 " fill-opacity="1" fill-rule="nonzero"/></g></g><g clip-path="url(#780d6cfc3f)"><g clip-path="url(#b2e036e094)"><path fill="#e0f4ff" d="M 439.433594 633.941406 L 467.609375 633.941406 L 467.609375 665.859375 L 439.433594 665.859375 Z M 439.433594 633.941406 " fill-opacity="1" fill-rule="nonzero"/></g></g><g clip-path="url(#e625d9e690)"><g clip-path="url(#48734b25dd)"><path fill="#e0f4ff" d="M 438.136719 623.746094 L 474.28125 623.746094 L 474.28125 675.140625 L 438.136719 675.140625 Z M 438.136719 623.746094 " fill-opacity="1" fill-rule="nonzero"/></g></g><g clip-path="url(#d607b0dc54)"><g clip-path="url(#8c03267c0b)"><path fill="#e0f4ff" d="M 452.964844 619.113281 L 478.773438 619.113281 L 478.773438 643.582031 L 452.964844 643.582031 Z M 452.964844 619.113281 " fill-opacity="1" fill-rule="nonzero"/></g></g><g clip-path="url(#45479033bb)"><g clip-path="url(#2e659f34bd)"><path fill="#e0f4ff" d="M 443.511719 610.585938 L 466.117188 610.585938 L 466.117188 633.015625 L 443.511719 633.015625 Z M 443.511719 610.585938 " fill-opacity="1" fill-rule="nonzero"/></g></g><g clip-path="url(#82aef121a2)"><g clip-path="url(#d4f2305727)"><path fill="#e0f4ff" d="M 441.289062 607.804688 L 464.417969 607.804688 L 464.417969 630.234375 L 441.289062 630.234375 Z M 441.289062 607.804688 " fill-opacity="1" fill-rule="nonzero"/></g></g><g clip-path="url(#cabce48c10)"><g clip-path="url(#f834573a3b)"><path fill="#e0f4ff" d="M 443.699219 606.695312 L 465.40625 606.695312 L 465.40625 627.824219 L 443.699219 627.824219 Z M 443.699219 606.695312 " fill-opacity="1" fill-rule="nonzero"/></g></g><g clip-path="url(#002be95bda)"><g clip-path="url(#e748862f86)"><path fill="#e0f4ff" d="M 446.664062 606.695312 L 469.082031 606.695312 L 469.082031 628.9375 L 446.664062 628.9375 Z M 446.664062 606.695312 " fill-opacity="1" fill-rule="nonzero"/></g></g><g clip-path="url(#e1c111fc2d)"><g clip-path="url(#954405fe02)"><path fill="#e0f4ff" d="M 451.113281 607.621094 L 473.53125 607.621094 L 473.53125 629.863281 L 451.113281 629.863281 Z M 451.113281 607.621094 " fill-opacity="1" fill-rule="nonzero"/></g></g><g clip-path="url(#f801505ee3)"><g clip-path="url(#b9ee954ddf)"><path fill="#e0f4ff" d="M 452.78125 606.878906 L 474.488281 606.878906 L 474.488281 628.011719 L 452.78125 628.011719 Z M 452.78125 606.878906 " fill-opacity="1" fill-rule="nonzero"/></g></g><g clip-path="url(#ada097ff66)"><g clip-path="url(#1728c6be21)"><path fill="#e0f4ff" d="M 455.191406 606.878906 L 478.582031 606.878906 L 478.582031 629.308594 L 455.191406 629.308594 Z M 455.191406 606.878906 " fill-opacity="1" fill-rule="nonzero"/></g></g><g clip-path="url(#14f21ffb88)"><g clip-path="url(#0dba178dd0)"><path fill="#e0f4ff" d="M 466.3125 610.402344 L 488.925781 610.402344 L 488.925781 633.015625 L 466.3125 633.015625 Z M 466.3125 610.402344 " fill-opacity="1" fill-rule="nonzero"/></g></g><g clip-path="url(#c061c181a6)"><g clip-path="url(#d917ab9c7a)"><path fill="#e0f4ff" d="M 450.1875 605.953125 L 484.300781 605.953125 L 484.300781 630.976562 L 450.1875 630.976562 Z M 450.1875 605.953125 " fill-opacity="1" fill-rule="nonzero"/></g></g><g clip-path="url(#f15cfa6802)"><g clip-path="url(#ad8f37c0db)"><g clip-path="url(#18af484270)"><path fill="#e0f4ff" d="M 371.03125 462.109375 L 484.039062 597.691406 C 485.035156 598.886719 484.875 600.664062 483.675781 601.660156 L 331.726562 728.3125 L 348.484375 748.417969 L 494.230469 626.941406 C 486.289062 613.414062 488.390625 596.007812 499.648438 584.9375 L 401.375 467.035156 C 400.378906 465.835938 400.542969 464.058594 401.738281 463.0625 L 481.035156 396.96875 L 467.980469 381.308594 Z M 371.03125 462.109375 " fill-opacity="1" fill-rule="nonzero"/></g></g></g><g clip-path="url(#43ecab278f)"><g clip-path="url(#6196d0cbec)"><g clip-path="url(#6ed053e85d)"><path fill="#e0f4ff" d="M 403.761719 442.339844 L 496.859375 592.292969 C 497.679688 593.613281 497.273438 595.351562 495.949219 596.175781 L 327.894531 700.511719 L 341.699219 722.75 L 502.894531 622.671875 C 496.90625 608.175781 501.402344 591.230469 514.085938 581.828125 L 433.128906 451.429688 C 432.304688 450.105469 432.714844 448.367188 434.035156 447.546875 L 521.738281 393.097656 L 510.980469 375.773438 Z M 403.761719 442.339844 " fill-opacity="1" fill-rule="nonzero"/></g></g></g><g clip-path="url(#2198767876)"><g clip-path="url(#a9805a92e2)"><g clip-path="url(#3440bb6e87)"><path fill="#e0f4ff" d="M 341.414062 486.175781 L 473.203125 603.578125 C 474.363281 604.617188 474.46875 606.398438 473.429688 607.5625 L 341.851562 755.265625 L 361.394531 772.675781 L 487.605469 631.003906 C 477.753906 618.800781 477.261719 601.273438 486.757812 588.660156 L 372.152344 486.566406 C 370.988281 485.527344 370.886719 483.746094 371.921875 482.582031 L 440.585938 405.503906 L 425.363281 391.941406 Z M 341.414062 486.175781 " fill-opacity="1" fill-rule="nonzero"/></g></g></g><g clip-path="url(#bafea156fa)"><g clip-path="url(#3a7b93f12b)"><g clip-path="url(#92f10f0802)"><path fill="#e0f4ff" d="M 313.480469 517.035156 L 462.097656 612.246094 C 463.40625 613.085938 463.789062 614.828125 462.949219 616.140625 L 356.242188 782.703125 L 378.285156 796.824219 L 480.632812 637.0625 C 468.984375 626.5625 465.742188 609.328125 473.136719 595.378906 L 343.894531 512.585938 C 342.585938 511.746094 342.203125 510 343.042969 508.6875 L 398.726562 421.765625 L 381.558594 410.769531 Z M 313.480469 517.035156 " fill-opacity="1" fill-rule="nonzero"/></g></g></g><g clip-path="url(#0a45efd0db)"><g clip-path="url(#5b28f568ec)"><g clip-path="url(#60913b95d1)"><path fill="#e0f4ff" d="M 291.601562 550.769531 L 452.511719 623.292969 C 453.933594 623.933594 454.566406 625.601562 453.925781 627.023438 L 372.644531 807.363281 L 396.507812 818.121094 L 474.46875 645.140625 C 461.414062 636.453125 455.695312 619.875 460.976562 605 L 321.046875 541.929688 C 319.625 541.289062 318.992188 539.621094 319.632812 538.199219 L 362.050781 444.089844 L 343.460938 435.710938 Z M 291.601562 550.769531 " fill-opacity="1" fill-rule="nonzero"/></g></g></g><g clip-path="url(#829adbbae8)"><g clip-path="url(#236803447b)"><g clip-path="url(#d25770cd10)"><path fill="#e0f4ff" d="M 272.835938 592.171875 L 443.921875 635.542969 C 445.433594 635.925781 446.347656 637.460938 445.964844 638.96875 L 397.355469 830.714844 L 422.730469 837.148438 L 469.351562 653.230469 C 454.984375 646.949219 446.460938 631.625 449.070312 616.054688 L 300.289062 578.335938 C 298.777344 577.953125 297.863281 576.421875 298.246094 574.910156 L 323.613281 474.847656 L 303.847656 469.835938 Z M 272.835938 592.171875 " fill-opacity="1" fill-rule="nonzero"/></g></g></g><g clip-path="url(#19f1286316)"><g clip-path="url(#584825b305)"><g clip-path="url(#e2817982be)"><path fill="#e0f4ff" d="M 487.65625 429.277344 L 484.15625 605.742188 C 484.125 607.296875 482.835938 608.535156 481.28125 608.503906 L 283.507812 604.578125 L 282.988281 630.75 L 472.683594 634.515625 C 475.550781 619.09375 488.546875 607.324219 504.304688 606.339844 L 507.347656 452.882812 C 507.378906 451.324219 508.667969 450.085938 510.222656 450.117188 L 613.429688 452.167969 L 613.835938 431.78125 Z M 487.65625 429.277344 " fill-opacity="1" fill-rule="nonzero"/></g></g></g><g clip-path="url(#d5b6c03ccb)"><g clip-path="url(#4f581e26e2)"><g clip-path="url(#7c5d81d7bf)"><path fill="#e0f4ff" d="M 497.699219 429.277344 L 494.195312 605.742188 C 494.164062 607.296875 492.878906 608.535156 491.320312 608.503906 L 293.546875 604.578125 L 293.027344 630.75 L 482.726562 634.515625 C 485.59375 619.09375 498.589844 607.324219 514.34375 606.339844 L 517.390625 452.882812 C 517.421875 451.324219 518.707031 450.085938 520.265625 450.117188 L 623.472656 452.167969 L 623.878906 431.78125 Z M 497.699219 429.277344 " fill-opacity="1" fill-rule="nonzero"/></g></g></g><g clip-path="url(#f63c091afa)"><g clip-path="url(#48c6ba4f7f)"><g clip-path="url(#46a7da0ebf)"><path fill="#e0f4ff" d="M 351.359375 472.75 L 483.847656 589.359375 C 485.019531 590.390625 485.132812 592.171875 484.101562 593.339844 L 353.410156 741.828125 L 373.058594 759.121094 L 498.414062 616.695312 C 488.492188 604.554688 487.894531 587.027344 497.316406 574.363281 L 382.097656 472.953125 C 380.929688 471.925781 380.816406 470.140625 381.847656 468.972656 L 450.046875 391.484375 L 434.742188 378.011719 Z M 351.359375 472.75 " fill-opacity="1" fill-rule="nonzero"/></g></g></g></svg>