<svg xmlns="http://www.w3.org/2000/svg" xmlns:xlink="http://www.w3.org/1999/xlink" width="1024" zoomAndPan="magnify" viewBox="0 0 768 767.999994" height="1024" preserveAspectRatio="xMidYMid meet" version="1.0"><defs><clipPath id="52fa24f409"><path d="M 82 150.976562 L 767.339844 150.976562 L 767.339844 686.210938 L 82 686.210938 Z M 82 150.976562 " clip-rule="nonzero"/></clipPath><clipPath id="225ac9c275"><path d="M 79.226562 593 L 80 593 L 80 639 L 79.226562 639 Z M 79.226562 593 " clip-rule="nonzero"/></clipPath><clipPath id="cbb80ce98b"><path d="M 423.851562 139 L 582.851562 139 L 582.851562 148.503906 L 423.851562 148.503906 Z M 423.851562 139 " clip-rule="nonzero"/></clipPath><clipPath id="fd729fdbc8"><path d="M 74 497.257812 L 79.5 497.257812 L 79.5 686.257812 L 74 686.257812 Z M 74 497.257812 " clip-rule="nonzero"/></clipPath><clipPath id="282dbc5dc2"><path d="M 149.699219 329.648438 L 553 329.648438 L 553 674.484375 L 149.699219 674.484375 Z M 149.699219 329.648438 " clip-rule="nonzero"/></clipPath><clipPath id="7e271540c8"><path d="M 351.140625 329.648438 L 552.585938 674.484375 L 149.699219 674.484375 Z M 351.140625 329.648438 " clip-rule="nonzero"/></clipPath><clipPath id="c11b1eea97"><path d="M 103.597656 446.035156 L 202.597656 446.035156 L 202.597656 545.785156 L 103.597656 545.785156 Z M 103.597656 446.035156 " clip-rule="nonzero"/></clipPath><clipPath id="380330f842"><path d="M 315.757812 408.59375 L 386.257812 408.59375 L 386.257812 636.59375 L 315.757812 636.59375 Z M 315.757812 408.59375 " clip-rule="nonzero"/></clipPath></defs><path fill="#39a7ff" d="M 343.996094 433.722656 L 343.996094 587.675781 C 343.996094 591.796875 347.398438 595.140625 351.519531 595.140625 C 355.640625 595.140625 358.984375 591.796875 358.984375 587.675781 L 358.984375 433.722656 C 358.984375 429.601562 355.640625 426.257812 351.519531 426.257812 C 347.398438 426.257812 343.996094 429.601562 343.996094 433.722656 " fill-opacity="1" fill-rule="nonzero"/><path fill="#39a7ff" d="M 338.679688 623.507812 C 338.679688 630.613281 344.414062 636.34375 351.519531 636.34375 C 358.566406 636.34375 364.300781 630.613281 364.300781 623.507812 C 364.300781 616.460938 358.566406 610.726562 351.519531 610.726562 C 344.414062 610.726562 338.679688 616.460938 338.679688 623.507812 " fill-opacity="1" fill-rule="nonzero"/><g clip-path="url(#52fa24f409)"><path fill="#39a7ff" d="M 738.195312 514.878906 L 687.675781 523 C 685.761719 523.296875 684.089844 524.3125 682.957031 525.808594 C 670.652344 541.511719 663.1875 551.066406 650.769531 566.773438 C 649.632812 568.265625 649.035156 570.117188 649.214844 571.96875 L 653.277344 623.027344 L 598.335938 650.019531 L 560.535156 615.621094 C 559.160156 614.367188 557.1875 613.53125 555.398438 613.710938 C 547.097656 613.832031 540.289062 613.832031 533.71875 613.832031 L 434.050781 441.1875 L 440.082031 441.1875 C 455.609375 441.1875 468.328125 428.527344 468.328125 412.9375 L 468.328125 389.707031 C 468.328125 374.121094 455.609375 361.460938 440.082031 361.460938 L 432.738281 361.460938 L 432.738281 293.742188 C 432.738281 291.53125 432.558594 289.382812 432.4375 287.230469 C 447.007812 280.183594 457.699219 274.988281 473.40625 267.105469 C 475.078125 266.269531 476.390625 264.835938 477.046875 263.164062 L 495.558594 215.449219 C 517.238281 215.273438 524.941406 215.210938 540.167969 215.152344 L 552.589844 215.09375 C 553.90625 214.972656 555.339844 214.972656 556.832031 214.972656 L 576 262.328125 C 576.71875 264.0625 578.03125 265.496094 579.703125 266.269531 C 596.363281 274.214844 606.816406 279.109375 622.402344 286.394531 L 626.941406 288.546875 C 628.613281 289.320312 630.582031 289.5 632.375 288.902344 L 681.046875 273.675781 C 698.484375 295.113281 701.648438 298.996094 719.085938 320.496094 L 719.683594 321.210938 L 694.421875 365.820312 C 693.527344 367.492188 693.289062 369.464844 693.707031 371.253906 L 694.660156 375.136719 C 698.839844 392.335938 701.648438 403.683594 705.769531 421.835938 C 706.246094 423.6875 707.320312 425.300781 708.933594 426.375 L 751.453125 454.980469 Z M 153.253906 671.578125 L 351.519531 328.199219 L 549.785156 671.578125 Z M 111.332031 426.257812 C 103.925781 426.257812 97.894531 420.285156 97.894531 412.9375 L 97.894531 389.707031 C 97.894531 382.363281 103.925781 376.390625 111.332031 376.390625 L 306.371094 376.390625 L 277.589844 426.257812 Z M 133.488281 293.742188 C 133.488281 240.53125 176.066406 197.238281 228.796875 195.921875 L 228.796875 256.65625 C 228.796875 260.777344 232.144531 264.121094 236.324219 264.121094 C 240.445312 264.121094 243.789062 260.777344 243.789062 256.65625 L 243.789062 165.707031 L 307.507812 165.707031 L 307.507812 256.65625 C 307.507812 260.777344 310.851562 264.121094 314.972656 264.121094 C 319.152344 264.121094 322.496094 260.777344 322.496094 256.65625 L 322.496094 195.921875 C 375.226562 197.238281 417.808594 240.53125 417.808594 293.742188 L 417.808594 361.460938 L 388.007812 361.460938 L 357.96875 309.449219 C 356.65625 307.179688 354.207031 305.746094 351.519531 305.746094 C 348.832031 305.746094 346.382812 307.179688 345.011719 309.449219 L 315.03125 361.460938 L 133.488281 361.460938 Z M 396.605469 376.390625 L 440.082031 376.390625 C 447.367188 376.390625 453.339844 382.363281 453.339844 389.707031 L 453.339844 412.9375 C 453.339844 420.285156 447.367188 426.257812 440.082031 426.257812 L 425.390625 426.257812 Z M 764.054688 445.425781 L 719.742188 415.625 C 715.921875 399.023438 713.234375 387.917969 709.230469 371.554688 L 708.933594 370.597656 L 735.210938 324.136719 C 736.703125 321.449219 736.464844 318.167969 734.554688 315.777344 L 730.015625 310.222656 C 712.277344 288.308594 709.828125 285.261719 689.464844 260.300781 C 687.554688 257.910156 684.390625 256.953125 681.402344 257.910156 L 630.644531 273.734375 L 628.730469 272.839844 C 614.042969 265.972656 603.890625 261.195312 588.78125 254.027344 L 568.835938 204.640625 C 567.640625 201.835938 564.894531 199.984375 561.847656 199.984375 C 558.085938 199.984375 554.800781 199.984375 552.113281 200.101562 L 540.050781 200.164062 C 523.6875 200.28125 515.984375 200.28125 490.363281 200.519531 C 487.257812 200.582031 484.570312 202.433594 483.4375 205.296875 L 464.148438 254.984375 C 451.546875 261.3125 442.050781 265.972656 430.527344 271.527344 C 420.375 220.644531 375.945312 182.128906 322.496094 180.992188 L 322.496094 158.242188 C 322.496094 154.121094 319.152344 150.777344 314.972656 150.777344 L 236.324219 150.777344 C 232.144531 150.777344 228.796875 154.121094 228.796875 158.242188 L 228.796875 180.992188 C 167.765625 182.246094 118.5 232.292969 118.5 293.742188 L 118.5 361.460938 L 111.332031 361.460938 C 95.625 361.460938 82.90625 374.121094 82.90625 389.707031 L 82.90625 412.9375 C 82.90625 428.527344 95.625 441.1875 111.332031 441.1875 L 268.988281 441.1875 L 133.785156 675.339844 C 132.472656 677.609375 132.472656 680.476562 133.785156 682.804688 C 135.101562 685.136719 137.609375 686.570312 140.296875 686.570312 L 562.683594 686.570312 C 565.371094 686.570312 567.878906 685.136719 569.191406 682.804688 C 570.566406 680.476562 570.566406 677.609375 569.191406 675.339844 L 542.320312 628.761719 C 545.605469 628.761719 548.949219 628.761719 552.652344 628.703125 L 592.003906 664.53125 C 593.4375 665.847656 595.230469 666.503906 597.082031 666.503906 C 598.214844 666.503906 599.351562 666.203125 600.367188 665.726562 L 664.445312 634.253906 C 667.191406 632.882812 668.863281 630.015625 668.5625 626.96875 L 664.382812 573.699219 C 675.132812 560.085938 682.300781 551.007812 692.929688 537.332031 L 745.601562 528.851562 C 748.644531 528.375 751.035156 526.105469 751.691406 523.058594 L 767.160156 453.25 C 767.816406 450.203125 766.5625 447.097656 764.054688 445.425781 " fill-opacity="1" fill-rule="nonzero"/></g><path fill="#39a7ff" d="M 537.78125 320.433594 C 508.21875 320.433594 480.09375 331.664062 458.652344 352.085938 C 455.667969 354.953125 455.550781 359.671875 458.355469 362.65625 C 461.222656 365.703125 466 365.761719 468.984375 362.953125 C 487.617188 345.160156 512.042969 335.425781 537.78125 335.425781 C 592.960938 335.425781 637.867188 380.214844 637.867188 435.332031 C 637.867188 490.511719 592.960938 535.363281 537.78125 535.363281 C 532.882812 535.363281 528.40625 535.0625 524.105469 534.464844 C 520.042969 533.808594 516.164062 536.675781 515.566406 540.796875 C 514.96875 544.855469 517.835938 548.679688 521.957031 549.277344 C 526.972656 549.992188 532.167969 550.351562 537.78125 550.351562 C 601.261719 550.351562 652.796875 498.753906 652.796875 435.332031 C 652.796875 371.972656 601.261719 320.433594 537.78125 320.433594 " fill-opacity="1" fill-rule="nonzero"/><path fill="#39a7ff" d="M 133.191406 502.695312 C 134.203125 505.800781 137.132812 507.773438 140.296875 507.773438 C 141.074219 507.773438 141.910156 507.652344 142.683594 507.414062 L 150.746094 504.667969 L 153.613281 513.085938 C 154.6875 516.191406 157.554688 518.164062 160.71875 518.164062 C 161.496094 518.164062 162.332031 518.042969 163.109375 517.746094 C 166.988281 516.429688 169.140625 512.191406 167.765625 508.25 L 164.960938 499.828125 L 173.023438 497.140625 C 176.964844 495.769531 179.054688 491.527344 177.679688 487.648438 C 176.367188 483.707031 172.125 481.613281 168.242188 482.929688 L 160.121094 485.675781 L 157.316406 477.253906 C 156 473.3125 151.761719 471.222656 147.820312 472.539062 C 143.878906 473.851562 141.789062 478.152344 143.101562 482.035156 L 145.96875 490.453125 L 137.847656 493.199219 C 133.964844 494.515625 131.875 498.753906 133.191406 502.695312 " fill-opacity="1" fill-rule="nonzero"/><g clip-path="url(#225ac9c275)"><path fill="#39a7ff" d="M 74.246094 615.144531 L 65.886719 612.039062 L 68.871094 604.039062 C 70.367188 600.15625 68.394531 595.855469 64.511719 594.421875 C 60.691406 592.929688 56.332031 594.902344 54.898438 598.78125 L 51.851562 606.785156 L 43.550781 603.621094 C 39.671875 602.1875 35.371094 604.097656 33.9375 607.980469 C 32.445312 611.859375 34.414062 616.21875 38.296875 617.652344 L 46.597656 620.757812 L 43.613281 628.761719 C 42.117188 632.644531 44.089844 636.941406 47.972656 638.375 C 48.867188 638.734375 49.761719 638.914062 50.597656 638.914062 C 53.644531 638.914062 56.511719 637.0625 57.585938 634.015625 L 60.632812 626.074219 L 68.933594 629.179688 C 69.828125 629.539062 70.722656 629.65625 71.558594 629.65625 C 74.605469 629.65625 77.472656 627.804688 78.605469 624.820312 C 80.039062 620.9375 78.070312 616.636719 74.246094 615.144531 " fill-opacity="1" fill-rule="nonzero"/></g><g clip-path="url(#cbb80ce98b)"><path fill="#e0f4ff" d="M 772.605469 468.527344 L 726.941406 475.867188 C 725.214844 476.136719 723.703125 477.054688 722.679688 478.402344 C 711.558594 492.597656 704.8125 501.234375 693.585938 515.429688 C 692.558594 516.78125 692.019531 518.453125 692.183594 520.128906 L 695.851562 566.277344 L 646.195312 590.675781 L 612.027344 559.582031 C 610.785156 558.449219 609.003906 557.695312 607.382812 557.855469 C 599.882812 557.964844 593.730469 557.964844 587.792969 557.964844 L 497.703125 401.917969 L 503.15625 401.917969 C 517.191406 401.917969 528.6875 390.476562 528.6875 376.386719 L 528.6875 355.390625 C 528.6875 341.304688 517.191406 329.859375 503.15625 329.859375 L 496.515625 329.859375 L 496.515625 268.652344 C 496.515625 266.652344 496.355469 264.710938 496.246094 262.765625 C 509.417969 256.398438 519.078125 251.703125 533.273438 244.578125 C 534.785156 243.820312 535.972656 242.527344 536.566406 241.015625 L 553.300781 197.886719 C 572.894531 197.726562 579.855469 197.671875 593.621094 197.617188 L 604.847656 197.5625 C 606.035156 197.457031 607.332031 197.457031 608.679688 197.457031 L 626.007812 240.257812 C 626.652344 241.824219 627.839844 243.121094 629.351562 243.820312 C 644.414062 251 653.859375 255.425781 667.945312 262.011719 L 672.046875 263.953125 C 673.558594 264.65625 675.339844 264.820312 676.960938 264.277344 L 720.949219 250.515625 C 736.710938 269.890625 739.574219 273.402344 755.335938 292.832031 L 755.875 293.480469 L 733.042969 333.800781 C 732.230469 335.3125 732.015625 337.09375 732.394531 338.710938 L 733.257812 342.222656 C 737.035156 357.765625 739.574219 368.023438 743.296875 384.429688 C 743.730469 386.105469 744.699219 387.5625 746.15625 388.53125 L 784.589844 414.386719 Z M 243.90625 610.160156 L 423.109375 299.796875 L 602.3125 610.160156 Z M 206.015625 388.425781 C 199.324219 388.425781 193.871094 383.027344 193.871094 376.386719 L 193.871094 355.390625 C 193.871094 348.75 199.324219 343.355469 206.015625 343.355469 L 382.304688 343.355469 L 356.285156 388.425781 Z M 226.042969 268.652344 C 226.042969 220.558594 264.527344 181.425781 312.1875 180.238281 L 312.1875 235.132812 C 312.1875 238.855469 315.210938 241.878906 318.988281 241.878906 C 322.714844 241.878906 325.734375 238.855469 325.734375 235.132812 L 325.734375 152.925781 L 383.328125 152.925781 L 383.328125 235.132812 C 383.328125 238.855469 386.351562 241.878906 390.074219 241.878906 C 393.855469 241.878906 396.875 238.855469 396.875 235.132812 L 396.875 180.238281 C 444.539062 181.425781 483.023438 220.558594 483.023438 268.652344 L 483.023438 329.859375 L 456.089844 329.859375 L 428.9375 282.847656 C 427.75 280.796875 425.539062 279.5 423.109375 279.5 C 420.679688 279.5 418.46875 280.796875 417.226562 282.847656 L 390.128906 329.859375 L 226.042969 329.859375 Z M 463.863281 343.355469 L 503.15625 343.355469 C 509.742188 343.355469 515.140625 348.75 515.140625 355.390625 L 515.140625 376.386719 C 515.140625 383.027344 509.742188 388.425781 503.15625 388.425781 L 489.878906 388.425781 Z M 795.976562 405.75 L 755.929688 378.816406 C 752.472656 363.8125 750.042969 353.773438 746.429688 338.980469 L 746.15625 338.117188 L 769.90625 296.125 C 771.257812 293.695312 771.042969 290.726562 769.3125 288.566406 L 765.210938 283.546875 C 749.179688 263.738281 746.96875 260.984375 728.5625 238.425781 C 726.835938 236.265625 723.972656 235.402344 721.273438 236.265625 L 675.394531 250.570312 L 673.667969 249.757812 C 660.390625 243.550781 651.214844 239.234375 637.558594 232.757812 L 619.53125 188.117188 C 618.449219 185.582031 615.96875 183.90625 613.214844 183.90625 C 609.8125 183.90625 606.84375 183.90625 604.414062 184.015625 L 593.511719 184.070312 C 578.722656 184.179688 571.761719 184.179688 548.605469 184.394531 C 545.796875 184.449219 543.367188 186.121094 542.34375 188.710938 L 524.910156 233.621094 C 513.519531 239.339844 504.9375 243.550781 494.519531 248.570312 C 485.34375 202.582031 445.1875 167.769531 396.875 166.742188 L 396.875 146.179688 C 396.875 142.453125 393.855469 139.429688 390.074219 139.429688 L 318.988281 139.429688 C 315.210938 139.429688 312.1875 142.453125 312.1875 146.179688 L 312.1875 166.742188 C 257.023438 167.878906 212.492188 213.109375 212.492188 268.652344 L 212.492188 329.859375 L 206.015625 329.859375 C 191.820312 329.859375 180.324219 341.304688 180.324219 355.390625 L 180.324219 376.386719 C 180.324219 390.476562 191.820312 401.917969 206.015625 401.917969 L 348.515625 401.917969 L 226.3125 613.558594 C 225.125 615.609375 225.125 618.203125 226.3125 620.308594 C 227.5 622.414062 229.765625 623.707031 232.195312 623.707031 L 613.96875 623.707031 C 616.398438 623.707031 618.664062 622.414062 619.851562 620.308594 C 621.09375 618.203125 621.09375 615.609375 619.851562 613.558594 L 595.5625 571.457031 C 598.53125 571.457031 601.554688 571.457031 604.902344 571.40625 L 640.472656 603.789062 C 641.769531 604.976562 643.386719 605.570312 645.058594 605.570312 C 646.085938 605.570312 647.113281 605.300781 648.027344 604.871094 L 705.945312 576.425781 C 708.429688 575.183594 709.941406 572.59375 709.671875 569.839844 L 705.890625 521.691406 C 715.605469 509.386719 722.085938 501.179688 731.691406 488.820312 L 779.300781 481.15625 C 782.050781 480.722656 784.210938 478.671875 784.804688 475.921875 L 798.785156 412.820312 C 799.378906 410.070312 798.246094 407.261719 795.976562 405.75 " fill-opacity="1" fill-rule="nonzero"/></g><path fill="#e0f4ff" d="M 526.636719 115.359375 C 527.390625 115.359375 528.09375 115.25 528.847656 114.980469 L 536.136719 112.496094 L 538.726562 120.109375 C 539.644531 122.96875 542.289062 124.75 545.148438 124.75 C 545.851562 124.75 546.554688 124.589844 547.308594 124.371094 C 550.816406 123.183594 552.707031 119.351562 551.519531 115.789062 L 548.929688 108.179688 L 556.269531 105.695312 C 559.777344 104.507812 561.71875 100.675781 560.480469 97.113281 C 559.292969 93.605469 555.460938 91.664062 551.898438 92.902344 L 544.609375 95.332031 L 542.019531 87.722656 C 540.886719 84.214844 537 82.269531 533.4375 83.511719 C 529.929688 84.699219 528.039062 88.53125 529.226562 92.09375 L 531.816406 99.703125 L 524.476562 102.1875 C 520.96875 103.375 519.023438 107.207031 520.265625 110.714844 C 521.183594 113.578125 523.828125 115.359375 526.636719 115.359375 " fill-opacity="1" fill-rule="nonzero"/><path fill="#e0f4ff" d="M 460.191406 113.46875 C 461.539062 111.957031 463.375 111.203125 465.265625 111.203125 C 466.882812 111.203125 468.503906 111.742188 469.746094 112.929688 C 472.550781 115.410156 472.765625 119.675781 470.285156 122.484375 C 469.097656 123.832031 467.425781 124.589844 465.644531 124.695312 C 464.078125 124.859375 462.082031 124.210938 460.785156 123.023438 C 457.976562 120.539062 457.707031 116.222656 460.191406 113.46875 Z M 465.210938 138.242188 C 465.644531 138.242188 466.019531 138.242188 466.398438 138.242188 C 471.851562 137.921875 476.761719 135.546875 480.378906 131.441406 C 487.828125 123.128906 487.125 110.230469 478.757812 102.835938 C 470.445312 95.386719 457.546875 96.089844 450.097656 104.453125 C 442.648438 112.820312 443.40625 125.667969 451.714844 133.117188 C 455.496094 136.460938 460.246094 138.242188 465.210938 138.242188 " fill-opacity="1" fill-rule="nonzero"/><g clip-path="url(#fd729fdbc8)"><path fill="#e0f4ff" d="M 666.328125 557.851562 L 620.664062 565.191406 C 618.9375 565.464844 617.425781 566.378906 616.402344 567.730469 C 605.28125 581.925781 598.535156 590.5625 587.308594 604.757812 C 586.28125 606.105469 585.742188 607.78125 585.90625 609.453125 L 589.574219 655.601562 L 539.917969 680 L 505.75 648.910156 C 504.507812 647.777344 502.726562 647.019531 501.109375 647.183594 C 493.605469 647.292969 487.453125 647.292969 481.515625 647.292969 L 391.425781 491.246094 L 396.878906 491.246094 C 410.914062 491.246094 422.410156 479.800781 422.410156 465.714844 L 422.410156 444.71875 C 422.410156 430.628906 410.914062 419.1875 396.878906 419.1875 L 390.238281 419.1875 L 390.238281 357.976562 C 390.238281 355.980469 390.078125 354.039062 389.96875 352.09375 C 403.140625 345.726562 412.800781 341.027344 426.996094 333.902344 C 428.507812 333.148438 429.695312 331.851562 430.289062 330.339844 L 447.023438 287.214844 C 466.617188 287.050781 473.578125 287 487.34375 286.945312 L 498.570312 286.890625 C 499.757812 286.78125 501.054688 286.78125 502.402344 286.78125 L 519.730469 329.585938 C 520.378906 331.152344 521.566406 332.445312 523.074219 333.148438 C 538.136719 340.328125 547.582031 344.753906 561.667969 351.339844 L 565.769531 353.28125 C 567.28125 353.984375 569.0625 354.144531 570.683594 353.605469 L 614.671875 339.839844 C 630.433594 359.21875 633.296875 362.726562 649.058594 382.160156 L 649.597656 382.808594 L 626.765625 423.128906 C 625.953125 424.636719 625.738281 426.417969 626.117188 428.039062 L 626.980469 431.546875 C 630.757812 447.09375 633.296875 457.347656 637.019531 473.757812 C 637.453125 475.429688 638.421875 476.886719 639.878906 477.859375 L 678.3125 503.714844 Z M 137.628906 699.484375 L 316.832031 389.121094 L 496.035156 699.484375 Z M 99.738281 477.75 C 93.046875 477.75 87.59375 472.355469 87.59375 465.714844 L 87.59375 444.71875 C 87.59375 438.078125 93.046875 432.679688 99.738281 432.679688 L 276.027344 432.679688 L 250.007812 477.75 Z M 119.765625 357.976562 C 119.765625 309.882812 158.25 270.75 205.910156 269.5625 L 205.910156 324.457031 C 205.910156 328.183594 208.933594 331.207031 212.710938 331.207031 C 216.4375 331.207031 219.457031 328.183594 219.457031 324.457031 L 219.457031 242.253906 L 277.050781 242.253906 L 277.050781 324.457031 C 277.050781 328.183594 280.074219 331.207031 283.796875 331.207031 C 287.578125 331.207031 290.597656 328.183594 290.597656 324.457031 L 290.597656 269.5625 C 338.261719 270.75 376.746094 309.882812 376.746094 357.976562 L 376.746094 419.1875 L 349.8125 419.1875 L 322.660156 372.171875 C 321.472656 370.121094 319.261719 368.828125 316.832031 368.828125 C 314.402344 368.828125 312.191406 370.121094 310.949219 372.171875 L 283.851562 419.1875 L 119.765625 419.1875 Z M 357.585938 432.679688 L 396.878906 432.679688 C 403.464844 432.679688 408.863281 438.078125 408.863281 444.71875 L 408.863281 465.714844 C 408.863281 472.355469 403.464844 477.75 396.878906 477.75 L 383.601562 477.75 Z M 689.699219 495.078125 L 649.652344 468.144531 C 646.195312 453.136719 643.765625 443.097656 640.152344 428.308594 L 639.878906 427.445312 L 663.628906 385.453125 C 664.980469 383.023438 664.765625 380.054688 663.035156 377.894531 L 658.933594 372.875 C 642.902344 353.066406 640.691406 350.3125 622.285156 327.75 C 620.558594 325.589844 617.695312 324.726562 614.996094 325.589844 L 569.117188 339.894531 L 567.390625 339.085938 C 554.113281 332.878906 544.9375 328.558594 531.28125 322.082031 L 513.253906 277.445312 C 512.171875 274.90625 509.691406 273.234375 506.9375 273.234375 C 503.535156 273.234375 500.566406 273.234375 498.140625 273.34375 L 487.234375 273.398438 C 472.445312 273.503906 465.484375 273.503906 442.328125 273.71875 C 439.519531 273.773438 437.089844 275.449219 436.066406 278.039062 L 418.632812 322.945312 C 407.242188 328.667969 398.660156 332.878906 388.242188 337.898438 C 379.066406 291.910156 338.910156 257.09375 290.597656 256.070312 L 290.597656 235.503906 C 290.597656 231.78125 287.578125 228.757812 283.796875 228.757812 L 212.710938 228.757812 C 208.933594 228.757812 205.910156 231.78125 205.910156 235.503906 L 205.910156 256.070312 C 150.746094 257.203125 106.214844 302.4375 106.214844 357.976562 L 106.214844 419.1875 L 99.738281 419.1875 C 85.542969 419.1875 74.046875 430.628906 74.046875 444.71875 L 74.046875 465.714844 C 74.046875 479.800781 85.542969 491.246094 99.738281 491.246094 L 242.238281 491.246094 L 120.035156 702.886719 C 118.847656 704.9375 118.847656 707.527344 120.035156 709.632812 C 121.222656 711.738281 123.488281 713.035156 125.917969 713.035156 L 507.691406 713.035156 C 510.121094 713.035156 512.386719 711.738281 513.574219 709.632812 C 514.816406 707.527344 514.816406 704.9375 513.574219 702.886719 L 489.285156 660.785156 C 492.253906 660.785156 495.277344 660.785156 498.625 660.730469 L 534.195312 693.117188 C 535.492188 694.304688 537.109375 694.898438 538.78125 694.898438 C 539.808594 694.898438 540.835938 694.628906 541.75 694.195312 L 599.667969 665.75 C 602.152344 664.507812 603.664062 661.917969 603.394531 659.164062 L 599.613281 611.019531 C 609.332031 598.710938 615.808594 590.507812 625.414062 578.148438 L 673.023438 570.484375 C 675.773438 570.050781 677.933594 568 678.527344 565.246094 L 692.507812 502.148438 C 693.101562 499.394531 691.96875 496.589844 689.699219 495.078125 " fill-opacity="1" fill-rule="nonzero"/></g><path fill="#e0f4ff" d="M 66.21875 648.480469 L 58.664062 645.671875 L 61.363281 638.4375 C 62.710938 634.929688 60.929688 631.042969 57.421875 629.75 C 53.96875 628.398438 50.027344 630.179688 48.730469 633.6875 L 45.976562 640.921875 L 38.476562 638.0625 C 34.96875 636.765625 31.082031 638.492188 29.785156 642 C 28.4375 645.511719 30.21875 649.449219 33.726562 650.746094 L 41.226562 653.550781 L 38.53125 660.785156 C 37.179688 664.292969 38.960938 668.179688 42.46875 669.476562 C 43.28125 669.800781 44.089844 669.960938 44.84375 669.960938 C 47.597656 669.960938 50.1875 668.289062 51.160156 665.535156 L 53.914062 658.355469 L 61.414062 661.164062 C 62.226562 661.488281 63.035156 661.59375 63.789062 661.59375 C 66.542969 661.59375 69.132812 659.921875 70.160156 657.222656 C 71.457031 653.714844 69.675781 649.828125 66.21875 648.480469 " fill-opacity="1" fill-rule="nonzero"/><path fill="#e0f4ff" d="M 27.464844 530.648438 C 26.222656 532.050781 24.496094 532.859375 22.660156 532.96875 C 20.933594 533.023438 19.042969 532.429688 17.640625 531.1875 C 16.238281 529.945312 15.425781 528.273438 15.320312 526.382812 C 15.210938 524.546875 15.859375 522.765625 17.046875 521.363281 C 18.449219 519.851562 20.339844 519.042969 22.28125 519.042969 C 23.902344 519.042969 25.574219 519.636719 26.925781 520.824219 C 28.273438 522.066406 29.082031 523.738281 29.191406 525.628906 C 29.300781 527.464844 28.707031 529.246094 27.464844 530.648438 Z M 42.738281 524.820312 C 42.414062 519.367188 39.988281 514.347656 35.886719 510.730469 C 27.519531 503.175781 14.511719 503.875 6.953125 512.351562 C 3.335938 516.453125 1.5 521.6875 1.824219 527.140625 C 2.09375 532.644531 4.523438 537.664062 8.625 541.28125 C 12.40625 544.683594 17.207031 546.515625 22.230469 546.515625 C 22.660156 546.515625 23.039062 546.464844 23.46875 546.464844 C 28.921875 546.140625 33.886719 543.710938 37.558594 539.664062 C 41.226562 535.558594 43.0625 530.324219 42.738281 524.820312 " fill-opacity="1" fill-rule="nonzero"/><g clip-path="url(#282dbc5dc2)"><g clip-path="url(#7e271540c8)"><path fill="#e0f4ff" d="M 149.699219 329.648438 L 552.453125 329.648438 L 552.453125 674.484375 L 149.699219 674.484375 Z M 149.699219 329.648438 " fill-opacity="1" fill-rule="nonzero"/></g></g><g clip-path="url(#c11b1eea97)"><path fill="#e0f4ff" d="M 862.867188 518.957031 L 801.617188 528.804688 C 799.296875 529.164062 797.269531 530.394531 795.894531 532.207031 C 780.980469 551.246094 771.929688 562.832031 756.871094 581.871094 C 755.496094 583.683594 754.773438 585.925781 754.988281 588.171875 L 759.914062 650.074219 L 693.304688 682.796875 L 647.476562 641.097656 C 645.808594 639.574219 643.421875 638.5625 641.25 638.78125 C 631.183594 638.925781 622.933594 638.925781 614.96875 638.925781 L 494.132812 429.613281 L 501.445312 429.613281 C 520.269531 429.613281 535.6875 414.265625 535.6875 395.371094 L 535.6875 367.207031 C 535.6875 348.308594 520.269531 332.960938 501.445312 332.960938 L 492.539062 332.960938 L 492.539062 250.859375 C 492.539062 248.179688 492.320312 245.574219 492.175781 242.96875 C 509.84375 234.425781 522.800781 228.125 541.84375 218.570312 C 543.871094 217.554688 545.464844 215.816406 546.261719 213.789062 L 568.703125 155.941406 C 594.984375 155.726562 604.324219 155.652344 622.785156 155.582031 L 637.847656 155.507812 C 639.4375 155.363281 641.175781 155.363281 642.988281 155.363281 L 666.226562 212.777344 C 667.097656 214.875 668.6875 216.613281 670.714844 217.554688 C 690.914062 227.183594 703.585938 233.121094 722.480469 241.953125 L 727.984375 244.558594 C 730.011719 245.5 732.402344 245.71875 734.574219 244.996094 L 793.578125 226.53125 C 814.71875 252.523438 818.558594 257.230469 839.699219 283.292969 L 840.421875 284.164062 L 809.796875 338.246094 C 808.710938 340.273438 808.421875 342.664062 808.929688 344.835938 L 810.085938 349.539062 C 815.15625 370.390625 818.558594 384.148438 823.550781 406.15625 C 824.132812 408.402344 825.433594 410.355469 827.390625 411.660156 L 878.9375 446.339844 Z M 153.707031 708.933594 L 394.074219 292.632812 L 634.441406 708.933594 Z M 102.882812 411.515625 C 93.902344 411.515625 86.589844 404.273438 86.589844 395.371094 L 86.589844 367.207031 C 86.589844 358.300781 93.902344 351.0625 102.882812 351.0625 L 339.339844 351.0625 L 304.441406 411.515625 Z M 129.742188 250.859375 C 129.742188 186.351562 181.363281 133.859375 245.292969 132.265625 L 245.292969 205.898438 C 245.292969 210.894531 249.347656 214.949219 254.414062 214.949219 C 259.410156 214.949219 263.464844 210.894531 263.464844 205.898438 L 263.464844 95.632812 L 340.714844 95.632812 L 340.714844 205.898438 C 340.714844 210.894531 344.769531 214.949219 349.765625 214.949219 C 354.832031 214.949219 358.886719 210.894531 358.886719 205.898438 L 358.886719 132.265625 C 422.816406 133.859375 474.4375 186.351562 474.4375 250.859375 L 474.4375 332.960938 L 438.3125 332.960938 L 401.894531 269.898438 C 400.300781 267.148438 397.332031 265.410156 394.074219 265.410156 C 390.816406 265.410156 387.847656 267.148438 386.183594 269.898438 L 349.839844 332.960938 L 129.742188 332.960938 Z M 448.738281 351.0625 L 501.445312 351.0625 C 510.277344 351.0625 517.515625 358.300781 517.515625 367.207031 L 517.515625 395.371094 C 517.515625 404.273438 510.277344 411.515625 501.445312 411.515625 L 483.632812 411.515625 Z M 894.214844 434.753906 L 840.496094 398.628906 C 835.859375 378.5 832.601562 365.035156 827.75 345.195312 L 827.390625 344.039062 L 859.246094 287.710938 C 861.054688 284.453125 860.765625 280.472656 858.449219 277.574219 L 852.945312 270.839844 C 831.445312 244.269531 828.476562 240.578125 803.789062 210.316406 C 801.46875 207.417969 797.632812 206.261719 794.011719 207.417969 L 732.472656 226.605469 L 730.15625 225.519531 C 712.347656 217.191406 700.039062 211.402344 681.722656 202.710938 L 657.539062 142.839844 C 656.089844 139.433594 652.761719 137.191406 649.066406 137.191406 C 644.507812 137.191406 640.523438 137.191406 637.265625 137.335938 L 622.640625 137.40625 C 602.804688 137.550781 593.464844 137.550781 562.40625 137.84375 C 558.640625 137.914062 555.382812 140.160156 554.007812 143.632812 L 530.621094 203.871094 C 515.34375 211.546875 503.832031 217.191406 489.859375 223.925781 C 477.550781 162.242188 423.6875 115.542969 358.886719 114.167969 L 358.886719 86.582031 C 358.886719 81.585938 354.832031 77.53125 349.765625 77.53125 L 254.414062 77.53125 C 249.347656 77.53125 245.292969 81.585938 245.292969 86.582031 L 245.292969 114.167969 C 171.300781 115.6875 111.570312 176.359375 111.570312 250.859375 L 111.570312 332.960938 L 102.882812 332.960938 C 83.839844 332.960938 68.417969 348.308594 68.417969 367.207031 L 68.417969 395.371094 C 68.417969 414.265625 83.839844 429.613281 102.882812 429.613281 L 294.015625 429.613281 L 130.101562 713.496094 C 128.511719 716.246094 128.511719 719.722656 130.101562 722.546875 C 131.695312 725.371094 134.738281 727.109375 137.996094 727.109375 L 650.082031 727.109375 C 653.339844 727.109375 656.378906 725.371094 657.972656 722.546875 C 659.636719 719.722656 659.636719 716.246094 657.972656 713.496094 L 625.394531 657.023438 C 629.375 657.023438 633.429688 657.023438 637.917969 656.953125 L 685.628906 700.390625 C 687.367188 701.984375 689.539062 702.78125 691.785156 702.78125 C 693.160156 702.78125 694.535156 702.417969 695.765625 701.839844 L 773.453125 663.683594 C 776.78125 662.019531 778.808594 658.542969 778.449219 654.851562 L 773.378906 590.269531 C 786.410156 573.765625 795.097656 562.757812 807.988281 546.179688 L 871.84375 535.898438 C 875.535156 535.320312 878.433594 532.566406 879.226562 528.875 L 897.980469 444.238281 C 898.777344 440.546875 897.257812 436.78125 894.214844 434.753906 " fill-opacity="1" fill-rule="nonzero"/></g><path fill="#e0f4ff" d="M 129.378906 504.1875 C 130.609375 507.953125 134.15625 510.339844 137.996094 510.339844 C 138.9375 510.339844 139.949219 510.195312 140.890625 509.90625 L 150.664062 506.578125 L 154.140625 516.785156 C 155.445312 520.550781 158.917969 522.9375 162.757812 522.9375 C 163.695312 522.9375 164.710938 522.792969 165.652344 522.433594 C 170.359375 520.839844 172.964844 515.699219 171.300781 510.921875 L 167.894531 500.710938 L 177.671875 497.453125 C 182.449219 495.789062 184.984375 490.648438 183.316406 485.941406 C 181.726562 481.164062 176.585938 478.628906 171.878906 480.222656 L 162.03125 483.554688 L 158.628906 473.34375 C 157.035156 468.566406 151.894531 466.03125 147.117188 467.625 C 142.339844 469.21875 139.804688 474.429688 141.398438 479.136719 L 144.875 489.34375 L 135.027344 492.675781 C 130.320312 494.269531 127.785156 499.410156 129.378906 504.1875 " fill-opacity="1" fill-rule="nonzero"/><path fill="#39a7ff" d="M 341.894531 425.484375 L 341.894531 579.4375 C 341.894531 583.558594 345.296875 586.902344 349.417969 586.902344 C 353.539062 586.902344 356.882812 583.558594 356.882812 579.4375 L 356.882812 425.484375 C 356.882812 421.363281 353.539062 418.019531 349.417969 418.019531 C 345.296875 418.019531 341.894531 421.363281 341.894531 425.484375 " fill-opacity="1" fill-rule="nonzero"/><path fill="#39a7ff" d="M 336.578125 615.269531 C 336.578125 622.375 342.3125 628.109375 349.417969 628.109375 C 356.464844 628.109375 362.199219 622.375 362.199219 615.269531 C 362.199219 608.222656 356.464844 602.488281 349.417969 602.488281 C 342.3125 602.488281 336.578125 608.222656 336.578125 615.269531 " fill-opacity="1" fill-rule="nonzero"/><g clip-path="url(#380330f842)"><path fill="#39a7ff" d="M 736.09375 506.640625 L 685.574219 514.765625 C 683.664062 515.0625 681.988281 516.078125 680.855469 517.570312 C 668.554688 533.277344 661.089844 542.832031 648.667969 558.539062 C 647.53125 560.03125 646.933594 561.882812 647.113281 563.734375 L 651.175781 614.792969 L 596.234375 641.785156 L 558.433594 607.386719 C 557.058594 606.132812 555.089844 605.296875 553.296875 605.476562 C 544.996094 605.59375 538.1875 605.59375 531.621094 605.59375 L 431.949219 432.949219 L 437.980469 432.949219 C 453.507812 432.949219 466.226562 420.289062 466.226562 404.703125 L 466.226562 381.472656 C 466.226562 365.886719 453.507812 353.226562 437.980469 353.226562 L 430.636719 353.226562 L 430.636719 285.503906 C 430.636719 283.296875 430.457031 281.144531 430.335938 278.996094 C 444.910156 271.949219 455.597656 266.753906 471.304688 258.871094 C 472.976562 258.035156 474.289062 256.601562 474.945312 254.929688 L 493.460938 207.214844 C 515.136719 207.035156 522.839844 206.976562 538.070312 206.914062 L 550.492188 206.855469 C 551.804688 206.738281 553.238281 206.738281 554.730469 206.738281 L 573.898438 254.09375 C 574.617188 255.824219 575.929688 257.257812 577.601562 258.035156 C 594.265625 265.976562 604.714844 270.875 620.300781 278.160156 L 624.839844 280.308594 C 626.511719 281.085938 628.484375 281.265625 630.273438 280.667969 L 678.945312 265.441406 C 696.382812 286.878906 699.546875 290.761719 716.984375 312.257812 L 717.582031 312.976562 L 692.320312 357.585938 C 691.425781 359.257812 691.1875 361.226562 691.605469 363.019531 L 692.558594 366.902344 C 696.742188 384.101562 699.546875 395.445312 703.667969 413.601562 C 704.144531 415.453125 705.21875 417.066406 706.832031 418.140625 L 749.351562 446.746094 Z M 151.152344 663.34375 L 349.417969 319.960938 L 547.683594 663.34375 Z M 109.230469 418.019531 C 101.828125 418.019531 95.796875 412.046875 95.796875 404.703125 L 95.796875 381.472656 C 95.796875 374.128906 101.828125 368.15625 109.230469 368.15625 L 304.273438 368.15625 L 275.488281 418.019531 Z M 131.386719 285.503906 C 131.386719 232.296875 173.964844 189 226.699219 187.6875 L 226.699219 248.421875 C 226.699219 252.539062 230.042969 255.886719 234.222656 255.886719 C 238.34375 255.886719 241.6875 252.539062 241.6875 248.421875 L 241.6875 157.46875 L 305.40625 157.46875 L 305.40625 248.421875 C 305.40625 252.539062 308.75 255.886719 312.871094 255.886719 C 317.050781 255.886719 320.394531 252.539062 320.394531 248.421875 L 320.394531 187.6875 C 373.128906 189 415.707031 232.296875 415.707031 285.503906 L 415.707031 353.226562 L 385.90625 353.226562 L 355.867188 301.210938 C 354.554688 298.941406 352.105469 297.507812 349.417969 297.507812 C 346.730469 297.507812 344.28125 298.941406 342.910156 301.210938 L 312.929688 353.226562 L 131.386719 353.226562 Z M 394.507812 368.15625 L 437.980469 368.15625 C 445.265625 368.15625 451.238281 374.128906 451.238281 381.472656 L 451.238281 404.703125 C 451.238281 412.046875 445.265625 418.019531 437.980469 418.019531 L 423.289062 418.019531 Z M 761.953125 437.191406 L 717.640625 407.390625 C 713.820312 390.789062 711.132812 379.679688 707.132812 363.316406 L 706.832031 362.363281 L 733.109375 315.902344 C 734.601562 313.214844 734.363281 309.929688 732.453125 307.542969 L 727.914062 301.988281 C 710.175781 280.070312 707.730469 277.023438 687.363281 252.0625 C 685.453125 249.675781 682.289062 248.71875 679.300781 249.675781 L 628.542969 265.5 L 626.632812 264.605469 C 611.941406 257.734375 601.789062 252.957031 586.679688 245.792969 L 566.734375 196.40625 C 565.539062 193.597656 562.792969 191.746094 559.746094 191.746094 C 555.984375 191.746094 552.699219 191.746094 550.011719 191.867188 L 537.949219 191.925781 C 521.585938 192.046875 513.882812 192.046875 488.265625 192.285156 C 485.160156 192.34375 482.472656 194.195312 481.335938 197.0625 L 462.046875 246.746094 C 449.445312 253.078125 439.953125 257.734375 428.425781 263.289062 C 418.273438 212.410156 373.84375 173.890625 320.394531 172.757812 L 320.394531 150.003906 C 320.394531 145.882812 317.050781 142.539062 312.871094 142.539062 L 234.222656 142.539062 C 230.042969 142.539062 226.699219 145.882812 226.699219 150.003906 L 226.699219 172.757812 C 165.664062 174.011719 116.398438 224.054688 116.398438 285.503906 L 116.398438 353.226562 L 109.230469 353.226562 C 93.527344 353.226562 80.804688 365.886719 80.804688 381.472656 L 80.804688 404.703125 C 80.804688 420.289062 93.527344 432.949219 109.230469 432.949219 L 266.886719 432.949219 L 131.6875 667.105469 C 130.371094 669.375 130.371094 672.242188 131.6875 674.570312 C 133 676.898438 135.507812 678.332031 138.195312 678.332031 L 560.582031 678.332031 C 563.269531 678.332031 565.777344 676.898438 567.09375 674.570312 C 568.464844 672.242188 568.464844 669.375 567.09375 667.105469 L 540.21875 620.523438 C 543.503906 620.523438 546.847656 620.523438 550.550781 620.464844 L 589.90625 656.296875 C 591.335938 657.609375 593.128906 658.265625 594.980469 658.265625 C 596.113281 658.265625 597.25 657.96875 598.265625 657.492188 L 662.34375 626.019531 C 665.089844 624.644531 666.761719 621.777344 666.464844 618.734375 L 662.28125 565.464844 C 673.03125 551.847656 680.199219 542.773438 690.828125 529.097656 L 743.5 520.617188 C 746.546875 520.136719 748.933594 517.867188 749.589844 514.824219 L 765.058594 445.011719 C 765.714844 441.96875 764.460938 438.863281 761.953125 437.191406 " fill-opacity="1" fill-rule="nonzero"/></g></svg>