<svg xmlns="http://www.w3.org/2000/svg" xmlns:xlink="http://www.w3.org/1999/xlink" width="1024" zoomAndPan="magnify" viewBox="0 0 768 767.999994" height="1024" preserveAspectRatio="xMidYMid meet" version="1.0"><defs><clipPath id="7126d983de"><path d="M 0 127.292969 L 620 127.292969 L 620 725.792969 L 0 725.792969 Z M 0 127.292969 " clip-rule="nonzero"/></clipPath><clipPath id="8e11490810"><path d="M 73.855469 173.058594 L 278.605469 173.058594 L 278.605469 689.058594 L 73.855469 689.058594 Z M 73.855469 173.058594 " clip-rule="nonzero"/></clipPath><clipPath id="6327d22684"><path d="M 333.402344 350.257812 L 545.652344 350.257812 L 545.652344 678.007812 L 333.402344 678.007812 Z M 333.402344 350.257812 " clip-rule="nonzero"/></clipPath></defs><g clip-path="url(#7126d983de)"><path fill="#e0f4ff" d="M 609.945312 705.917969 L 582.160156 705.917969 L 582.160156 314.492188 C 582.160156 308.992188 577.699219 304.527344 572.199219 304.527344 L 319.964844 304.527344 L 319.964844 137.257812 C 319.964844 131.753906 315.503906 127.292969 310.003906 127.292969 L 47.792969 127.292969 C 42.289062 127.292969 37.828125 131.753906 37.828125 137.257812 L 37.828125 705.917969 L 10.058594 705.917969 C 4.558594 705.917969 0.0976562 710.378906 0.0976562 715.878906 C 0.0976562 721.382812 4.558594 725.84375 10.058594 725.84375 L 609.960938 725.84375 C 615.460938 725.84375 619.921875 721.382812 619.921875 715.878906 C 619.90625 710.378906 615.445312 705.917969 609.945312 705.917969 Z M 57.753906 147.21875 L 300.039062 147.21875 L 300.039062 705.933594 L 57.753906 705.933594 Z M 319.964844 705.917969 L 319.964844 324.453125 L 562.25 324.453125 L 562.25 705.917969 Z M 154.507812 596.039062 L 106.90625 596.039062 C 101.40625 596.039062 96.941406 600.503906 96.941406 606.003906 L 96.941406 657.277344 C 96.941406 662.777344 101.40625 667.242188 106.90625 667.242188 L 154.507812 667.242188 C 160.007812 667.242188 164.46875 662.777344 164.46875 657.277344 L 164.46875 606.003906 C 164.46875 600.503906 160.007812 596.039062 154.507812 596.039062 Z M 144.542969 647.3125 L 116.867188 647.3125 L 116.867188 615.96875 L 144.542969 615.96875 Z M 154.507812 185.894531 L 106.90625 185.894531 C 101.40625 185.894531 96.941406 190.359375 96.941406 195.859375 L 96.941406 247.132812 C 96.941406 252.632812 101.40625 257.097656 106.90625 257.097656 L 154.507812 257.097656 C 160.007812 257.097656 164.46875 252.632812 164.46875 247.132812 L 164.46875 195.859375 C 164.46875 190.359375 160.007812 185.894531 154.507812 185.894531 Z M 144.542969 237.167969 L 116.867188 237.167969 L 116.867188 205.824219 L 144.542969 205.824219 Z M 250.902344 390.976562 L 203.300781 390.976562 C 197.800781 390.976562 193.339844 395.4375 193.339844 400.9375 L 193.339844 452.214844 C 193.339844 457.714844 197.800781 462.175781 203.300781 462.175781 L 250.902344 462.175781 C 256.402344 462.175781 260.867188 457.714844 260.867188 452.214844 L 260.867188 400.9375 C 260.867188 395.4375 256.402344 390.976562 250.902344 390.976562 Z M 240.941406 442.234375 L 213.265625 442.234375 L 213.265625 410.886719 L 240.941406 410.886719 Z M 154.507812 288.429688 L 106.90625 288.429688 C 101.40625 288.429688 96.941406 292.890625 96.941406 298.390625 L 96.941406 349.664062 C 96.941406 355.167969 101.40625 359.628906 106.90625 359.628906 L 154.507812 359.628906 C 160.007812 359.628906 164.46875 355.167969 164.46875 349.664062 L 164.46875 298.390625 C 164.46875 292.890625 160.007812 288.429688 154.507812 288.429688 Z M 144.542969 339.703125 L 116.867188 339.703125 L 116.867188 308.355469 L 144.542969 308.355469 Z M 154.507812 493.507812 L 106.90625 493.507812 C 101.40625 493.507812 96.941406 497.96875 96.941406 503.472656 L 96.941406 554.746094 C 96.941406 560.246094 101.40625 564.707031 106.90625 564.707031 L 154.507812 564.707031 C 160.007812 564.707031 164.46875 560.246094 164.46875 554.746094 L 164.46875 503.472656 C 164.46875 497.96875 160.007812 493.507812 154.507812 493.507812 Z M 144.542969 544.78125 L 116.867188 544.78125 L 116.867188 513.433594 L 144.542969 513.433594 Z M 154.507812 390.976562 L 106.90625 390.976562 C 101.40625 390.976562 96.941406 395.4375 96.941406 400.9375 L 96.941406 452.214844 C 96.941406 457.714844 101.40625 462.175781 106.90625 462.175781 L 154.507812 462.175781 C 160.007812 462.175781 164.46875 457.714844 164.46875 452.214844 L 164.46875 400.9375 C 164.46875 395.4375 160.007812 390.976562 154.507812 390.976562 Z M 144.542969 442.234375 L 116.867188 442.234375 L 116.867188 410.886719 L 144.542969 410.886719 Z M 250.902344 493.507812 L 203.300781 493.507812 C 197.800781 493.507812 193.339844 497.96875 193.339844 503.472656 L 193.339844 554.746094 C 193.339844 560.246094 197.800781 564.707031 203.300781 564.707031 L 250.902344 564.707031 C 256.402344 564.707031 260.867188 560.246094 260.867188 554.746094 L 260.867188 503.472656 C 260.867188 497.96875 256.402344 493.507812 250.902344 493.507812 Z M 240.941406 544.78125 L 213.265625 544.78125 L 213.265625 513.433594 L 240.941406 513.433594 Z M 250.902344 288.429688 L 203.300781 288.429688 C 197.800781 288.429688 193.339844 292.890625 193.339844 298.390625 L 193.339844 349.664062 C 193.339844 355.167969 197.800781 359.628906 203.300781 359.628906 L 250.902344 359.628906 C 256.402344 359.628906 260.867188 355.167969 260.867188 349.664062 L 260.867188 298.390625 C 260.867188 292.890625 256.402344 288.429688 250.902344 288.429688 Z M 240.941406 339.703125 L 213.265625 339.703125 L 213.265625 308.355469 L 240.941406 308.355469 Z M 250.902344 185.894531 L 203.300781 185.894531 C 197.800781 185.894531 193.339844 190.359375 193.339844 195.859375 L 193.339844 247.132812 C 193.339844 252.632812 197.800781 257.097656 203.300781 257.097656 L 250.902344 257.097656 C 256.402344 257.097656 260.867188 252.632812 260.867188 247.132812 L 260.867188 195.859375 C 260.867188 190.359375 256.402344 185.894531 250.902344 185.894531 Z M 240.941406 237.167969 L 213.265625 237.167969 L 213.265625 205.824219 L 240.941406 205.824219 Z M 250.902344 596.039062 L 203.300781 596.039062 C 197.800781 596.039062 193.339844 600.503906 193.339844 606.003906 L 193.339844 657.277344 C 193.339844 662.777344 197.800781 667.242188 203.300781 667.242188 L 250.902344 667.242188 C 256.402344 667.242188 260.867188 662.777344 260.867188 657.277344 L 260.867188 606.003906 C 260.867188 600.503906 256.402344 596.039062 250.902344 596.039062 Z M 240.941406 647.3125 L 213.265625 647.3125 L 213.265625 615.96875 L 240.941406 615.96875 Z M 513.097656 479.59375 L 465.496094 479.59375 C 459.996094 479.59375 455.535156 484.054688 455.535156 489.554688 L 455.535156 540.832031 C 455.535156 546.332031 459.996094 550.792969 465.496094 550.792969 L 513.097656 550.792969 C 518.597656 550.792969 523.0625 546.332031 523.0625 540.832031 L 523.0625 489.554688 C 523.0625 484.054688 518.597656 479.59375 513.097656 479.59375 Z M 503.136719 530.867188 L 475.460938 530.867188 L 475.460938 499.519531 L 503.136719 499.519531 Z M 513.097656 377.0625 L 465.496094 377.0625 C 459.996094 377.0625 455.535156 381.523438 455.535156 387.023438 L 455.535156 438.296875 C 455.535156 443.800781 459.996094 448.261719 465.496094 448.261719 L 513.097656 448.261719 C 518.597656 448.261719 523.0625 443.800781 523.0625 438.296875 L 523.0625 387.023438 C 523.0625 381.523438 518.597656 377.0625 513.097656 377.0625 Z M 503.136719 428.320312 L 475.460938 428.320312 L 475.460938 396.972656 L 503.136719 396.972656 Z M 513.097656 582.125 L 465.496094 582.125 C 459.996094 582.125 455.535156 586.589844 455.535156 592.089844 L 455.535156 643.363281 C 455.535156 648.863281 459.996094 653.324219 465.496094 653.324219 L 513.097656 653.324219 C 518.597656 653.324219 523.0625 648.863281 523.0625 643.363281 L 523.0625 592.089844 C 523.0625 586.589844 518.597656 582.125 513.097656 582.125 Z M 503.136719 633.398438 L 475.460938 633.398438 L 475.460938 602.050781 L 503.136719 602.050781 Z M 416.71875 582.125 L 369.117188 582.125 C 363.617188 582.125 359.152344 586.589844 359.152344 592.089844 L 359.152344 643.363281 C 359.152344 648.863281 363.617188 653.324219 369.117188 653.324219 L 416.71875 653.324219 C 422.21875 653.324219 426.679688 648.863281 426.679688 643.363281 L 426.679688 592.089844 C 426.679688 586.589844 422.21875 582.125 416.71875 582.125 Z M 406.753906 633.398438 L 379.078125 633.398438 L 379.078125 602.050781 L 406.753906 602.050781 Z M 416.71875 479.59375 L 369.117188 479.59375 C 363.617188 479.59375 359.152344 484.054688 359.152344 489.554688 L 359.152344 540.832031 C 359.152344 546.332031 363.617188 550.792969 369.117188 550.792969 L 416.71875 550.792969 C 422.21875 550.792969 426.679688 546.332031 426.679688 540.832031 L 426.679688 489.554688 C 426.679688 484.054688 422.21875 479.59375 416.71875 479.59375 Z M 406.753906 530.867188 L 379.078125 530.867188 L 379.078125 499.519531 L 406.753906 499.519531 Z M 416.71875 377.0625 L 369.117188 377.0625 C 363.617188 377.0625 359.152344 381.523438 359.152344 387.023438 L 359.152344 438.296875 C 359.152344 443.800781 363.617188 448.261719 369.117188 448.261719 L 416.71875 448.261719 C 422.21875 448.261719 426.679688 443.800781 426.679688 438.296875 L 426.679688 387.023438 C 426.679688 381.523438 422.21875 377.0625 416.71875 377.0625 Z M 406.753906 428.320312 L 379.078125 428.320312 L 379.078125 396.972656 L 406.753906 396.972656 Z M 406.753906 428.320312 " fill-opacity="1" fill-rule="nonzero"/></g><path fill="#39a7ff" d="M 722.6875 252.988281 C 723.453125 246.871094 724.027344 240.65625 724.027344 234.347656 C 724.027344 228.039062 723.453125 221.828125 722.6875 215.710938 L 763.121094 184.070312 C 766.75 181.203125 767.804688 176.042969 765.414062 171.835938 L 727.179688 105.597656 C 724.792969 101.488281 719.820312 99.769531 715.519531 101.488281 L 667.917969 120.699219 C 658.074219 113.148438 647.273438 106.746094 635.613281 101.871094 L 628.445312 51.210938 C 627.582031 46.71875 623.664062 43.183594 618.886719 43.183594 L 542.417969 43.183594 C 537.640625 43.183594 533.722656 46.71875 532.957031 51.210938 L 525.789062 101.871094 C 514.128906 106.746094 503.328125 113.054688 493.480469 120.699219 L 445.882812 101.488281 C 441.578125 99.863281 436.609375 101.488281 434.21875 105.597656 L 395.988281 171.835938 C 393.597656 175.945312 394.648438 181.109375 398.28125 184.070312 L 438.617188 215.710938 C 437.851562 221.828125 437.277344 228.039062 437.277344 234.347656 C 437.277344 240.65625 437.851562 246.871094 438.617188 252.988281 L 398.28125 284.625 C 394.648438 287.492188 393.597656 292.652344 395.988281 296.859375 L 434.21875 363.097656 C 436.609375 367.207031 441.578125 368.929688 445.882812 367.207031 L 493.480469 347.996094 C 503.328125 355.546875 514.128906 361.949219 525.789062 366.824219 L 532.957031 417.484375 C 533.722656 421.976562 537.640625 425.511719 542.417969 425.511719 L 618.886719 425.511719 C 623.664062 425.511719 627.582031 421.976562 628.347656 417.484375 L 635.515625 366.824219 C 647.179688 361.949219 657.980469 355.640625 667.824219 347.996094 L 715.425781 367.207031 C 719.726562 368.832031 724.695312 367.207031 727.085938 363.097656 L 765.316406 296.859375 C 767.707031 292.75 766.65625 287.585938 763.023438 284.625 Z M 580.652344 301.253906 C 543.664062 301.253906 513.746094 271.339844 513.746094 234.347656 C 513.746094 197.359375 543.664062 167.441406 580.652344 167.441406 C 617.644531 167.441406 647.558594 197.359375 647.558594 234.347656 C 647.558594 271.339844 617.644531 301.253906 580.652344 301.253906 Z M 580.652344 301.253906 " fill-opacity="1" fill-rule="nonzero"/><g clip-path="url(#8e11490810)"><path fill="#39a7ff" d="M 609.410156 705.820312 L 581.625 705.820312 L 581.625 314.394531 C 581.625 308.894531 577.164062 304.429688 571.664062 304.429688 L 319.429688 304.429688 L 319.429688 137.160156 C 319.429688 131.65625 314.96875 127.195312 309.46875 127.195312 L 47.257812 127.195312 C 41.753906 127.195312 37.292969 131.65625 37.292969 137.160156 L 37.292969 705.820312 L 9.523438 705.820312 C 4.023438 705.820312 -0.4375 710.28125 -0.4375 715.78125 C -0.4375 721.285156 4.023438 725.746094 9.523438 725.746094 L 609.425781 725.746094 C 614.925781 725.746094 619.386719 721.285156 619.386719 715.78125 C 619.371094 710.28125 614.910156 705.820312 609.410156 705.820312 Z M 57.21875 147.121094 L 299.503906 147.121094 L 299.503906 705.835938 L 57.21875 705.835938 Z M 319.429688 705.820312 L 319.429688 324.355469 L 561.714844 324.355469 L 561.714844 705.820312 Z M 153.972656 595.941406 L 106.371094 595.941406 C 100.871094 595.941406 96.40625 600.40625 96.40625 605.90625 L 96.40625 657.179688 C 96.40625 662.679688 100.871094 667.144531 106.371094 667.144531 L 153.972656 667.144531 C 159.472656 667.144531 163.9375 662.679688 163.9375 657.179688 L 163.9375 605.90625 C 163.9375 600.40625 159.472656 595.941406 153.972656 595.941406 Z M 144.007812 647.214844 L 116.335938 647.214844 L 116.335938 615.871094 L 144.007812 615.871094 Z M 153.972656 185.796875 L 106.371094 185.796875 C 100.871094 185.796875 96.40625 190.261719 96.40625 195.761719 L 96.40625 247.035156 C 96.40625 252.535156 100.871094 257 106.371094 257 L 153.972656 257 C 159.472656 257 163.9375 252.535156 163.9375 247.035156 L 163.9375 195.761719 C 163.9375 190.261719 159.472656 185.796875 153.972656 185.796875 Z M 144.007812 237.070312 L 116.335938 237.070312 L 116.335938 205.726562 L 144.007812 205.726562 Z M 250.367188 390.878906 L 202.765625 390.878906 C 197.265625 390.878906 192.804688 395.339844 192.804688 400.839844 L 192.804688 452.117188 C 192.804688 457.617188 197.265625 462.078125 202.765625 462.078125 L 250.367188 462.078125 C 255.867188 462.078125 260.332031 457.617188 260.332031 452.117188 L 260.332031 400.839844 C 260.332031 395.339844 255.867188 390.878906 250.367188 390.878906 Z M 240.40625 442.136719 L 212.730469 442.136719 L 212.730469 410.789062 L 240.40625 410.789062 Z M 153.972656 288.332031 L 106.371094 288.332031 C 100.871094 288.332031 96.40625 292.792969 96.40625 298.292969 L 96.40625 349.566406 C 96.40625 355.070312 100.871094 359.53125 106.371094 359.53125 L 153.972656 359.53125 C 159.472656 359.53125 163.9375 355.070312 163.9375 349.566406 L 163.9375 298.292969 C 163.9375 292.792969 159.472656 288.332031 153.972656 288.332031 Z M 144.007812 339.605469 L 116.335938 339.605469 L 116.335938 308.257812 L 144.007812 308.257812 Z M 153.972656 493.410156 L 106.371094 493.410156 C 100.871094 493.410156 96.40625 497.871094 96.40625 503.375 L 96.40625 554.648438 C 96.40625 560.148438 100.871094 564.609375 106.371094 564.609375 L 153.972656 564.609375 C 159.472656 564.609375 163.9375 560.148438 163.9375 554.648438 L 163.9375 503.375 C 163.9375 497.871094 159.472656 493.410156 153.972656 493.410156 Z M 144.007812 544.683594 L 116.335938 544.683594 L 116.335938 513.335938 L 144.007812 513.335938 Z M 153.972656 390.878906 L 106.371094 390.878906 C 100.871094 390.878906 96.40625 395.339844 96.40625 400.839844 L 96.40625 452.117188 C 96.40625 457.617188 100.871094 462.078125 106.371094 462.078125 L 153.972656 462.078125 C 159.472656 462.078125 163.9375 457.617188 163.9375 452.117188 L 163.9375 400.839844 C 163.9375 395.339844 159.472656 390.878906 153.972656 390.878906 Z M 144.007812 442.136719 L 116.335938 442.136719 L 116.335938 410.789062 L 144.007812 410.789062 Z M 250.367188 493.410156 L 202.765625 493.410156 C 197.265625 493.410156 192.804688 497.871094 192.804688 503.375 L 192.804688 554.648438 C 192.804688 560.148438 197.265625 564.609375 202.765625 564.609375 L 250.367188 564.609375 C 255.867188 564.609375 260.332031 560.148438 260.332031 554.648438 L 260.332031 503.375 C 260.332031 497.871094 255.867188 493.410156 250.367188 493.410156 Z M 240.40625 544.683594 L 212.730469 544.683594 L 212.730469 513.335938 L 240.40625 513.335938 Z M 250.367188 288.332031 L 202.765625 288.332031 C 197.265625 288.332031 192.804688 292.792969 192.804688 298.292969 L 192.804688 349.566406 C 192.804688 355.070312 197.265625 359.53125 202.765625 359.53125 L 250.367188 359.53125 C 255.867188 359.53125 260.332031 355.070312 260.332031 349.566406 L 260.332031 298.292969 C 260.332031 292.792969 255.867188 288.332031 250.367188 288.332031 Z M 240.40625 339.605469 L 212.730469 339.605469 L 212.730469 308.257812 L 240.40625 308.257812 Z M 250.367188 185.796875 L 202.765625 185.796875 C 197.265625 185.796875 192.804688 190.261719 192.804688 195.761719 L 192.804688 247.035156 C 192.804688 252.535156 197.265625 257 202.765625 257 L 250.367188 257 C 255.867188 257 260.332031 252.535156 260.332031 247.035156 L 260.332031 195.761719 C 260.332031 190.261719 255.867188 185.796875 250.367188 185.796875 Z M 240.40625 237.070312 L 212.730469 237.070312 L 212.730469 205.726562 L 240.40625 205.726562 Z M 250.367188 595.941406 L 202.765625 595.941406 C 197.265625 595.941406 192.804688 600.40625 192.804688 605.90625 L 192.804688 657.179688 C 192.804688 662.679688 197.265625 667.144531 202.765625 667.144531 L 250.367188 667.144531 C 255.867188 667.144531 260.332031 662.679688 260.332031 657.179688 L 260.332031 605.90625 C 260.332031 600.40625 255.867188 595.941406 250.367188 595.941406 Z M 240.40625 647.214844 L 212.730469 647.214844 L 212.730469 615.871094 L 240.40625 615.871094 Z M 512.5625 479.496094 L 464.960938 479.496094 C 459.460938 479.496094 455 483.957031 455 489.460938 L 455 540.734375 C 455 546.234375 459.460938 550.695312 464.960938 550.695312 L 512.5625 550.695312 C 518.0625 550.695312 522.527344 546.234375 522.527344 540.734375 L 522.527344 489.460938 C 522.527344 483.957031 518.0625 479.496094 512.5625 479.496094 Z M 502.601562 530.769531 L 474.925781 530.769531 L 474.925781 499.421875 L 502.601562 499.421875 Z M 512.5625 376.964844 L 464.960938 376.964844 C 459.460938 376.964844 455 381.425781 455 386.925781 L 455 438.199219 C 455 443.703125 459.460938 448.164062 464.960938 448.164062 L 512.5625 448.164062 C 518.0625 448.164062 522.527344 443.703125 522.527344 438.199219 L 522.527344 386.925781 C 522.527344 381.425781 518.0625 376.964844 512.5625 376.964844 Z M 502.601562 428.222656 L 474.925781 428.222656 L 474.925781 396.875 L 502.601562 396.875 Z M 512.5625 582.027344 L 464.960938 582.027344 C 459.460938 582.027344 455 586.492188 455 591.992188 L 455 643.265625 C 455 648.765625 459.460938 653.226562 464.960938 653.226562 L 512.5625 653.226562 C 518.0625 653.226562 522.527344 648.765625 522.527344 643.265625 L 522.527344 591.992188 C 522.527344 586.492188 518.0625 582.027344 512.5625 582.027344 Z M 502.601562 633.300781 L 474.925781 633.300781 L 474.925781 601.953125 L 502.601562 601.953125 Z M 416.183594 582.027344 L 368.582031 582.027344 C 363.082031 582.027344 358.617188 586.492188 358.617188 591.992188 L 358.617188 643.265625 C 358.617188 648.765625 363.082031 653.226562 368.582031 653.226562 L 416.183594 653.226562 C 421.683594 653.226562 426.144531 648.765625 426.144531 643.265625 L 426.144531 591.992188 C 426.144531 586.492188 421.683594 582.027344 416.183594 582.027344 Z M 406.21875 633.300781 L 378.546875 633.300781 L 378.546875 601.953125 L 406.21875 601.953125 Z M 416.183594 479.496094 L 368.582031 479.496094 C 363.082031 479.496094 358.617188 483.957031 358.617188 489.460938 L 358.617188 540.734375 C 358.617188 546.234375 363.082031 550.695312 368.582031 550.695312 L 416.183594 550.695312 C 421.683594 550.695312 426.144531 546.234375 426.144531 540.734375 L 426.144531 489.460938 C 426.144531 483.957031 421.683594 479.496094 416.183594 479.496094 Z M 406.21875 530.769531 L 378.546875 530.769531 L 378.546875 499.421875 L 406.21875 499.421875 Z M 416.183594 376.964844 L 368.582031 376.964844 C 363.082031 376.964844 358.617188 381.425781 358.617188 386.925781 L 358.617188 438.199219 C 358.617188 443.703125 363.082031 448.164062 368.582031 448.164062 L 416.183594 448.164062 C 421.683594 448.164062 426.144531 443.703125 426.144531 438.199219 L 426.144531 386.925781 C 426.144531 381.425781 421.683594 376.964844 416.183594 376.964844 Z M 406.21875 428.222656 L 378.546875 428.222656 L 378.546875 396.875 L 406.21875 396.875 Z M 406.21875 428.222656 " fill-opacity="1" fill-rule="nonzero"/></g><g clip-path="url(#6327d22684)"><path fill="#39a7ff" d="M 609.699219 705.910156 L 581.917969 705.910156 L 581.917969 314.484375 C 581.917969 308.984375 577.453125 304.523438 571.953125 304.523438 L 319.722656 304.523438 L 319.722656 137.25 C 319.722656 131.75 315.257812 127.285156 309.757812 127.285156 L 47.546875 127.285156 C 42.046875 127.285156 37.582031 131.75 37.582031 137.25 L 37.582031 705.910156 L 9.816406 705.910156 C 4.316406 705.910156 -0.148438 710.375 -0.148438 715.875 C -0.148438 721.375 4.316406 725.835938 9.816406 725.835938 L 609.714844 725.835938 C 615.214844 725.835938 619.679688 721.375 619.679688 715.875 C 619.664062 710.375 615.199219 705.910156 609.699219 705.910156 Z M 57.511719 147.214844 L 299.792969 147.214844 L 299.792969 705.925781 L 57.511719 705.925781 Z M 319.722656 705.910156 L 319.722656 324.449219 L 562.003906 324.449219 L 562.003906 705.910156 Z M 154.261719 596.035156 L 106.660156 596.035156 C 101.160156 596.035156 96.699219 600.496094 96.699219 605.996094 L 96.699219 657.269531 C 96.699219 662.773438 101.160156 667.234375 106.660156 667.234375 L 154.261719 667.234375 C 159.761719 667.234375 164.226562 662.773438 164.226562 657.269531 L 164.226562 605.996094 C 164.226562 600.496094 159.761719 596.035156 154.261719 596.035156 Z M 144.300781 647.308594 L 116.625 647.308594 L 116.625 615.960938 L 144.300781 615.960938 Z M 154.261719 185.890625 L 106.660156 185.890625 C 101.160156 185.890625 96.699219 190.351562 96.699219 195.851562 L 96.699219 247.128906 C 96.699219 252.628906 101.160156 257.089844 106.660156 257.089844 L 154.261719 257.089844 C 159.761719 257.089844 164.226562 252.628906 164.226562 247.128906 L 164.226562 195.851562 C 164.226562 190.351562 159.761719 185.890625 154.261719 185.890625 Z M 144.300781 237.164062 L 116.625 237.164062 L 116.625 205.816406 L 144.300781 205.816406 Z M 250.660156 390.96875 L 203.058594 390.96875 C 197.554688 390.96875 193.09375 395.433594 193.09375 400.933594 L 193.09375 452.207031 C 193.09375 457.707031 197.554688 462.171875 203.058594 462.171875 L 250.660156 462.171875 C 256.160156 462.171875 260.621094 457.707031 260.621094 452.207031 L 260.621094 400.933594 C 260.621094 395.433594 256.160156 390.96875 250.660156 390.96875 Z M 240.695312 442.226562 L 213.019531 442.226562 L 213.019531 410.882812 L 240.695312 410.882812 Z M 154.261719 288.421875 L 106.660156 288.421875 C 101.160156 288.421875 96.699219 292.882812 96.699219 298.386719 L 96.699219 349.660156 C 96.699219 355.160156 101.160156 359.621094 106.660156 359.621094 L 154.261719 359.621094 C 159.761719 359.621094 164.226562 355.160156 164.226562 349.660156 L 164.226562 298.386719 C 164.226562 292.882812 159.761719 288.421875 154.261719 288.421875 Z M 144.300781 339.695312 L 116.625 339.695312 L 116.625 308.347656 L 144.300781 308.347656 Z M 154.261719 493.5 L 106.660156 493.5 C 101.160156 493.5 96.699219 497.964844 96.699219 503.464844 L 96.699219 554.738281 C 96.699219 560.238281 101.160156 564.703125 106.660156 564.703125 L 154.261719 564.703125 C 159.761719 564.703125 164.226562 560.238281 164.226562 554.738281 L 164.226562 503.464844 C 164.226562 497.964844 159.761719 493.5 154.261719 493.5 Z M 144.300781 544.777344 L 116.625 544.777344 L 116.625 513.429688 L 144.300781 513.429688 Z M 154.261719 390.96875 L 106.660156 390.96875 C 101.160156 390.96875 96.699219 395.433594 96.699219 400.933594 L 96.699219 452.207031 C 96.699219 457.707031 101.160156 462.171875 106.660156 462.171875 L 154.261719 462.171875 C 159.761719 462.171875 164.226562 457.707031 164.226562 452.207031 L 164.226562 400.933594 C 164.226562 395.433594 159.761719 390.96875 154.261719 390.96875 Z M 144.300781 442.226562 L 116.625 442.226562 L 116.625 410.882812 L 144.300781 410.882812 Z M 250.660156 493.5 L 203.058594 493.5 C 197.554688 493.5 193.09375 497.964844 193.09375 503.464844 L 193.09375 554.738281 C 193.09375 560.238281 197.554688 564.703125 203.058594 564.703125 L 250.660156 564.703125 C 256.160156 564.703125 260.621094 560.238281 260.621094 554.738281 L 260.621094 503.464844 C 260.621094 497.964844 256.160156 493.5 250.660156 493.5 Z M 240.695312 544.777344 L 213.019531 544.777344 L 213.019531 513.429688 L 240.695312 513.429688 Z M 250.660156 288.421875 L 203.058594 288.421875 C 197.554688 288.421875 193.09375 292.882812 193.09375 298.386719 L 193.09375 349.660156 C 193.09375 355.160156 197.554688 359.621094 203.058594 359.621094 L 250.660156 359.621094 C 256.160156 359.621094 260.621094 355.160156 260.621094 349.660156 L 260.621094 298.386719 C 260.621094 292.882812 256.160156 288.421875 250.660156 288.421875 Z M 240.695312 339.695312 L 213.019531 339.695312 L 213.019531 308.347656 L 240.695312 308.347656 Z M 250.660156 185.890625 L 203.058594 185.890625 C 197.554688 185.890625 193.09375 190.351562 193.09375 195.851562 L 193.09375 247.128906 C 193.09375 252.628906 197.554688 257.089844 203.058594 257.089844 L 250.660156 257.089844 C 256.160156 257.089844 260.621094 252.628906 260.621094 247.128906 L 260.621094 195.851562 C 260.621094 190.351562 256.160156 185.890625 250.660156 185.890625 Z M 240.695312 237.164062 L 213.019531 237.164062 L 213.019531 205.816406 L 240.695312 205.816406 Z M 250.660156 596.035156 L 203.058594 596.035156 C 197.554688 596.035156 193.09375 600.496094 193.09375 605.996094 L 193.09375 657.269531 C 193.09375 662.773438 197.554688 667.234375 203.058594 667.234375 L 250.660156 667.234375 C 256.160156 667.234375 260.621094 662.773438 260.621094 657.269531 L 260.621094 605.996094 C 260.621094 600.496094 256.160156 596.035156 250.660156 596.035156 Z M 240.695312 647.308594 L 213.019531 647.308594 L 213.019531 615.960938 L 240.695312 615.960938 Z M 512.855469 479.585938 L 465.253906 479.585938 C 459.75 479.585938 455.289062 484.050781 455.289062 489.550781 L 455.289062 540.824219 C 455.289062 546.324219 459.75 550.789062 465.253906 550.789062 L 512.855469 550.789062 C 518.355469 550.789062 522.816406 546.324219 522.816406 540.824219 L 522.816406 489.550781 C 522.816406 484.050781 518.355469 479.585938 512.855469 479.585938 Z M 502.890625 530.859375 L 475.214844 530.859375 L 475.214844 499.515625 L 502.890625 499.515625 Z M 512.855469 377.054688 L 465.253906 377.054688 C 459.75 377.054688 455.289062 381.515625 455.289062 387.019531 L 455.289062 438.292969 C 455.289062 443.792969 459.75 448.253906 465.253906 448.253906 L 512.855469 448.253906 C 518.355469 448.253906 522.816406 443.792969 522.816406 438.292969 L 522.816406 387.019531 C 522.816406 381.515625 518.355469 377.054688 512.855469 377.054688 Z M 502.890625 428.3125 L 475.214844 428.3125 L 475.214844 396.964844 L 502.890625 396.964844 Z M 512.855469 582.121094 L 465.253906 582.121094 C 459.75 582.121094 455.289062 586.582031 455.289062 592.082031 L 455.289062 643.355469 C 455.289062 648.855469 459.75 653.320312 465.253906 653.320312 L 512.855469 653.320312 C 518.355469 653.320312 522.816406 648.855469 522.816406 643.355469 L 522.816406 592.082031 C 522.816406 586.582031 518.355469 582.121094 512.855469 582.121094 Z M 502.890625 633.394531 L 475.214844 633.394531 L 475.214844 602.046875 L 502.890625 602.046875 Z M 416.472656 582.121094 L 368.871094 582.121094 C 363.371094 582.121094 358.910156 586.582031 358.910156 592.082031 L 358.910156 643.355469 C 358.910156 648.855469 363.371094 653.320312 368.871094 653.320312 L 416.472656 653.320312 C 421.972656 653.320312 426.4375 648.855469 426.4375 643.355469 L 426.4375 592.082031 C 426.4375 586.582031 421.972656 582.121094 416.472656 582.121094 Z M 406.511719 633.394531 L 378.835938 633.394531 L 378.835938 602.046875 L 406.511719 602.046875 Z M 416.472656 479.585938 L 368.871094 479.585938 C 363.371094 479.585938 358.910156 484.050781 358.910156 489.550781 L 358.910156 540.824219 C 358.910156 546.324219 363.371094 550.789062 368.871094 550.789062 L 416.472656 550.789062 C 421.972656 550.789062 426.4375 546.324219 426.4375 540.824219 L 426.4375 489.550781 C 426.4375 484.050781 421.972656 479.585938 416.472656 479.585938 Z M 406.511719 530.859375 L 378.835938 530.859375 L 378.835938 499.515625 L 406.511719 499.515625 Z M 416.472656 377.054688 L 368.871094 377.054688 C 363.371094 377.054688 358.910156 381.515625 358.910156 387.019531 L 358.910156 438.292969 C 358.910156 443.792969 363.371094 448.253906 368.871094 448.253906 L 416.472656 448.253906 C 421.972656 448.253906 426.4375 443.792969 426.4375 438.292969 L 426.4375 387.019531 C 426.4375 381.515625 421.972656 377.054688 416.472656 377.054688 Z M 406.511719 428.3125 L 378.835938 428.3125 L 378.835938 396.964844 L 406.511719 396.964844 Z M 406.511719 428.3125 " fill-opacity="1" fill-rule="nonzero"/></g></svg>