<svg xmlns="http://www.w3.org/2000/svg" xmlns:xlink="http://www.w3.org/1999/xlink" width="1024" zoomAndPan="magnify" viewBox="0 0 768 767.999994" height="1024" preserveAspectRatio="xMidYMid meet" version="1.0"><defs><clipPath id="3f89e52f96"><path d="M 500.761719 49 L 767.761719 49 L 767.761719 320.433594 L 500.761719 320.433594 Z M 500.761719 49 " clip-rule="nonzero"/></clipPath><clipPath id="6991439c9d"><path d="M 593.859375 320.398438 L 674.859375 320.398438 L 674.859375 719.398438 L 593.859375 719.398438 Z M 593.859375 320.398438 " clip-rule="nonzero"/></clipPath><clipPath id="ae38d56d29"><path d="M 0 474.308594 L 501 474.308594 L 501 718.808594 L 0 718.808594 Z M 0 474.308594 " clip-rule="nonzero"/></clipPath><clipPath id="7c422d2f6c"><path d="M 49.226562 299.394531 L 451.226562 299.394531 L 451.226562 474.144531 L 49.226562 474.144531 Z M 49.226562 299.394531 " clip-rule="nonzero"/></clipPath><clipPath id="652caf3104"><path d="M 49.242188 521.152344 L 123.492188 521.152344 L 123.492188 602.152344 L 49.242188 602.152344 Z M 49.242188 521.152344 " clip-rule="nonzero"/></clipPath><clipPath id="7a33de2c4f"><path d="M 377.21875 521.152344 L 451.46875 521.152344 L 451.46875 602.152344 L 377.21875 602.152344 Z M 377.21875 521.152344 " clip-rule="nonzero"/></clipPath><clipPath id="319fdd25e6"><path d="M 507.113281 55.386719 L 761.363281 55.386719 L 761.363281 314.136719 L 507.113281 314.136719 Z M 507.113281 55.386719 " clip-rule="nonzero"/></clipPath><clipPath id="d31081e765"><path d="M 536.84375 74.921875 L 725 74.921875 L 725 276 L 536.84375 276 Z M 536.84375 74.921875 " clip-rule="nonzero"/></clipPath><clipPath id="b443d62372"><path d="M 536.851562 183.601562 C 546.375 175.800781 552.148438 175.5 555.75 175.050781 C 558.300781 174.75 562.351562 174.75 562.425781 174.75 C 562.425781 174.75 562.425781 174.074219 562.425781 173.773438 C 562.425781 173.398438 562.5 172.726562 562.5 172.726562 C 562.5 172.726562 563.773438 171.074219 564.074219 169.800781 C 564.523438 167.851562 563.699219 164.851562 563.925781 162.074219 C 564.300781 158.625 565.5 154.800781 566.476562 150.75 C 567.75 146.023438 569.25 140.476562 570.898438 135.300781 C 572.625 129.75 574.351562 123.898438 576.824219 118.574219 C 579.300781 113.175781 585.75 103.050781 585.75 103.050781 C 585.75 103.050781 585.824219 102.375 585.898438 102.074219 C 585.898438 101.699219 586.050781 101.101562 586.050781 101.023438 C 586.050781 101.023438 586.273438 100.425781 586.425781 100.125 C 586.5 99.824219 586.726562 99.226562 586.726562 99.226562 C 586.726562 99.226562 587.175781 98.699219 587.324219 98.398438 C 587.550781 98.101562 587.925781 97.574219 587.925781 97.574219 C 587.925781 97.574219 588.375 97.125 588.675781 96.976562 C 588.898438 96.75 589.425781 96.300781 589.425781 96.300781 C 589.425781 96.300781 590.023438 96 590.324219 95.851562 C 590.625 95.699219 591.148438 95.398438 591.148438 95.398438 C 591.226562 95.398438 591.824219 95.25 592.125 95.175781 C 592.5 95.101562 593.101562 94.949219 593.101562 94.949219 C 593.101562 94.949219 593.773438 94.949219 594.148438 94.949219 C 594.449219 94.949219 595.125 94.949219 595.125 94.949219 C 595.125 94.949219 595.726562 95.101562 596.101562 95.25 C 596.398438 95.324219 597 95.476562 597 95.476562 C 597.074219 95.476562 597.601562 95.773438 597.898438 95.925781 C 598.199219 96.074219 598.800781 96.375 598.800781 96.449219 C 598.800781 96.449219 599.175781 96.898438 599.398438 96.976562 C 599.550781 96.976562 599.699219 96.824219 600 96.75 C 600.898438 96.523438 603.449219 96.449219 605.175781 95.699219 C 607.425781 94.800781 611.023438 92.101562 612 91.199219 C 612.300781 90.898438 612.523438 90.449219 612.601562 90.449219 C 612.601562 90.449219 613.050781 90.074219 613.351562 89.851562 C 613.574219 89.625 614.101562 89.25 614.101562 89.175781 C 614.101562 89.175781 614.699219 88.949219 615 88.800781 C 615.300781 88.648438 615.898438 88.351562 615.898438 88.351562 C 615.898438 88.351562 616.273438 88.351562 616.425781 88.273438 C 616.5 88.199219 616.648438 88.125 616.648438 88.125 C 616.648438 88.125 616.5 88.199219 616.5 88.273438 C 616.5 88.273438 616.800781 88.199219 616.875 88.199219 C 616.949219 88.125 617.101562 88.125 617.175781 88.125 C 617.25 88.050781 617.398438 87.824219 617.398438 87.824219 C 617.398438 87.824219 618 87.523438 618.300781 87.375 C 618.601562 87.148438 619.125 86.851562 619.125 86.851562 C 619.125 86.851562 619.800781 86.625 620.101562 86.550781 C 620.398438 86.476562 621 86.25 621.074219 86.25 C 621.074219 86.25 621.675781 86.25 622.050781 86.25 C 622.351562 86.175781 623.023438 86.175781 623.023438 86.175781 C 623.023438 86.175781 623.699219 86.324219 624 86.398438 C 624.300781 86.398438 624.976562 86.550781 624.976562 86.550781 C 624.976562 86.550781 625.574219 86.851562 625.800781 86.925781 C 625.875 87 625.949219 86.925781 626.101562 87 C 626.324219 87.074219 627 87.226562 627 87.226562 C 627.074219 87.226562 627.601562 87.523438 627.898438 87.675781 C 628.199219 87.824219 628.800781 88.125 628.800781 88.125 C 628.800781 88.125 629.324219 88.574219 629.550781 88.800781 C 629.773438 89.023438 630.300781 89.476562 630.300781 89.476562 C 630.300781 89.476562 630.675781 90 630.898438 90.300781 C 630.976562 90.449219 631.050781 90.824219 631.273438 90.898438 C 632.324219 90.976562 636.976562 83.25 640.273438 82.726562 C 643.5 82.199219 650.101562 86.625 650.851562 87.300781 C 651 87.449219 650.925781 87.601562 651 87.601562 C 651.074219 87.601562 651.226562 87.226562 651.226562 87.226562 C 651.226562 87.226562 651.675781 86.773438 651.898438 86.476562 C 652.125 86.25 652.5 85.800781 652.574219 85.726562 C 652.574219 85.726562 652.726562 85.726562 652.800781 85.574219 C 653.101562 85.199219 654.226562 82.199219 654.300781 82.125 C 654.300781 82.125 654.449219 81.523438 654.523438 81.148438 C 654.601562 80.851562 654.75 80.25 654.75 80.25 C 654.75 80.175781 655.050781 79.648438 655.199219 79.351562 C 655.351562 79.050781 655.726562 78.449219 655.726562 78.449219 C 655.726562 78.449219 656.175781 78 656.324219 77.699219 C 656.550781 77.476562 657 77.023438 657 76.949219 C 657 76.949219 657.601562 76.648438 657.824219 76.425781 C 658.125 76.273438 658.648438 75.898438 658.648438 75.898438 C 658.648438 75.824219 659.324219 75.601562 659.625 75.523438 C 659.925781 75.375 660.523438 75.148438 660.523438 75.148438 C 660.523438 75.148438 661.199219 75.074219 661.5 75.074219 C 661.875 75 662.476562 74.925781 662.476562 74.925781 C 662.550781 74.925781 663.148438 75 663.523438 75.074219 C 663.824219 75.148438 664.5 75.226562 664.5 75.226562 C 664.5 75.226562 665.101562 75.449219 665.398438 75.523438 C 665.699219 75.675781 666.300781 75.898438 666.300781 75.898438 C 666.375 75.898438 666.898438 76.273438 667.125 76.5 C 667.425781 76.648438 667.949219 77.023438 667.949219 77.023438 C 667.949219 77.101562 668.398438 77.550781 668.625 77.773438 C 668.851562 78.074219 669.300781 78.523438 669.300781 78.523438 C 669.300781 78.601562 669.601562 79.125 669.75 79.425781 C 669.898438 79.726562 670.199219 80.324219 670.199219 80.324219 C 670.199219 80.324219 670.351562 81 670.425781 81.300781 C 670.5 81.601562 670.648438 82.273438 670.648438 82.273438 C 670.648438 82.273438 670.648438 82.949219 670.648438 83.25 C 670.648438 83.550781 670.648438 83.925781 670.648438 84.226562 C 670.648438 84.523438 670.648438 84.675781 670.648438 85.125 C 670.5 86.476562 669.449219 91.351562 668.773438 93.601562 C 668.398438 95.101562 667.351562 96.601562 667.425781 97.273438 C 667.5 97.574219 667.574219 97.648438 667.800781 97.800781 C 668.476562 98.101562 670.351562 97.726562 672.148438 97.800781 C 675.375 97.875 681.226562 97.875 685.125 98.625 C 688.425781 99.300781 691.273438 100.199219 694.050781 101.699219 C 697.050781 103.351562 700.125 105.523438 702.300781 108.300781 C 704.773438 111.449219 705.898438 116.25 707.699219 119.925781 C 709.351562 123.300781 711 126.523438 712.726562 129.523438 C 714.375 132.375 716.324219 134.699219 717.824219 137.699219 C 719.550781 141.074219 721.273438 144.824219 722.25 148.875 C 723.375 153.148438 723.824219 158.476562 724.050781 162.675781 C 724.273438 166.273438 725.25 169.949219 723.824219 172.648438 C 722.25 175.425781 717.675781 178.125 714.375 178.726562 C 711.226562 179.398438 707.699219 177.523438 704.398438 176.851562 C 701.023438 176.175781 697.273438 175.199219 694.351562 174.675781 C 692.175781 174.300781 689.324219 173.398438 688.574219 173.925781 C 688.199219 174.148438 688.425781 174.675781 688.199219 175.125 C 687.824219 175.726562 686.398438 176.773438 686.25 177.148438 C 686.175781 177.226562 686.25 177.300781 686.25 177.375 C 686.175781 177.601562 686.101562 178.351562 686.101562 178.351562 C 686.101562 178.351562 685.875 179.023438 685.800781 179.324219 C 685.648438 179.625 685.425781 180.226562 685.425781 180.226562 C 685.425781 180.226562 685.050781 180.75 684.898438 181.050781 C 684.675781 181.351562 684.375 181.875 684.300781 181.875 C 684.300781 181.875 683.851562 182.324219 683.625 182.550781 C 683.324219 182.773438 682.875 183.226562 682.875 183.226562 C 682.875 183.226562 682.273438 183.523438 681.976562 183.675781 C 681.675781 183.824219 681.148438 184.199219 681.148438 184.199219 C 681.148438 184.199219 681.148438 184.199219 681.074219 184.199219 C 681.074219 184.199219 680.476562 184.351562 680.175781 184.425781 C 679.800781 184.5 679.199219 184.648438 679.199219 184.648438 C 679.125 184.726562 678.375 190.726562 676.648438 193.351562 C 674.699219 196.351562 670.648438 199.050781 667.351562 201.300781 C 664.273438 203.476562 660.75 205.351562 657.523438 206.773438 C 654.601562 208.050781 651.976562 208.949219 648.824219 209.773438 C 645.375 210.75 641.023438 211.574219 637.726562 212.175781 C 635.023438 212.699219 630.523438 212.925781 630.449219 213.300781 C 630.449219 213.375 630.75 213.449219 630.898438 213.523438 C 631.199219 213.675781 631.800781 213.976562 631.800781 214.050781 C 631.800781 214.050781 632.25 214.5 632.550781 214.726562 C 632.773438 214.949219 633.226562 215.324219 633.226562 215.398438 C 633.226562 215.398438 633.601562 215.925781 633.75 216.226562 C 633.976562 216.449219 634.351562 217.050781 634.351562 217.050781 C 634.351562 217.050781 634.574219 217.648438 634.648438 217.949219 C 634.800781 218.25 634.949219 218.925781 635.023438 218.925781 C 635.023438 218.925781 635.023438 219.601562 635.101562 219.898438 C 635.101562 220.199219 635.175781 220.875 635.175781 220.875 C 635.175781 220.875 635.101562 221.550781 635.023438 221.851562 C 635.023438 222.226562 634.875 222.824219 634.875 222.824219 C 634.875 222.898438 634.648438 223.5 634.5 223.800781 C 634.425781 224.101562 634.351562 224.25 634.125 224.699219 C 633.675781 225.75 632.023438 229.125 631.574219 230.023438 C 631.425781 230.324219 631.351562 230.324219 631.199219 230.625 C 630.824219 231.375 629.699219 233.324219 628.949219 235.199219 C 627.898438 237.824219 627.148438 241.875 626.023438 244.875 C 625.050781 247.648438 624.375 251.25 622.726562 252.601562 C 621.523438 253.574219 619.648438 252.375 618.148438 253.425781 C 615.300781 255.375 610.050781 267.375 609.976562 267.449219 C 609.976562 267.449219 609.898438 268.125 609.898438 268.425781 C 609.824219 268.726562 609.75 269.398438 609.75 269.398438 C 609.75 269.398438 609.523438 270.074219 609.449219 270.375 C 609.300781 270.675781 609.074219 271.273438 609.074219 271.273438 C 609.074219 271.273438 608.699219 271.800781 608.476562 272.101562 C 608.324219 272.398438 607.949219 272.925781 607.949219 272.925781 C 607.949219 272.925781 607.425781 273.375 607.199219 273.601562 C 606.976562 273.824219 606.449219 274.273438 606.449219 274.273438 C 606.449219 274.273438 605.851562 274.574219 605.625 274.726562 C 605.324219 274.875 604.726562 275.175781 604.726562 275.175781 C 604.726562 275.175781 604.050781 275.324219 603.75 275.398438 C 603.449219 275.476562 602.773438 275.625 602.773438 275.625 C 602.773438 275.699219 602.773438 275.625 602.773438 275.625 C 602.773438 275.625 602.773438 275.699219 602.773438 275.699219 C 602.773438 275.699219 602.101562 275.699219 601.800781 275.699219 C 601.425781 275.699219 600.824219 275.699219 600.824219 275.699219 C 600.75 275.699219 600.148438 275.550781 599.851562 275.398438 C 599.476562 275.324219 598.875 275.175781 598.875 275.175781 C 598.875 275.175781 598.273438 274.875 597.976562 274.726562 C 597.675781 274.574219 597.074219 274.273438 597.074219 274.273438 C 597.074219 274.273438 596.625 273.824219 596.324219 273.601562 C 596.101562 273.375 595.574219 273 595.574219 273 C 595.574219 272.925781 595.199219 272.398438 595.050781 272.175781 C 594.824219 271.875 594.449219 271.351562 594.449219 271.351562 C 594.449219 271.351562 594.226562 270.75 594.074219 270.375 C 594 270.074219 593.773438 269.476562 593.773438 269.476562 C 593.773438 269.476562 593.699219 268.800781 593.625 268.5 C 593.550781 268.199219 593.476562 267.523438 593.476562 267.523438 C 593.476562 267.523438 593.550781 267.226562 593.476562 267.074219 C 593.398438 266.851562 592.949219 266.773438 592.726562 266.625 C 592.425781 266.476562 591.824219 266.101562 591.824219 266.101562 C 591.824219 266.101562 591.300781 265.648438 591.074219 265.425781 C 590.851562 265.199219 590.398438 264.75 590.398438 264.75 C 590.324219 264.75 590.023438 264.226562 589.800781 263.925781 C 589.648438 263.625 589.273438 263.101562 589.273438 263.101562 C 589.273438 263.101562 589.050781 262.5 588.976562 262.199219 C 588.824219 261.824219 588.601562 261.226562 588.601562 261.226562 C 588.601562 261.226562 588.523438 260.550781 588.523438 260.25 C 588.523438 259.875 588.449219 259.273438 588.449219 259.273438 C 588.449219 259.199219 588.523438 258.601562 588.601562 258.300781 C 588.601562 257.925781 588.675781 257.324219 588.675781 257.25 C 588.75 257.25 590.101562 253.050781 589.5 252.226562 C 589.125 251.699219 587.851562 252.449219 587.175781 251.851562 C 585.523438 250.574219 583.050781 244.726562 582.976562 241.351562 C 582.898438 238.425781 585.074219 235.949219 585.824219 233.023438 C 586.574219 229.875 587.175781 226.199219 587.398438 222.976562 C 587.625 219.976562 587.324219 216.449219 587.324219 214.425781 C 587.324219 213.226562 587.851562 212.476562 587.324219 211.648438 C 586.425781 210.300781 581.851562 210.449219 580.199219 208.648438 C 578.324219 206.625 577.726562 202.199219 577.351562 199.648438 C 577.050781 197.773438 578.023438 195.375 577.273438 194.625 C 576.675781 193.949219 574.125 194.625 573.824219 194.625 C 573.75 194.625 573.75 194.625 573.675781 194.625 C 573.601562 194.625 573.601562 194.625 573.449219 194.625 C 573.226562 194.625 572.476562 194.699219 572.476562 194.699219 C 572.476562 194.699219 572.101562 194.625 572.101562 194.625 C 572.101562 194.625 563.175781 194.625 558.898438 194.699219 C 554.851562 194.851562 550.5 196.648438 546.976562 195.148438 C 543 193.425781 536.851562 183.601562 536.851562 183.601562 M 587.625 195.601562 C 590.851562 195.300781 591.074219 194.851562 590.925781 194.625 C 590.773438 194.324219 588.976562 194.398438 588.375 194.625 C 588 194.851562 587.625 195.601562 587.625 195.601562 M 588.226562 135.824219 C 588.898438 136.050781 589.5 136.351562 589.5 136.351562 C 589.574219 136.351562 590.175781 136.800781 590.324219 136.949219 C 590.398438 137.023438 590.476562 137.101562 590.550781 137.101562 C 590.699219 137.023438 590.925781 135.824219 591 135.75 C 591 135.675781 589.875 132.375 589.425781 132.375 C 588.976562 132.375 588.226562 135.824219 588.226562 135.824219 M 605.699219 162.898438 C 605.925781 162.898438 606.148438 162.898438 606.226562 162.824219 C 606.226562 162.75 606.148438 162.523438 606.074219 162.523438 C 606 162.449219 605.699219 162.898438 605.699219 162.898438 M 621.675781 156.75 C 623.023438 159.523438 622.875 159.75 623.023438 159.824219 C 623.699219 160.273438 627.675781 158.699219 630.375 158.101562 C 633.675781 157.351562 638.175781 156.449219 641.25 155.925781 C 643.574219 155.476562 647.023438 155.398438 647.25 154.949219 C 647.324219 154.875 647.25 154.800781 647.25 154.726562 C 647.175781 154.5 647.101562 154.273438 647.023438 153.75 C 646.726562 152.25 646.273438 147.375 646.050781 144.75 C 645.898438 142.648438 646.125 139.425781 645.675781 139.199219 C 645.523438 139.125 645 139.875 645 139.875 C 645 139.875 644.476562 140.175781 644.175781 140.398438 C 643.875 140.550781 643.273438 140.851562 643.273438 140.851562 C 643.273438 140.851562 642.675781 141.074219 642.300781 141.148438 C 642 141.226562 641.398438 141.375 641.398438 141.375 C 641.324219 141.375 640.726562 141.449219 640.351562 141.449219 C 640.050781 141.449219 639.375 141.449219 639.375 141.449219 C 639.375 141.449219 638.699219 141.300781 638.398438 141.226562 C 638.175781 141.226562 638.023438 141 637.726562 141.074219 C 636.601562 141.449219 633.824219 145.5 631.5 147.675781 C 628.800781 150.148438 622.5 154.949219 622.5 155.023438 C 622.5 155.023438 622.199219 155.625 622.050781 155.925781 C 621.976562 156.226562 621.675781 156.75 621.675781 156.75 M 623.101562 213.449219 C 623.476562 213.300781 623.851562 213.148438 623.851562 213.074219 C 623.851562 213 623.398438 212.925781 623.398438 212.925781 C 623.398438 212.925781 623.25 212.773438 623.175781 212.773438 C 623.101562 212.851562 623.101562 213.449219 623.101562 213.449219 M 687.074219 150.074219 C 687.375 150.449219 687.898438 151.050781 687.898438 151.050781 C 687.898438 151.050781 688.125 151.648438 688.273438 151.949219 C 688.425781 152.25 688.726562 152.851562 688.726562 152.851562 C 688.726562 152.851562 688.875 153.449219 688.949219 153.824219 C 689.023438 154.125 689.101562 154.800781 689.101562 154.800781 C 689.101562 154.800781 689.101562 155.476562 689.101562 155.773438 C 689.101562 156.074219 689.023438 156.75 689.023438 156.75 C 689.023438 156.75 688.726562 157.199219 688.875 157.425781 C 689.175781 157.875 691.574219 157.574219 693.601562 157.875 C 697.125 158.324219 707.101562 160.574219 707.925781 160.726562 C 708.074219 160.726562 708.074219 160.800781 708.074219 160.726562 C 708.300781 160.574219 707.25 157.875 706.726562 156.148438 C 706.125 153.824219 705.824219 150.601562 704.699219 148.050781 C 703.574219 145.425781 701.699219 143.175781 700.125 140.625 C 698.398438 137.699219 696.300781 134.324219 694.875 131.476562 C 693.75 129.148438 692.851562 124.949219 692.101562 124.949219 C 691.425781 125.023438 691.125 128.25 690.601562 130.199219 C 689.851562 132.523438 688.875 135.300781 688.273438 138.226562 C 687.675781 141.675781 687.226562 148.351562 687.148438 149.625 C 687.074219 149.851562 687.074219 150.074219 687.074219 150.074219 " clip-rule="nonzero"/></clipPath><clipPath id="1afe4adf69"><path d="M 593.859375 117.441406 L 697.359375 117.441406 L 697.359375 251.691406 L 593.859375 251.691406 Z M 593.859375 117.441406 " clip-rule="nonzero"/></clipPath></defs><g clip-path="url(#3f89e52f96)"><path fill="#39a7ff" d="M 788.683594 746.210938 C 788.683594 752.816406 783.324219 758.179688 776.714844 758.179688 L 56.125 758.179688 C 49.515625 758.179688 44.15625 752.816406 44.15625 746.210938 C 44.15625 739.601562 49.515625 734.242188 56.125 734.242188 L 776.714844 734.242188 C 783.324219 734.242188 788.683594 739.601562 788.683594 746.210938 Z M 632.964844 336.515625 C 631.921875 336.515625 630.898438 336.496094 629.855469 336.476562 C 624.980469 336.382812 620.996094 340.347656 620.996094 345.226562 L 620.996094 701.574219 C 620.996094 706.414062 624.90625 710.324219 629.746094 710.324219 L 636.183594 710.324219 C 641.023438 710.324219 644.933594 706.414062 644.933594 701.574219 L 644.933594 345.226562 C 644.933594 340.347656 640.949219 336.382812 636.074219 336.476562 C 635.050781 336.496094 634.007812 336.515625 632.964844 336.515625 Z M 539.789062 273.972656 C 515.945312 250.132812 501.183594 217.167969 501.183594 180.777344 C 501.183594 144.390625 515.925781 111.445312 539.789062 87.601562 C 563.613281 63.757812 596.578125 49.015625 632.964844 49.015625 C 669.355469 49.015625 702.300781 63.757812 726.144531 87.601562 C 749.984375 111.445312 764.746094 144.390625 764.746094 180.777344 C 764.746094 217.167969 749.984375 250.132812 726.144531 273.972656 C 702.300781 297.816406 669.355469 312.578125 632.964844 312.578125 C 596.578125 312.578125 563.613281 297.835938 539.789062 273.972656 Z M 592.40625 254.804688 C 592.40625 261.410156 597.765625 266.769531 604.375 266.769531 C 610.984375 266.769531 616.34375 261.410156 616.34375 254.804688 L 616.34375 202.164062 L 649.402344 202.164062 C 660.4375 202.164062 670.46875 197.660156 677.730469 190.402344 C 684.988281 183.140625 689.492188 173.109375 689.492188 162.070312 L 689.492188 134.914062 C 689.492188 123.878906 684.988281 113.84375 677.730469 106.585938 C 670.46875 99.328125 660.4375 94.824219 649.402344 94.824219 L 604.375 94.824219 C 597.765625 94.824219 592.40625 100.183594 592.40625 106.789062 Z M 660.808594 173.464844 C 663.75 170.523438 665.558594 166.484375 665.558594 162.054688 L 665.558594 134.914062 C 665.558594 130.484375 663.734375 126.445312 660.808594 123.503906 C 657.871094 120.566406 653.832031 118.742188 649.402344 118.742188 L 616.34375 118.742188 L 616.34375 178.210938 L 649.402344 178.210938 C 653.832031 178.226562 657.871094 176.402344 660.808594 173.464844 Z M 138.972656 451.917969 L 494.539062 451.917969 C 506.453125 451.917969 514.734375 440.058594 510.621094 428.875 L 464.238281 302.5625 C 461.761719 295.828125 455.339844 291.339844 448.15625 291.339844 L 185.355469 291.339844 C 178.171875 291.339844 171.75 295.828125 169.273438 302.5625 L 122.890625 428.875 C 118.777344 440.042969 127.058594 451.917969 138.972656 451.917969 Z M 68.09375 621.445312 L 68.09375 490.816406 C 68.09375 482.554688 74.792969 475.851562 83.058594 475.851562 L 550.433594 475.851562 C 558.699219 475.851562 565.398438 482.554688 565.398438 490.816406 L 565.398438 621.445312 C 565.398438 629.710938 558.699219 636.410156 550.433594 636.410156 L 83.074219 636.410156 C 74.8125 636.410156 68.09375 629.710938 68.09375 621.445312 Z M 433.207031 556.132812 C 433.207031 569.160156 438.53125 580.980469 447.074219 589.597656 C 455.636719 598.160156 467.476562 603.464844 480.542969 603.464844 C 493.609375 603.464844 505.445312 598.160156 514.007812 589.597656 L 514.714844 588.835938 C 522.867188 580.308594 527.875 568.789062 527.875 556.148438 C 527.875 543.140625 522.550781 531.300781 514.007812 522.683594 C 505.445312 514.121094 493.609375 508.816406 480.542969 508.816406 C 467.476562 508.816406 455.636719 514.121094 447.074219 522.683594 L 446.367188 523.464844 C 438.214844 531.953125 433.207031 543.492188 433.207031 556.132812 Z M 105.636719 556.132812 C 105.636719 568.769531 110.640625 580.308594 118.792969 588.816406 L 119.5 589.578125 C 128.0625 598.140625 139.902344 603.445312 152.96875 603.445312 C 166.035156 603.445312 177.871094 598.140625 186.417969 589.5625 C 194.996094 580.980469 200.300781 569.140625 200.300781 556.132812 C 200.300781 543.492188 195.292969 531.953125 187.140625 523.445312 L 186.433594 522.664062 C 177.871094 514.101562 166.035156 508.796875 152.96875 508.796875 C 139.902344 508.796875 128.0625 514.101562 119.519531 522.683594 C 110.957031 531.28125 105.636719 543.121094 105.636719 556.132812 Z M 136.421875 572.679688 C 140.644531 576.902344 146.507812 579.527344 152.96875 579.527344 C 159.425781 579.527344 165.289062 576.902344 169.570312 572.679688 C 173.777344 568.472656 176.382812 562.628906 176.382812 556.132812 C 176.382812 549.894531 173.984375 544.257812 170.074219 540.085938 L 169.535156 539.585938 C 165.308594 535.359375 159.445312 532.734375 152.988281 532.734375 C 146.527344 532.734375 140.664062 535.359375 136.382812 539.585938 C 132.175781 543.792969 129.570312 549.636719 129.570312 556.132812 C 129.570312 562.367188 131.972656 568.007812 135.882812 572.175781 Z M 480.542969 579.527344 C 487 579.527344 492.863281 576.902344 497.089844 572.679688 L 497.628906 572.175781 C 501.539062 568.027344 503.957031 562.367188 503.957031 556.132812 C 503.957031 549.636719 501.351562 543.792969 497.105469 539.585938 C 492.882812 535.359375 487.019531 532.734375 480.558594 532.734375 C 474.101562 532.734375 468.238281 535.359375 464.011719 539.585938 L 463.472656 540.085938 C 459.566406 544.257812 457.164062 549.894531 457.164062 556.132812 C 457.164062 562.628906 459.769531 568.472656 464.011719 572.679688 C 468.21875 576.902344 474.082031 579.527344 480.542969 579.527344 Z M 445.867188 660.347656 C 441.007812 660.347656 437.0625 664.292969 437.0625 669.152344 L 437.0625 701.519531 C 437.0625 706.378906 441.007812 710.324219 445.867188 710.324219 L 509.914062 710.324219 C 514.769531 710.324219 518.71875 706.378906 518.71875 701.519531 L 518.71875 669.152344 C 518.71875 664.292969 514.769531 660.347656 509.914062 660.347656 Z M 123.597656 660.347656 C 118.738281 660.347656 114.792969 664.292969 114.792969 669.152344 L 114.792969 701.519531 C 114.792969 706.378906 118.738281 710.324219 123.597656 710.324219 L 187.644531 710.324219 C 192.503906 710.324219 196.449219 706.378906 196.449219 701.519531 L 196.449219 669.152344 C 196.449219 664.292969 192.503906 660.347656 187.644531 660.347656 Z M 123.597656 660.347656 " fill-opacity="1" fill-rule="evenodd"/></g><g clip-path="url(#6991439c9d)"><path fill="#39a7ff" d="M 783.90625 747.308594 C 783.90625 753.914062 778.546875 759.277344 771.9375 759.277344 L 51.347656 759.277344 C 44.738281 759.277344 39.378906 753.914062 39.378906 747.308594 C 39.378906 740.699219 44.738281 735.339844 51.347656 735.339844 L 771.9375 735.339844 C 778.546875 735.339844 783.90625 740.699219 783.90625 747.308594 Z M 628.1875 337.613281 C 627.144531 337.613281 626.121094 337.59375 625.082031 337.574219 C 620.203125 337.480469 616.21875 341.445312 616.21875 346.324219 L 616.21875 702.671875 C 616.21875 707.511719 620.128906 711.421875 624.96875 711.421875 L 631.410156 711.421875 C 636.25 711.421875 640.15625 707.511719 640.15625 702.671875 L 640.15625 346.324219 C 640.15625 341.445312 636.171875 337.480469 631.296875 337.574219 C 630.273438 337.59375 629.230469 337.613281 628.1875 337.613281 Z M 535.011719 275.070312 C 511.167969 251.230469 496.40625 218.265625 496.40625 181.875 C 496.40625 145.488281 511.148438 112.542969 535.011719 88.699219 C 558.835938 64.855469 591.800781 50.113281 628.1875 50.113281 C 664.578125 50.113281 697.523438 64.855469 721.367188 88.699219 C 745.210938 112.542969 759.96875 145.488281 759.96875 181.875 C 759.96875 218.265625 745.210938 251.230469 721.367188 275.070312 C 697.523438 298.914062 664.578125 313.675781 628.1875 313.675781 C 591.800781 313.675781 558.835938 298.933594 535.011719 275.070312 Z M 587.628906 255.902344 C 587.628906 262.507812 592.992188 267.867188 599.597656 267.867188 C 606.207031 267.867188 611.566406 262.507812 611.566406 255.902344 L 611.566406 203.261719 L 644.625 203.261719 C 655.660156 203.261719 665.695312 198.757812 672.953125 191.5 C 680.210938 184.238281 684.71875 174.207031 684.71875 163.167969 L 684.71875 136.011719 C 684.71875 124.976562 680.210938 114.941406 672.953125 107.683594 C 665.695312 100.425781 655.660156 95.921875 644.625 95.921875 L 599.597656 95.921875 C 592.992188 95.921875 587.628906 101.28125 587.628906 107.886719 Z M 656.035156 174.5625 C 658.976562 171.621094 660.78125 167.582031 660.78125 163.152344 L 660.78125 136.011719 C 660.78125 131.582031 658.957031 127.542969 656.035156 124.601562 C 653.09375 121.664062 649.054688 119.839844 644.625 119.839844 L 611.566406 119.839844 L 611.566406 179.308594 L 644.625 179.308594 C 649.054688 179.324219 653.09375 177.5 656.035156 174.5625 Z M 134.195312 453.015625 L 489.761719 453.015625 C 501.675781 453.015625 509.957031 441.15625 505.84375 429.972656 L 459.460938 303.660156 C 456.984375 296.925781 450.5625 292.4375 443.378906 292.4375 L 180.578125 292.4375 C 173.394531 292.4375 166.972656 296.925781 164.496094 303.660156 L 118.113281 429.972656 C 114 441.140625 122.28125 453.015625 134.195312 453.015625 Z M 63.316406 622.542969 L 63.316406 491.914062 C 63.316406 483.652344 70.015625 476.949219 78.28125 476.949219 L 545.65625 476.949219 C 553.921875 476.949219 560.621094 483.652344 560.621094 491.914062 L 560.621094 622.542969 C 560.621094 630.808594 553.921875 637.507812 545.65625 637.507812 L 78.300781 637.507812 C 70.035156 637.507812 63.316406 630.808594 63.316406 622.542969 Z M 428.433594 557.230469 C 428.433594 570.257812 433.753906 582.078125 442.296875 590.695312 C 450.859375 599.257812 462.699219 604.5625 475.765625 604.5625 C 488.832031 604.5625 500.667969 599.257812 509.230469 590.695312 L 509.9375 589.933594 C 518.089844 581.40625 523.097656 569.886719 523.097656 557.25 C 523.097656 544.238281 517.773438 532.398438 509.230469 523.78125 C 500.667969 515.21875 488.832031 509.914062 475.765625 509.914062 C 462.699219 509.914062 450.859375 515.21875 442.296875 523.78125 L 441.589844 524.5625 C 433.4375 533.050781 428.433594 544.589844 428.433594 557.230469 Z M 100.859375 557.230469 C 100.859375 569.867188 105.867188 581.40625 114.019531 589.914062 L 114.726562 590.675781 C 123.289062 599.238281 135.125 604.542969 148.191406 604.542969 C 161.257812 604.542969 173.097656 599.238281 181.640625 590.660156 C 190.21875 582.078125 195.523438 570.238281 195.523438 557.230469 C 195.523438 544.589844 190.519531 533.050781 182.367188 524.542969 L 181.660156 523.761719 C 173.097656 515.199219 161.257812 509.894531 148.191406 509.894531 C 135.125 509.894531 123.289062 515.199219 114.742188 523.78125 C 106.183594 532.378906 100.859375 544.21875 100.859375 557.230469 Z M 131.644531 573.777344 C 135.871094 578 141.734375 580.625 148.191406 580.625 C 154.652344 580.625 160.515625 578 164.792969 573.777344 C 169 569.570312 171.605469 563.726562 171.605469 557.230469 C 171.605469 550.992188 169.207031 545.355469 165.296875 541.183594 L 164.757812 540.683594 C 160.53125 536.457031 154.667969 533.832031 148.210938 533.832031 C 141.75 533.832031 135.886719 536.457031 131.609375 540.683594 C 127.402344 544.890625 124.796875 550.734375 124.796875 557.230469 C 124.796875 563.464844 127.195312 569.105469 131.105469 573.273438 Z M 475.765625 580.625 C 482.222656 580.625 488.085938 578 492.3125 573.777344 L 492.851562 573.273438 C 496.761719 569.125 499.179688 563.464844 499.179688 557.230469 C 499.179688 550.734375 496.574219 544.890625 492.332031 540.683594 C 488.105469 536.457031 482.242188 533.832031 475.785156 533.832031 C 469.324219 533.832031 463.460938 536.457031 459.238281 540.683594 L 458.695312 541.183594 C 454.789062 545.355469 452.386719 550.992188 452.386719 557.230469 C 452.386719 563.726562 454.992188 569.570312 459.238281 573.777344 C 463.445312 578 469.304688 580.625 475.765625 580.625 Z M 441.089844 661.445312 C 436.230469 661.445312 432.285156 665.390625 432.285156 670.25 L 432.285156 702.617188 C 432.285156 707.476562 436.230469 711.421875 441.089844 711.421875 L 505.136719 711.421875 C 509.996094 711.421875 513.941406 707.476562 513.941406 702.617188 L 513.941406 670.25 C 513.941406 665.390625 509.996094 661.445312 505.136719 661.445312 Z M 118.820312 661.445312 C 113.960938 661.445312 110.015625 665.390625 110.015625 670.25 L 110.015625 702.617188 C 110.015625 707.476562 113.960938 711.421875 118.820312 711.421875 L 182.867188 711.421875 C 187.726562 711.421875 191.671875 707.476562 191.671875 702.617188 L 191.671875 670.25 C 191.671875 665.390625 187.726562 661.445312 182.867188 661.445312 Z M 118.820312 661.445312 " fill-opacity="1" fill-rule="evenodd"/></g><g clip-path="url(#ae38d56d29)"><path fill="#39a7ff" d="M 721.890625 752.785156 C 721.890625 759.394531 716.53125 764.753906 709.921875 764.753906 L -10.667969 764.753906 C -17.273438 764.753906 -22.636719 759.394531 -22.636719 752.785156 C -22.636719 746.179688 -17.273438 740.816406 -10.667969 740.816406 L 709.921875 740.816406 C 716.53125 740.816406 721.890625 746.179688 721.890625 752.785156 Z M 566.175781 343.089844 C 565.132812 343.089844 564.109375 343.074219 563.066406 343.054688 C 558.1875 342.960938 554.207031 346.925781 554.207031 351.800781 L 554.207031 708.152344 C 554.207031 712.992188 558.113281 716.898438 562.953125 716.898438 L 569.394531 716.898438 C 574.234375 716.898438 578.140625 712.992188 578.140625 708.152344 L 578.140625 351.800781 C 578.140625 346.925781 574.160156 342.960938 569.28125 343.054688 C 568.257812 343.074219 567.214844 343.089844 566.175781 343.089844 Z M 472.996094 280.550781 C 449.152344 256.707031 434.390625 223.742188 434.390625 187.355469 C 434.390625 150.964844 449.132812 118.019531 472.996094 94.175781 C 496.820312 70.332031 529.785156 55.59375 566.175781 55.59375 C 602.5625 55.59375 635.507812 70.332031 659.351562 94.175781 C 683.195312 118.019531 697.957031 150.964844 697.957031 187.355469 C 697.957031 223.742188 683.195312 256.707031 659.351562 280.550781 C 635.507812 304.394531 602.5625 319.15625 566.175781 319.15625 C 529.785156 319.15625 496.820312 304.414062 472.996094 280.550781 Z M 525.617188 261.378906 C 525.617188 267.988281 530.976562 273.347656 537.582031 273.347656 C 544.191406 273.347656 549.550781 267.988281 549.550781 261.378906 L 549.550781 208.742188 L 582.609375 208.742188 C 593.648438 208.742188 603.679688 204.238281 610.9375 196.976562 C 618.199219 189.71875 622.703125 179.6875 622.703125 168.648438 L 622.703125 141.492188 C 622.703125 130.453125 618.199219 120.421875 610.9375 113.164062 C 603.679688 105.902344 593.648438 101.398438 582.609375 101.398438 L 537.582031 101.398438 C 530.976562 101.398438 525.617188 106.757812 525.617188 113.367188 Z M 594.019531 180.039062 C 596.960938 177.097656 598.765625 173.058594 598.765625 168.628906 L 598.765625 141.492188 C 598.765625 137.0625 596.941406 133.023438 594.019531 130.082031 C 591.078125 127.140625 587.039062 125.316406 582.609375 125.316406 L 549.550781 125.316406 L 549.550781 184.785156 L 582.609375 184.785156 C 587.039062 184.804688 591.078125 182.980469 594.019531 180.039062 Z M 72.179688 458.492188 L 427.746094 458.492188 C 439.660156 458.492188 447.941406 446.636719 443.828125 435.449219 L 397.445312 309.140625 C 394.96875 302.402344 388.546875 297.917969 381.363281 297.917969 L 118.5625 297.917969 C 111.378906 297.917969 104.957031 302.402344 102.480469 309.140625 L 56.097656 435.449219 C 51.984375 446.617188 60.265625 458.492188 72.179688 458.492188 Z M 1.300781 628.023438 L 1.300781 497.394531 C 1.300781 489.128906 8 482.429688 16.265625 482.429688 L 483.644531 482.429688 C 491.90625 482.429688 498.609375 489.128906 498.609375 497.394531 L 498.609375 628.023438 C 498.609375 636.285156 491.90625 642.988281 483.644531 642.988281 L 16.285156 642.988281 C 8.019531 642.988281 1.300781 636.285156 1.300781 628.023438 Z M 366.417969 562.707031 C 366.417969 575.738281 371.742188 587.558594 380.285156 596.175781 C 388.847656 604.738281 400.683594 610.042969 413.75 610.042969 C 426.816406 610.042969 438.65625 604.738281 447.21875 596.175781 L 447.925781 595.410156 C 456.078125 586.886719 461.082031 575.363281 461.082031 562.726562 C 461.082031 549.714844 455.761719 537.878906 447.21875 529.261719 C 438.65625 520.699219 426.816406 515.394531 413.75 515.394531 C 400.683594 515.394531 388.847656 520.699219 380.285156 529.261719 L 379.578125 530.042969 C 371.425781 538.53125 366.417969 550.070312 366.417969 562.707031 Z M 38.84375 562.707031 C 38.84375 575.347656 43.851562 586.886719 52.003906 595.394531 L 52.710938 596.15625 C 61.273438 604.71875 73.109375 610.023438 86.175781 610.023438 C 99.242188 610.023438 111.082031 604.71875 119.625 596.136719 C 128.207031 587.558594 133.511719 575.71875 133.511719 562.707031 C 133.511719 550.070312 128.503906 538.53125 120.351562 530.023438 L 119.644531 529.242188 C 111.082031 520.679688 99.242188 515.375 86.175781 515.375 C 73.109375 515.375 61.273438 520.679688 52.730469 529.261719 C 44.167969 537.859375 38.84375 549.699219 38.84375 562.707031 Z M 69.628906 579.253906 C 73.855469 583.480469 79.71875 586.105469 86.175781 586.105469 C 92.636719 586.105469 98.5 583.480469 102.78125 579.253906 C 106.988281 575.046875 109.59375 569.203125 109.59375 562.707031 C 109.59375 556.472656 107.191406 550.832031 103.28125 546.664062 L 102.742188 546.160156 C 98.519531 541.9375 92.65625 539.3125 86.195312 539.3125 C 79.738281 539.3125 73.875 541.9375 69.59375 546.160156 C 65.386719 550.367188 62.78125 556.210938 62.78125 562.707031 C 62.78125 568.945312 65.179688 574.582031 69.089844 578.753906 Z M 413.75 586.105469 C 420.210938 586.105469 426.074219 583.480469 430.296875 579.253906 L 430.835938 578.753906 C 434.746094 574.601562 437.164062 568.945312 437.164062 562.707031 C 437.164062 556.210938 434.558594 550.367188 430.316406 546.160156 C 426.089844 541.9375 420.226562 539.3125 413.769531 539.3125 C 407.308594 539.3125 401.445312 541.9375 397.222656 546.160156 L 396.683594 546.664062 C 392.773438 550.832031 390.371094 556.472656 390.371094 562.707031 C 390.371094 569.203125 392.976562 575.046875 397.222656 579.253906 C 401.429688 583.480469 407.292969 586.105469 413.75 586.105469 Z M 379.074219 666.921875 C 374.214844 666.921875 370.269531 670.871094 370.269531 675.726562 L 370.269531 708.09375 C 370.269531 712.953125 374.214844 716.898438 379.074219 716.898438 L 443.121094 716.898438 C 447.980469 716.898438 451.925781 712.953125 451.925781 708.09375 L 451.925781 675.726562 C 451.925781 670.871094 447.980469 666.921875 443.121094 666.921875 Z M 56.804688 666.921875 C 51.949219 666.921875 48 670.871094 48 675.726562 L 48 708.09375 C 48 712.953125 51.949219 716.898438 56.804688 716.898438 L 120.851562 716.898438 C 125.710938 716.898438 129.65625 712.953125 129.65625 708.09375 L 129.65625 675.726562 C 129.65625 670.871094 125.710938 666.921875 120.851562 666.921875 Z M 56.804688 666.921875 " fill-opacity="1" fill-rule="evenodd"/></g><g clip-path="url(#7c422d2f6c)"><path fill="#39a7ff" d="M 718.878906 761.871094 C 718.878906 768.480469 713.519531 773.839844 706.910156 773.839844 L -13.679688 773.839844 C -20.285156 773.839844 -25.648438 768.480469 -25.648438 761.871094 C -25.648438 755.265625 -20.285156 749.902344 -13.679688 749.902344 L 706.910156 749.902344 C 713.519531 749.902344 718.878906 755.265625 718.878906 761.871094 Z M 563.164062 352.175781 C 562.121094 352.175781 561.097656 352.160156 560.054688 352.140625 C 555.175781 352.046875 551.195312 356.011719 551.195312 360.886719 L 551.195312 717.238281 C 551.195312 722.078125 555.101562 725.984375 559.941406 725.984375 L 566.382812 725.984375 C 571.222656 725.984375 575.128906 722.078125 575.128906 717.238281 L 575.128906 360.886719 C 575.128906 356.011719 571.148438 352.046875 566.269531 352.140625 C 565.246094 352.15625 564.203125 352.175781 563.164062 352.175781 Z M 469.984375 289.636719 C 446.140625 265.792969 431.378906 232.828125 431.378906 196.441406 C 431.378906 160.050781 446.121094 127.105469 469.984375 103.261719 C 493.808594 79.417969 526.773438 64.675781 563.164062 64.675781 C 599.550781 64.675781 632.496094 79.417969 656.339844 103.261719 C 680.183594 127.105469 694.945312 160.050781 694.945312 196.441406 C 694.945312 232.828125 680.183594 265.792969 656.339844 289.636719 C 632.496094 313.480469 599.550781 328.242188 563.164062 328.242188 C 526.773438 328.242188 493.808594 313.5 469.984375 289.636719 Z M 522.605469 270.464844 C 522.605469 277.074219 527.964844 282.433594 534.570312 282.433594 C 541.179688 282.433594 546.539062 277.074219 546.539062 270.464844 L 546.539062 217.828125 L 579.597656 217.828125 C 590.636719 217.828125 600.667969 213.324219 607.925781 206.0625 C 615.1875 198.804688 619.691406 188.773438 619.691406 177.734375 L 619.691406 150.578125 C 619.691406 139.539062 615.1875 129.507812 607.925781 122.25 C 600.667969 114.988281 590.636719 110.484375 579.597656 110.484375 L 534.570312 110.484375 C 527.964844 110.484375 522.605469 115.84375 522.605469 122.453125 Z M 591.007812 189.125 C 593.949219 186.183594 595.753906 182.144531 595.753906 177.714844 L 595.753906 150.578125 C 595.753906 146.148438 593.929688 142.109375 591.007812 139.167969 C 588.066406 136.226562 584.027344 134.402344 579.597656 134.402344 L 546.539062 134.402344 L 546.539062 193.871094 L 579.597656 193.871094 C 584.027344 193.890625 588.066406 192.066406 591.007812 189.125 Z M 69.167969 467.578125 L 424.734375 467.578125 C 436.648438 467.578125 444.929688 455.722656 440.816406 444.535156 L 394.433594 318.226562 C 391.957031 311.488281 385.535156 307.003906 378.351562 307.003906 L 115.550781 307.003906 C 108.367188 307.003906 101.945312 311.488281 99.46875 318.226562 L 53.085938 444.535156 C 48.972656 455.703125 57.253906 467.578125 69.167969 467.578125 Z M -1.710938 637.109375 L -1.710938 506.480469 C -1.710938 498.214844 4.988281 491.515625 13.253906 491.515625 L 480.632812 491.515625 C 488.894531 491.515625 495.597656 498.214844 495.597656 506.480469 L 495.597656 637.109375 C 495.597656 645.371094 488.894531 652.074219 480.632812 652.074219 L 13.273438 652.074219 C 5.007812 652.074219 -1.710938 645.371094 -1.710938 637.109375 Z M 363.40625 571.792969 C 363.40625 584.824219 368.730469 596.640625 377.273438 605.261719 C 385.835938 613.824219 397.671875 619.128906 410.738281 619.128906 C 423.804688 619.128906 435.644531 613.824219 444.207031 605.261719 L 444.914062 604.496094 C 453.066406 595.972656 458.070312 584.449219 458.070312 571.8125 C 458.070312 558.800781 452.75 546.964844 444.207031 538.347656 C 435.644531 529.785156 423.804688 524.480469 410.738281 524.480469 C 397.671875 524.480469 385.835938 529.785156 377.273438 538.347656 L 376.566406 539.128906 C 368.414062 547.613281 363.40625 559.15625 363.40625 571.792969 Z M 35.832031 571.792969 C 35.832031 584.433594 40.839844 595.972656 48.992188 604.480469 L 49.699219 605.242188 C 58.261719 613.804688 70.097656 619.109375 83.164062 619.109375 C 96.230469 619.109375 108.070312 613.804688 116.613281 605.222656 C 125.195312 596.640625 130.5 584.804688 130.5 571.792969 C 130.5 559.15625 125.492188 547.617188 117.339844 539.109375 L 116.632812 538.328125 C 108.070312 529.765625 96.230469 524.460938 83.164062 524.460938 C 70.097656 524.460938 58.261719 529.765625 49.71875 538.347656 C 41.15625 546.945312 35.832031 558.78125 35.832031 571.792969 Z M 66.617188 588.339844 C 70.84375 592.566406 76.707031 595.191406 83.164062 595.191406 C 89.625 595.191406 95.488281 592.566406 99.769531 588.339844 C 103.976562 584.132812 106.582031 578.289062 106.582031 571.792969 C 106.582031 565.558594 104.179688 559.917969 100.269531 555.75 L 99.730469 555.246094 C 95.507812 551.019531 89.644531 548.398438 83.183594 548.398438 C 76.726562 548.398438 70.863281 551.019531 66.582031 555.246094 C 62.375 559.453125 59.769531 565.296875 59.769531 571.792969 C 59.769531 578.027344 62.167969 583.667969 66.078125 587.839844 Z M 410.738281 595.191406 C 417.199219 595.191406 423.0625 592.566406 427.285156 588.339844 L 427.824219 587.839844 C 431.734375 583.6875 434.152344 578.027344 434.152344 571.792969 C 434.152344 565.296875 431.546875 559.453125 427.304688 555.246094 C 423.078125 551.019531 417.214844 548.398438 410.757812 548.398438 C 404.296875 548.398438 398.433594 551.019531 394.210938 555.246094 L 393.671875 555.75 C 389.761719 559.917969 387.359375 565.558594 387.359375 571.792969 C 387.359375 578.289062 389.964844 584.132812 394.210938 588.339844 C 398.417969 592.566406 404.28125 595.191406 410.738281 595.191406 Z M 376.0625 676.007812 C 371.203125 676.007812 367.257812 679.953125 367.257812 684.8125 L 367.257812 717.179688 C 367.257812 722.039062 371.203125 725.984375 376.0625 725.984375 L 440.109375 725.984375 C 444.96875 725.984375 448.914062 722.039062 448.914062 717.179688 L 448.914062 684.8125 C 448.914062 679.953125 444.96875 676.007812 440.109375 676.007812 Z M 53.792969 676.007812 C 48.9375 676.007812 44.988281 679.953125 44.988281 684.8125 L 44.988281 717.179688 C 44.988281 722.039062 48.9375 725.984375 53.792969 725.984375 L 117.839844 725.984375 C 122.699219 725.984375 126.644531 722.039062 126.644531 717.179688 L 126.644531 684.8125 C 126.644531 679.953125 122.699219 676.007812 117.839844 676.007812 Z M 53.792969 676.007812 " fill-opacity="1" fill-rule="evenodd"/></g><g clip-path="url(#652caf3104)"><path fill="#e0f4ff" d="M 1012.003906 840.019531 C 1012.003906 849.644531 1004.195312 857.453125 994.574219 857.453125 L -54.96875 857.453125 C -64.59375 857.453125 -72.402344 849.644531 -72.402344 840.019531 C -72.402344 830.394531 -64.59375 822.589844 -54.96875 822.589844 L 994.574219 822.589844 C 1004.195312 822.589844 1012.003906 830.394531 1012.003906 840.019531 Z M 785.203125 243.296875 C 783.683594 243.296875 782.191406 243.269531 780.671875 243.246094 C 773.570312 243.109375 767.769531 248.882812 767.769531 255.984375 L 767.769531 775.011719 C 767.769531 782.058594 773.460938 787.75 780.511719 787.75 L 789.890625 787.75 C 796.941406 787.75 802.632812 782.058594 802.632812 775.011719 L 802.632812 255.984375 C 802.632812 248.882812 796.832031 243.109375 789.730469 243.246094 C 788.238281 243.269531 786.71875 243.296875 785.203125 243.296875 Z M 649.488281 152.207031 C 614.757812 117.480469 593.261719 69.46875 593.261719 16.46875 C 593.261719 -36.53125 614.734375 -84.515625 649.488281 -119.246094 C 684.1875 -153.972656 732.199219 -175.445312 785.203125 -175.445312 C 838.203125 -175.445312 886.1875 -153.972656 920.914062 -119.246094 C 955.644531 -84.515625 977.140625 -36.53125 977.140625 16.46875 C 977.140625 69.46875 955.644531 117.480469 920.914062 152.207031 C 886.1875 186.9375 838.203125 208.433594 785.203125 208.433594 C 732.199219 208.433594 684.1875 186.964844 649.488281 152.207031 Z M 726.128906 124.285156 C 726.128906 133.910156 733.9375 141.714844 743.558594 141.714844 C 753.183594 141.714844 760.992188 133.910156 760.992188 124.285156 L 760.992188 47.617188 L 809.140625 47.617188 C 825.214844 47.617188 839.828125 41.058594 850.402344 30.484375 C 860.972656 19.910156 867.535156 5.296875 867.535156 -10.777344 L 867.535156 -50.332031 C 867.535156 -66.40625 860.972656 -81.019531 850.402344 -91.59375 C 839.828125 -102.167969 825.214844 -108.726562 809.140625 -108.726562 L 743.558594 -108.726562 C 733.9375 -108.726562 726.128906 -100.917969 726.128906 -91.296875 Z M 825.757812 5.8125 C 830.042969 1.53125 832.671875 -4.351562 832.671875 -10.804688 L 832.671875 -50.332031 C 832.671875 -56.785156 830.015625 -62.667969 825.757812 -66.949219 C 821.476562 -71.234375 815.589844 -73.890625 809.140625 -73.890625 L 760.992188 -73.890625 L 760.992188 12.726562 L 809.140625 12.726562 C 815.589844 12.753906 821.476562 10.097656 825.757812 5.8125 Z M 65.699219 411.382812 L 583.582031 411.382812 C 600.933594 411.382812 612.996094 394.113281 607.007812 377.820312 L 539.449219 193.847656 C 535.84375 184.035156 526.488281 177.503906 516.023438 177.503906 L 133.257812 177.503906 C 122.792969 177.503906 113.4375 184.035156 109.832031 193.847656 L 42.273438 377.820312 C 36.28125 394.085938 48.347656 411.382812 65.699219 411.382812 Z M -37.539062 658.300781 L -37.539062 468.042969 C -37.539062 456.003906 -27.777344 446.246094 -15.742188 446.246094 L 664.996094 446.246094 C 677.03125 446.246094 686.792969 456.003906 686.792969 468.042969 L 686.792969 658.300781 C 686.792969 670.335938 677.03125 680.097656 664.996094 680.097656 L -15.714844 680.097656 C -27.75 680.097656 -37.539062 670.335938 -37.539062 658.300781 Z M 494.253906 563.171875 C 494.253906 582.148438 502.007812 599.363281 514.453125 611.914062 C 526.921875 624.386719 544.164062 632.113281 563.195312 632.113281 C 582.226562 632.113281 599.46875 624.386719 611.941406 611.914062 L 612.96875 610.804688 C 624.84375 598.386719 632.136719 581.605469 632.136719 563.199219 C 632.136719 544.25 624.382812 527.007812 611.941406 514.453125 C 599.46875 501.984375 582.226562 494.257812 563.195312 494.257812 C 544.164062 494.257812 526.921875 501.984375 514.453125 514.453125 L 513.421875 515.59375 C 501.546875 527.953125 494.253906 544.761719 494.253906 563.171875 Z M 17.144531 563.171875 C 17.144531 581.578125 24.4375 598.386719 36.308594 610.777344 L 37.339844 611.886719 C 49.8125 624.359375 67.054688 632.085938 86.085938 632.085938 C 105.117188 632.085938 122.359375 624.359375 134.800781 611.859375 C 147.300781 599.363281 155.027344 582.121094 155.027344 563.171875 C 155.027344 544.761719 147.734375 527.957031 135.859375 515.566406 L 134.828125 514.425781 C 122.359375 501.957031 105.117188 494.230469 86.085938 494.230469 C 67.054688 494.230469 49.8125 501.957031 37.367188 514.453125 C 24.898438 526.980469 17.144531 544.222656 17.144531 563.171875 Z M 61.984375 587.273438 C 68.136719 593.425781 76.675781 597.25 86.085938 597.25 C 95.492188 597.25 104.03125 593.425781 110.265625 587.273438 C 116.394531 581.144531 120.1875 572.632812 120.1875 563.171875 C 120.1875 554.089844 116.691406 545.875 111 539.800781 L 110.210938 539.070312 C 104.058594 532.917969 95.519531 529.09375 86.113281 529.09375 C 76.703125 529.09375 68.164062 532.917969 61.929688 539.070312 C 55.800781 545.195312 52.007812 553.710938 52.007812 563.171875 C 52.007812 572.253906 55.503906 580.46875 61.199219 586.539062 Z M 563.195312 597.25 C 572.601562 597.25 581.144531 593.425781 587.296875 587.273438 L 588.082031 586.539062 C 593.777344 580.496094 597.300781 572.253906 597.300781 563.171875 C 597.300781 553.710938 593.503906 545.195312 587.324219 539.070312 C 581.171875 532.917969 572.628906 529.09375 563.222656 529.09375 C 553.816406 529.09375 545.277344 532.917969 539.121094 539.070312 L 538.335938 539.800781 C 532.644531 545.875 529.144531 554.089844 529.144531 563.171875 C 529.144531 572.632812 532.941406 581.144531 539.121094 587.273438 C 545.25 593.425781 553.789062 597.25 563.195312 597.25 Z M 512.691406 714.960938 C 505.613281 714.960938 499.867188 720.707031 499.867188 727.785156 L 499.867188 774.929688 C 499.867188 782.003906 505.613281 787.75 512.691406 787.75 L 605.976562 787.75 C 613.050781 787.75 618.800781 782.003906 618.800781 774.929688 L 618.800781 727.785156 C 618.800781 720.707031 613.050781 714.960938 605.976562 714.960938 Z M 43.304688 714.960938 C 36.230469 714.960938 30.480469 720.707031 30.480469 727.785156 L 30.480469 774.929688 C 30.480469 782.003906 36.230469 787.75 43.304688 787.75 L 136.589844 787.75 C 143.667969 787.75 149.414062 782.003906 149.414062 774.929688 L 149.414062 727.785156 C 149.414062 720.707031 143.667969 714.960938 136.589844 714.960938 Z M 43.304688 714.960938 " fill-opacity="1" fill-rule="evenodd"/></g><g clip-path="url(#7a33de2c4f)"><path fill="#e0f4ff" d="M 1339.980469 840.019531 C 1339.980469 849.644531 1332.171875 857.453125 1322.546875 857.453125 L 273.003906 857.453125 C 263.382812 857.453125 255.574219 849.644531 255.574219 840.019531 C 255.574219 830.394531 263.382812 822.589844 273.003906 822.589844 L 1322.546875 822.589844 C 1332.171875 822.589844 1339.980469 830.394531 1339.980469 840.019531 Z M 1113.175781 243.296875 C 1111.65625 243.296875 1110.167969 243.269531 1108.648438 243.246094 C 1101.546875 243.109375 1095.746094 248.882812 1095.746094 255.984375 L 1095.746094 775.011719 C 1095.746094 782.058594 1101.4375 787.75 1108.484375 787.75 L 1117.867188 787.75 C 1124.914062 787.75 1130.609375 782.058594 1130.609375 775.011719 L 1130.609375 255.984375 C 1130.609375 248.882812 1124.804688 243.109375 1117.703125 243.246094 C 1116.210938 243.269531 1114.695312 243.296875 1113.175781 243.296875 Z M 977.460938 152.207031 C 942.734375 117.480469 921.238281 69.46875 921.238281 16.46875 C 921.238281 -36.53125 942.707031 -84.515625 977.460938 -119.246094 C 1012.164062 -153.972656 1060.175781 -175.445312 1113.175781 -175.445312 C 1166.175781 -175.445312 1214.160156 -153.972656 1248.890625 -119.246094 C 1283.617188 -84.515625 1305.117188 -36.53125 1305.117188 16.46875 C 1305.117188 69.46875 1283.617188 117.480469 1248.890625 152.207031 C 1214.160156 186.9375 1166.175781 208.433594 1113.175781 208.433594 C 1060.175781 208.433594 1012.164062 186.964844 977.460938 152.207031 Z M 1054.101562 124.285156 C 1054.101562 133.910156 1061.910156 141.714844 1071.535156 141.714844 C 1081.160156 141.714844 1088.96875 133.910156 1088.96875 124.285156 L 1088.96875 47.617188 L 1137.113281 47.617188 C 1153.191406 47.617188 1167.804688 41.058594 1178.375 30.484375 C 1188.949219 19.910156 1195.511719 5.296875 1195.511719 -10.777344 L 1195.511719 -50.332031 C 1195.511719 -66.40625 1188.949219 -81.019531 1178.375 -91.59375 C 1167.804688 -102.167969 1153.191406 -108.726562 1137.113281 -108.726562 L 1071.535156 -108.726562 C 1061.910156 -108.726562 1054.101562 -100.917969 1054.101562 -91.296875 Z M 1153.734375 5.8125 C 1158.015625 1.53125 1160.644531 -4.351562 1160.644531 -10.804688 L 1160.644531 -50.332031 C 1160.644531 -56.785156 1157.988281 -62.667969 1153.734375 -66.949219 C 1149.449219 -71.234375 1143.566406 -73.890625 1137.113281 -73.890625 L 1088.96875 -73.890625 L 1088.96875 12.726562 L 1137.113281 12.726562 C 1143.566406 12.753906 1149.449219 10.097656 1153.734375 5.8125 Z M 393.671875 411.382812 L 911.558594 411.382812 C 928.910156 411.382812 940.972656 394.113281 934.980469 377.820312 L 867.421875 193.847656 C 863.816406 184.035156 854.464844 177.503906 844 177.503906 L 461.230469 177.503906 C 450.765625 177.503906 441.414062 184.035156 437.808594 193.847656 L 370.25 377.820312 C 364.257812 394.085938 376.320312 411.382812 393.671875 411.382812 Z M 290.4375 658.300781 L 290.4375 468.042969 C 290.4375 456.003906 300.195312 446.246094 312.234375 446.246094 L 992.96875 446.246094 C 1005.007812 446.246094 1014.765625 456.003906 1014.765625 468.042969 L 1014.765625 658.300781 C 1014.765625 670.335938 1005.007812 680.097656 992.96875 680.097656 L 312.261719 680.097656 C 300.222656 680.097656 290.4375 670.335938 290.4375 658.300781 Z M 822.230469 563.171875 C 822.230469 582.148438 829.984375 599.363281 842.425781 611.914062 C 854.898438 624.386719 872.140625 632.113281 891.171875 632.113281 C 910.203125 632.113281 927.445312 624.386719 939.914062 611.914062 L 940.945312 610.804688 C 952.820312 598.386719 960.113281 581.605469 960.113281 563.199219 C 960.113281 544.25 952.359375 527.007812 939.914062 514.453125 C 927.445312 501.984375 910.203125 494.257812 891.171875 494.257812 C 872.140625 494.257812 854.898438 501.984375 842.425781 514.453125 L 841.398438 515.59375 C 829.523438 527.953125 822.230469 544.761719 822.230469 563.171875 Z M 345.117188 563.171875 C 345.117188 581.578125 352.410156 598.386719 364.285156 610.777344 L 365.316406 611.886719 C 377.785156 624.359375 395.027344 632.085938 414.058594 632.085938 C 433.089844 632.085938 450.332031 624.359375 462.777344 611.859375 C 475.273438 599.363281 483 582.121094 483 563.171875 C 483 544.761719 475.707031 527.957031 463.832031 515.566406 L 462.804688 514.425781 C 450.332031 501.957031 433.089844 494.230469 414.058594 494.230469 C 395.027344 494.230469 377.785156 501.957031 365.34375 514.453125 C 352.871094 526.980469 345.117188 544.222656 345.117188 563.171875 Z M 389.957031 587.273438 C 396.113281 593.425781 404.652344 597.25 414.058594 597.25 C 423.46875 597.25 432.007812 593.425781 438.242188 587.273438 C 444.367188 581.144531 448.164062 572.632812 448.164062 563.171875 C 448.164062 554.089844 444.667969 545.875 438.972656 539.800781 L 438.1875 539.070312 C 432.035156 532.917969 423.492188 529.09375 414.085938 529.09375 C 404.679688 529.09375 396.140625 532.917969 389.90625 539.070312 C 383.777344 545.195312 379.980469 553.710938 379.980469 563.171875 C 379.980469 572.253906 383.480469 580.46875 389.171875 586.539062 Z M 891.171875 597.25 C 900.578125 597.25 909.117188 593.425781 915.273438 587.273438 L 916.058594 586.539062 C 921.75 580.496094 925.277344 572.253906 925.277344 563.171875 C 925.277344 553.710938 921.480469 545.195312 915.300781 539.070312 C 909.144531 532.917969 900.605469 529.09375 891.199219 529.09375 C 881.792969 529.09375 873.25 532.917969 867.097656 539.070312 L 866.3125 539.800781 C 860.617188 545.875 857.121094 554.089844 857.121094 563.171875 C 857.121094 572.632812 860.917969 581.144531 867.097656 587.273438 C 873.222656 593.425781 881.765625 597.25 891.171875 597.25 Z M 840.664062 714.960938 C 833.589844 714.960938 827.84375 720.707031 827.84375 727.785156 L 827.84375 774.929688 C 827.84375 782.003906 833.589844 787.75 840.664062 787.75 L 933.949219 787.75 C 941.027344 787.75 946.773438 782.003906 946.773438 774.929688 L 946.773438 727.785156 C 946.773438 720.707031 941.027344 714.960938 933.949219 714.960938 Z M 371.28125 714.960938 C 364.203125 714.960938 358.457031 720.707031 358.457031 727.785156 L 358.457031 774.929688 C 358.457031 782.003906 364.203125 787.75 371.28125 787.75 L 464.566406 787.75 C 471.640625 787.75 477.390625 782.003906 477.390625 774.929688 L 477.390625 727.785156 C 477.390625 720.707031 471.640625 714.960938 464.566406 714.960938 Z M 371.28125 714.960938 " fill-opacity="1" fill-rule="evenodd"/></g><g clip-path="url(#319fdd25e6)"><path fill="#e0f4ff" d="M 781.339844 719.515625 C 781.339844 725.808594 776.234375 730.914062 769.941406 730.914062 L 83.617188 730.914062 C 77.320312 730.914062 72.214844 725.808594 72.214844 719.515625 C 72.214844 713.21875 77.320312 708.113281 83.617188 708.113281 L 769.941406 708.113281 C 776.234375 708.113281 781.339844 713.21875 781.339844 719.515625 Z M 633.027344 329.300781 C 632.035156 329.300781 631.058594 329.28125 630.066406 329.265625 C 625.421875 329.175781 621.628906 332.953125 621.628906 337.597656 L 621.628906 677 C 621.628906 681.609375 625.351562 685.335938 629.960938 685.335938 L 636.09375 685.335938 C 640.703125 685.335938 644.425781 681.609375 644.425781 677 L 644.425781 337.597656 C 644.425781 332.953125 640.632812 329.175781 635.988281 329.265625 C 635.011719 329.28125 634.019531 329.300781 633.027344 329.300781 Z M 544.28125 269.734375 C 521.570312 247.023438 507.511719 215.628906 507.511719 180.96875 C 507.511719 146.308594 521.554688 114.933594 544.28125 92.222656 C 566.972656 69.511719 598.371094 55.472656 633.027344 55.472656 C 667.6875 55.472656 699.066406 69.511719 721.773438 92.222656 C 744.484375 114.933594 758.542969 146.308594 758.542969 180.96875 C 758.542969 215.628906 744.484375 247.023438 721.773438 269.734375 C 699.066406 292.445312 667.6875 306.5 633.027344 306.5 C 598.371094 306.5 566.972656 292.460938 544.28125 269.734375 Z M 594.398438 251.472656 C 594.398438 257.765625 599.503906 262.871094 605.796875 262.871094 C 612.089844 262.871094 617.195312 257.765625 617.195312 251.472656 L 617.195312 201.339844 L 648.683594 201.339844 C 659.195312 201.339844 668.75 197.046875 675.664062 190.132812 C 682.578125 183.21875 686.867188 173.664062 686.867188 163.152344 L 686.867188 137.285156 C 686.867188 126.773438 682.578125 117.21875 675.664062 110.304688 C 668.75 103.390625 659.195312 99.101562 648.683594 99.101562 L 605.796875 99.101562 C 599.503906 99.101562 594.398438 104.207031 594.398438 110.5 Z M 659.550781 174 C 662.351562 171.199219 664.070312 167.355469 664.070312 163.132812 L 664.070312 137.285156 C 664.070312 133.066406 662.332031 129.21875 659.550781 126.417969 C 656.75 123.617188 652.902344 121.882812 648.683594 121.882812 L 617.195312 121.882812 L 617.195312 178.523438 L 648.683594 178.523438 C 652.902344 178.539062 656.75 176.804688 659.550781 174 Z M 162.523438 439.214844 L 501.183594 439.214844 C 512.53125 439.214844 520.417969 427.921875 516.5 417.265625 L 472.324219 296.964844 C 469.964844 290.546875 463.847656 286.273438 457.003906 286.273438 L 206.703125 286.273438 C 199.859375 286.273438 193.742188 290.546875 191.386719 296.964844 L 147.207031 417.265625 C 143.289062 427.902344 151.175781 439.214844 162.523438 439.214844 Z M 95.015625 600.683594 L 95.015625 476.265625 C 95.015625 468.394531 101.398438 462.011719 109.269531 462.011719 L 554.421875 462.011719 C 562.292969 462.011719 568.675781 468.394531 568.675781 476.265625 L 568.675781 600.683594 C 568.675781 608.554688 562.292969 614.9375 554.421875 614.9375 L 109.285156 614.9375 C 101.414062 614.9375 95.015625 608.554688 95.015625 600.683594 Z M 442.769531 538.472656 C 442.769531 550.882812 447.839844 562.140625 455.976562 570.347656 C 464.132812 578.503906 475.40625 583.558594 487.851562 583.558594 C 500.296875 583.558594 511.574219 578.503906 519.726562 570.347656 L 520.402344 569.621094 C 528.167969 561.503906 532.933594 550.53125 532.933594 538.492188 C 532.933594 526.101562 527.863281 514.824219 519.726562 506.617188 C 511.574219 498.460938 500.296875 493.410156 487.851562 493.410156 C 475.40625 493.410156 464.132812 498.460938 455.976562 506.617188 L 455.304688 507.363281 C 447.539062 515.445312 442.769531 526.4375 442.769531 538.472656 Z M 130.773438 538.472656 C 130.773438 550.511719 135.542969 561.503906 143.304688 569.605469 L 143.980469 570.332031 C 152.136719 578.488281 163.410156 583.539062 175.855469 583.539062 C 188.300781 583.539062 199.574219 578.488281 207.710938 570.3125 C 215.886719 562.140625 220.9375 550.867188 220.9375 538.472656 C 220.9375 526.4375 216.167969 515.445312 208.402344 507.34375 L 207.730469 506.597656 C 199.574219 498.445312 188.300781 493.390625 175.855469 493.390625 C 163.410156 493.390625 152.136719 498.445312 143.996094 506.617188 C 135.84375 514.808594 130.773438 526.082031 130.773438 538.472656 Z M 160.09375 554.234375 C 164.117188 558.257812 169.703125 560.757812 175.855469 560.757812 C 182.007812 560.757812 187.589844 558.257812 191.667969 554.234375 C 195.675781 550.226562 198.15625 544.660156 198.15625 538.472656 C 198.15625 532.535156 195.871094 527.164062 192.148438 523.191406 L 191.632812 522.714844 C 187.609375 518.691406 182.023438 516.191406 175.871094 516.191406 C 169.722656 516.191406 164.136719 518.691406 160.058594 522.714844 C 156.054688 526.71875 153.570312 532.289062 153.570312 538.472656 C 153.570312 544.414062 155.859375 549.785156 159.582031 553.757812 Z M 487.851562 560.757812 C 494.003906 560.757812 499.589844 558.257812 503.613281 554.234375 L 504.125 553.757812 C 507.851562 549.800781 510.152344 544.414062 510.152344 538.472656 C 510.152344 532.289062 507.671875 526.71875 503.628906 522.714844 C 499.605469 518.691406 494.023438 516.191406 487.871094 516.191406 C 481.71875 516.191406 476.132812 518.691406 472.109375 522.714844 L 471.59375 523.191406 C 467.871094 527.164062 465.585938 532.535156 465.585938 538.472656 C 465.585938 544.660156 468.066406 550.226562 472.109375 554.234375 C 476.117188 558.257812 481.699219 560.757812 487.851562 560.757812 Z M 454.824219 637.734375 C 450.199219 637.734375 446.441406 641.492188 446.441406 646.121094 L 446.441406 676.949219 C 446.441406 681.574219 450.199219 685.335938 454.824219 685.335938 L 515.828125 685.335938 C 520.453125 685.335938 524.210938 681.574219 524.210938 676.949219 L 524.210938 646.121094 C 524.210938 641.492188 520.453125 637.734375 515.828125 637.734375 Z M 147.878906 637.734375 C 143.253906 637.734375 139.496094 641.492188 139.496094 646.121094 L 139.496094 676.949219 C 139.496094 681.574219 143.253906 685.335938 147.878906 685.335938 L 208.882812 685.335938 C 213.507812 685.335938 217.269531 681.574219 217.269531 676.949219 L 217.269531 646.121094 C 217.269531 641.492188 213.507812 637.734375 208.882812 637.734375 Z M 147.878906 637.734375 " fill-opacity="1" fill-rule="evenodd"/></g><g clip-path="url(#d31081e765)"><g clip-path="url(#b443d62372)"><path fill="#e0f4ff" d="M 533.851562 71.925781 L 727.050781 71.925781 L 727.050781 278.605469 L 533.851562 278.605469 Z M 533.851562 71.925781 " fill-opacity="1" fill-rule="nonzero"/></g></g><g clip-path="url(#1afe4adf69)"><path fill="#39a7ff" d="M 650.234375 117.535156 L 596.914062 117.535156 C 595.226562 117.535156 593.859375 118.902344 593.859375 120.589844 L 593.859375 248.816406 C 593.859375 250.5 595.226562 251.871094 596.914062 251.871094 L 618.296875 251.871094 C 619.980469 251.871094 621.351562 250.5 621.351562 248.816406 L 621.351562 209.101562 L 649.226562 209.101562 C 677.777344 209.101562 697.722656 190.101562 697.722656 162.898438 C 697.722656 135.765625 678.636719 117.535156 650.234375 117.535156 Z M 644.136719 187.71875 L 621.351562 187.71875 L 621.351562 138.84375 L 644.226562 138.84375 C 660.847656 138.84375 670.226562 147.441406 670.226562 163.460938 C 670.226562 179.03125 660.578125 187.71875 644.136719 187.71875 Z M 644.136719 187.71875 " fill-opacity="1" fill-rule="nonzero"/></g></svg>