<svg width="35" height="35" viewBox="0 0 35 35" fill="none" xmlns="http://www.w3.org/2000/svg">
<path d="M29.1667 14.5833C29.1667 23.3333 17.5 32.0833 17.5 32.0833C17.5 32.0833 5.83334 23.3333 5.83334 14.5833C5.83334 11.4891 7.06251 8.52164 9.25043 6.33371C11.4384 4.14579 14.4058 2.91663 17.5 2.91663C20.5942 2.91663 23.5617 4.14579 25.7496 6.33371C27.9375 8.52164 29.1667 11.4891 29.1667 14.5833V14.5833Z" stroke="#212121" stroke-width="2" stroke-linecap="round" stroke-linejoin="round"/>
<path d="M17.5 18.9584C19.9162 18.9584 21.875 16.9996 21.875 14.5834C21.875 12.1671 19.9162 10.2084 17.5 10.2084C15.0838 10.2084 13.125 12.1671 13.125 14.5834C13.125 16.9996 15.0838 18.9584 17.5 18.9584Z" stroke="#212121" stroke-width="2" stroke-linecap="round" stroke-linejoin="round"/>
</svg>
